<?xml version="1.0" standalone="no"?>
<!DOCTYPE svg PUBLIC "-//W3C//DTD SVG 1.1//EN" "http://www.w3.org/Graphics/SVG/1.1/DTD/svg11.dtd" >
<svg>
<metadata>
Created by FontForge 20090914 at Tue Nov  3 19:39:09 2015
 By www-data
</metadata>
<defs>
<font id="Auto1-Bold" horiz-adv-x="2200" >
  <font-face 
    font-family="Auto 1 Lt"
    font-weight="600"
    font-stretch="normal"
    units-per-em="4096"
    panose-1="2 11 8 3 4 0 0 2 0 3"
    ascent="3154"
    descent="-942"
    x-height="1933"
    cap-height="2826"
    bbox="-201 -1446 4977 4051"
    underline-thickness="82"
    underline-position="-328"
    unicode-range="U+000D-U+FB02"
  />
<missing-glyph horiz-adv-x="1663" 
d="M721 381v217h180v-217h-180zM729 758l-4.00391 53.002c0 60 3.16699 112 9.5 156s16.833 79.333 31.5 106c14.667 28.667 34.334 59.167 59.001 91.5s55.667 66.166 93 101.499c34.667 34 62.5 63.333 83.5 88s37 47.167 48 67.5s18.333 39.833 22 58.5
s5.5 38.667 5.5 60c0 38 -6.66699 73.667 -20 107s-31.166 62.5 -53.499 87.5s-48.333 44.667 -78 59s-61.167 21.5 -94.5 21.5c-34 0 -65.667 -5.66699 -95 -17s-55.666 -29.5 -78.999 -54.5s-43 -57.167 -59 -96.5s-27 -87.333 -33 -144l-164 29
c8 76 24.667 141.667 50 197s57.166 101.166 95.499 137.499s82.5 63.333 132.5 81s103.667 26.5 161 26.5s110.5 -10.167 159.5 -30.5s91.333 -49 127 -86s63.667 -81.667 84 -134s30.5 -110.833 30.5 -175.5c0 -34.667 -3 -67.167 -9 -97.5s-16.667 -60.5 -32 -90.5
s-36.166 -61.167 -62.499 -93.5s-60.166 -68.166 -101.499 -107.499c-41.333 -32.667 -73.333 -63.167 -96 -91.5s-37 -53.833 -43 -76.5c-4 -20.667 -7.66699 -50.334 -11 -89.001s-5 -86.667 -5 -144h-152zM1499 160.002v2003h-1339v-2003h1339zM1663 2331v-2331h-1663
v2331h1663z" />
    <glyph glyph-name=".notdef" horiz-adv-x="1663" 
d="M721 381v217h180v-217h-180zM729 758l-4.00391 53.002c0 60 3.16699 112 9.5 156s16.833 79.333 31.5 106c14.667 28.667 34.334 59.167 59.001 91.5s55.667 66.166 93 101.499c34.667 34 62.5 63.333 83.5 88s37 47.167 48 67.5s18.333 39.833 22 58.5
s5.5 38.667 5.5 60c0 38 -6.66699 73.667 -20 107s-31.166 62.5 -53.499 87.5s-48.333 44.667 -78 59s-61.167 21.5 -94.5 21.5c-34 0 -65.667 -5.66699 -95 -17s-55.666 -29.5 -78.999 -54.5s-43 -57.167 -59 -96.5s-27 -87.333 -33 -144l-164 29
c8 76 24.667 141.667 50 197s57.166 101.166 95.499 137.499s82.5 63.333 132.5 81s103.667 26.5 161 26.5s110.5 -10.167 159.5 -30.5s91.333 -49 127 -86s63.667 -81.667 84 -134s30.5 -110.833 30.5 -175.5c0 -34.667 -3 -67.167 -9 -97.5s-16.667 -60.5 -32 -90.5
s-36.166 -61.167 -62.499 -93.5s-60.166 -68.166 -101.499 -107.499c-41.333 -32.667 -73.333 -63.167 -96 -91.5s-37 -53.833 -43 -76.5c-4 -20.667 -7.66699 -50.334 -11 -89.001s-5 -86.667 -5 -144h-152zM1499 160.002v2003h-1339v-2003h1339zM1663 2331v-2331h-1663
v2331h1663z" />
    <glyph glyph-name=".null" horiz-adv-x="0" 
 />
    <glyph glyph-name=".null" horiz-adv-x="0" 
 />
    <glyph glyph-name="nonmarkingreturn" unicode="&#xd;" horiz-adv-x="811" 
 />
    <glyph glyph-name="space" unicode=" " horiz-adv-x="815" 
 />
    <glyph glyph-name="exclam" unicode="!" horiz-adv-x="1262" 
d="M369 0v492h565v-492h-565zM872 913h-450l-49 2012h549z" />
    <glyph glyph-name="quotedbl" unicode="&#x22;" horiz-adv-x="1860" 
d="M1139 1651v1175h422v-1147zM299 1651v1175h422v-1147z" />
    <glyph glyph-name="numbersign" unicode="#" horiz-adv-x="2363" 
d="M2101 1602h-356l-98 -381h319l-16 -279h-373l-123 -463h-336l123 463h-381l-127 -463h-332l123 463h-299l21 279h356l98 381h-327l20 278h377l127 475h340l-127 -475h377l127 475h336l-127 -475h295zM1032 1602l-98 -381h381l98 381h-381z" />
    <glyph glyph-name="dollar" unicode="$" horiz-adv-x="1806" 
d="M1110 -528h-385.003l4 499c-117.333 6.66699 -225 23.334 -323 50.001s-188.333 60.667 -271 102l90 373c53.333 -24 109.833 -45.833 169.5 -65.5s119.334 -36.5 179.001 -50.5s117.334 -24.833 173.001 -32.5s105.834 -11.5 150.501 -11.5c50 0 94 5.16699 132 15.5
s69.667 24 95 41s44.333 36.167 57 57.5s19 43.333 19 66c0 25.333 -3.66699 48 -11 68s-22 38.833 -44 56.5s-53.167 35.167 -93.5 52.5s-93.166 36.333 -158.499 57c-98.667 26 -184.334 52.167 -257.001 78.5s-134.5 53.666 -185.5 81.999s-92.5 58.166 -124.5 89.499
s-57 65 -75 101s-30.167 74.667 -36.5 116s-9.5 86.333 -9.5 135c0 74 12.333 143.5 37 208.5s60 123.667 106 176s101.833 97.5 167.5 135.5s139.5 66.667 221.5 86l-4 573h385l-8 -553c99.333 -8 192.166 -23.667 278.499 -47s169.5 -56.666 249.5 -99.999l-135 -361
c-34 17.333 -73 33.5 -117 48.5s-89.667 28 -137 39s-94.333 19.667 -141 26s-89.667 9.5 -129 9.5c-100.667 0 -173.667 -16.167 -219 -48.5s-68 -76.166 -68 -131.499c0 -30 4.33301 -55.833 13 -77.5s26.334 -41.667 53.001 -60s64.167 -36.333 112.5 -54
s111.833 -37.167 190.5 -58.5c128 -36 231.833 -73.833 311.5 -113.5s141.5 -82.334 185.5 -128.001s73.833 -94.5 89.5 -146.5s23.5 -108.333 23.5 -169c0 -72.667 -11.833 -142 -35.5 -208s-59.167 -126 -106.5 -180s-106.5 -100.5 -177.5 -139.5
s-154.167 -67.833 -249.5 -86.5z" />
    <glyph glyph-name="percent" unicode="%" horiz-adv-x="3752" 
d="M1290 -233h-467l1626 2396h471zM1376 1397c0 -90 -14.168 -172.997 -42.501 -248.997s-69.5 -141.333 -123.5 -196s-120.167 -97.334 -198.5 -128.001s-167.166 -46 -266.499 -46c-98 0 -182.667 14.167 -254 42.5s-130 68.166 -176 119.499s-80 112.666 -102 183.999
s-33 150 -33 236c0 90 15 172.333 45 247s72.5 139 127.5 193s121.333 95.833 199 125.5s164.167 44.5 259.5 44.5c376.667 0 565 -191 565 -573zM1016 1384c0 47.333 -4.5 90.332 -13.5 128.999s-22.833 71.834 -41.5 99.501s-42.5 49.167 -71.5 64.5s-63.5 23 -103.5 23
c-38.667 0 -73.167 -7.5 -103.5 -22.5s-56 -36.5 -77 -64.5s-37 -62 -48 -102s-16.5 -85 -16.5 -135c0 -113.333 18.667 -197 56 -251s96.333 -81 177 -81c34.667 0 66.834 6.83301 96.501 20.5s55.167 34.5 76.5 62.5s38.166 63.333 50.499 106s18.5 93 18.5 151z
M3568 590.002c0 -90 -14.167 -172.996 -42.5 -248.996s-69.5 -141.333 -123.5 -196s-119.833 -97.334 -197.5 -128.001s-165.5 -46 -263.5 -46s-182.667 14.167 -254 42.5s-130 68.166 -176 119.499s-80 112.666 -102 183.999s-33 150 -33 236
c0 89.333 14.667 171.333 44 246s71.333 139 126 193s120.5 96 197.5 126s163.167 45 258.5 45c190.667 0 332.667 -47.833 426 -143.5s140 -238.834 140 -429.501zM3207 573.006c0 48 -4.33203 91.4971 -12.999 130.497s-22.334 72.333 -41 100
c-18.667 27.667 -42 48.834 -70 63.501s-61.667 22 -101 22c-80.667 0 -141.834 -28.167 -183.5 -84.5c-41.667 -56.333 -62.5 -136.166 -62.5 -239.499c0 -111.333 18.167 -193.666 54.5 -246.999s94.833 -80 175.5 -80c36 0 68.667 6.66699 98 20
s54.666 33.833 75.999 61.5s37.833 62.5 49.5 104.5s17.5 91.667 17.5 149z" />
    <glyph glyph-name="ampersand" unicode="&#x26;" horiz-adv-x="2966" 
d="M1528 2339c0 38 -5.99902 72.333 -17.999 103s-29 56.834 -51 78.5c-22 21.667 -49 38.5 -81 50.5s-68 18 -108 18c-42.667 0 -80.334 -7.16699 -113.001 -21.5s-60 -34.166 -82 -59.5c-22 -25.333 -38.667 -55.833 -50 -91.5s-17 -75.167 -17 -118.5
c0 -28.667 2.5 -60.167 7.5 -94.5s13.667 -71.666 26 -112c12.333 -40.333 28.666 -83.5 48.999 -129.5s45.833 -95 76.5 -147c74 66.667 134.333 125 181 175s83.334 95.333 110.001 136s45 77.834 55 111.5c10 33.667 15 67.5 15 101.5zM1442 406l-250 399.498l-238 402.5
c-65.333 -57.333 -119 -107.166 -161 -149.499s-75 -81 -99 -116s-40.5 -68.333 -49.5 -100s-13.5 -65.5 -13.5 -101.5c0 -59.333 11.833 -114 35.5 -164s56.667 -93.167 99 -129.5s92.5 -64.666 150.5 -84.999s121.333 -30.5 190 -30.5c26.667 0 55.5 2.16699 86.5 6.5
s61.667 10 92 17s59.333 14.833 87 23.5s51.167 17.667 70.5 27zM2728 1405c0 -80.667 -14.668 -164.839 -44.001 -252.506s-71.833 -176.334 -127.5 -266.001s-123.5 -179.167 -203.5 -268.5s-170.667 -176.666 -272 -261.999l137 -206
c39.333 -58 74.5 -107.5 105.5 -148.5s58.833 -74.5 83.5 -100.5s48 -46.5 70 -61.5s43.833 -25.333 65.5 -31s45.167 -8.83398 70.5 -9.50098c20.667 0 45.167 2.16699 73.5 6.5s57.666 10 88 17c30.333 7 60.5 14.833 90.5 23.5s56.667 17.667 80 27l59 -170l56 -170
c-34 -19.333 -74.833 -38.166 -122.5 -56.499s-98.167 -34.5 -151.5 -48.5s-107.666 -25.167 -163 -33.5c-55.333 -8.33301 -107.666 -12.5 -157 -12.5c-54.667 0 -103.834 4 -147.5 12c-43.667 8 -85.167 22 -124.5 42s-78 47.167 -116 81.5s-78.833 77.666 -122.5 129.999
s-91.334 114.833 -143.001 187.5l-178.5 255c-40.667 -20.667 -87.167 -39 -139.5 -55s-106.666 -29.667 -162.999 -41s-113.5 -20 -171.5 -26s-113 -9 -165 -9c-145.333 0 -272 17.333 -380 52s-197.833 83.334 -269.5 146.001s-125.334 137.334 -161.001 224.001
s-53.5 182.334 -53.5 287.001c0 42 3 82.667 9 122s17.333 78.833 34 118.5s39.834 81 69.501 124s67.834 89.333 114.501 139s103.167 104.167 169.5 163.5s144.5 125 234.5 197c-47.333 78.667 -86.333 151.834 -117 219.501s-55 131.334 -73 191.001s-30.5 116 -37.5 169
s-10.5 104.167 -10.5 153.5c0 56 6.66699 111.667 20 167s33.5 108.166 60.5 158.5c27 50.333 61 97.166 102 140.5c41 43.333 89.667 80.833 146 112.5s120.166 56.5 191.499 74.5s150.666 27 237.999 27c112 0 210 -14 294 -42s154 -66.667 210 -116s98 -107.333 126 -174
s42 -139 42 -217c0 -45.333 -4.16699 -89.333 -12.5 -132s-22 -85.334 -41 -128c-19 -42.667 -43.833 -86.167 -74.5 -130.5s-68 -91.166 -112 -140.499s-95.167 -101.666 -153.5 -156.999s-125.166 -115.333 -200.499 -180l252 -428.5l264 -427.5
c66.667 61.333 125.167 120.333 175.5 177s92.5 112 126.5 166s59.667 107.167 77 159.5s26 104.5 26 156.5c0 28.667 -4.83301 55.334 -14.5 80.001s-25.834 48.667 -48.5 72c-22.667 23.333 -52.167 46.666 -88.5 69.999s-81.166 47.666 -134.499 72.999l221 307
c96 -27.333 176.667 -59.666 242 -96.999s118 -78.5 158 -123.5s68.667 -93.5 86 -145.5s26 -106 26 -162z" />
    <glyph glyph-name="quotesingle" unicode="'" horiz-adv-x="1020" 
d="M299 1651v1175h422v-1147z" />
    <glyph glyph-name="parenleft" unicode="(" horiz-adv-x="1389" 
d="M1184 -1016c-100.667 20 -194.67 48.501 -282.003 85.501s-167 88.333 -239 154s-136 148.334 -192 248.001s-103 221.834 -141 366.501s-67 314.834 -87 510.501s-30 422.167 -30 679.5s9.5 483.833 28.5 679.5s47.167 366 84.5 511s83.5 267.5 138.5 367.5
s118.5 183.333 190.5 250s152.167 119.167 240.5 157.5s184.5 68.5 288.5 90.5l94 -331c-50.667 -23.333 -98.167 -48 -142.5 -74s-85.5 -56 -123.5 -90s-72.667 -73.333 -104 -118s-59.666 -97.334 -84.999 -158c-25.333 -60.667 -47.5 -130.834 -66.5 -210.501
s-34.667 -171.167 -47 -274.5s-21.666 -220 -27.999 -350s-9.5 -276 -9.5 -438c0 -163.333 3.16699 -310.5 9.5 -441.5s15.833 -248.5 28.5 -352.5s28.334 -195.833 47.001 -275.5s40.667 -149.834 66 -210.501s53.833 -113.334 85.5 -158.001s66.667 -83.834 105 -117.501
s79.833 -63.167 124.5 -88.5s92.667 -49.333 144 -72z" />
    <glyph glyph-name="parenright" unicode=")" horiz-adv-x="1389" 
d="M209 3088c75.333 -14.667 146.834 -34.0039 214.501 -58.0039s131.167 -55 190.5 -93s114.5 -84.333 165.5 -139s97.333 -119.834 139 -195.501s78.5 -163 110.5 -262s58.833 -212.333 80.5 -340s38.167 -270.667 49.5 -429s17 -334.166 17 -527.499
c0 -192.667 -5.33301 -367.667 -16 -525s-26.5 -299.666 -47.5 -426.999s-47.167 -240.5 -78.5 -339.5s-67.5 -186.5 -108.5 -262.5s-86.833 -141.667 -137.5 -197s-105.834 -102.5 -165.501 -141.5s-124 -71.167 -193 -96.5s-142.5 -46.333 -220.5 -63l-98 336
c50.667 22.667 98.167 46.667 142.5 72s85.333 54.833 123 88.5s72.334 72.834 104.001 117.501s60.167 97.334 85.5 158.001s47.333 130.667 66 210s34.334 170.833 47.001 274.5s22.167 220.334 28.5 350.001s9.5 275.5 9.5 437.5c0 163.333 -3.16699 310.5 -9.5 441.5
s-15.833 248.5 -28.5 352.5s-28.334 196 -47.001 276s-40.667 150.333 -66 211s-53.833 113.334 -85.5 158c-31.667 44.667 -66.334 83.834 -104.001 117.5c-37.667 33.667 -78.667 63.167 -123 88.5s-91.833 49.333 -142.5 72l98 335v0z" />
    <glyph glyph-name="asterisk" unicode="*" horiz-adv-x="2204" 
d="M1376 1937l377 -577l-381 -180l-307 602l-455 -508l-319 262l508 475l-623 238l180 352l570 -291l65 668l430 -45l-110 -672l635 143l86 -381z" />
    <glyph glyph-name="plus" unicode="+" 
d="M1933 807h-651v-631h-385v631h-651l20 336h631v643h385v-643h672z" />
    <glyph glyph-name="comma" unicode="," horiz-adv-x="1196" 
d="M930 -16c0 -93.333 -16 -177.668 -48 -253.001s-80 -144 -144 -206s-143.833 -118.333 -239.5 -169s-207.167 -98 -334.5 -142l-148 294c89.333 40.667 161.666 77.5 216.999 110.5s98.5 64.667 129.5 95s52 61.166 63 92.499s16.5 66 16.5 104
c0 16 -1.33301 36.5 -4 61.5s-6.5 52.667 -11.5 83s-11 62.5 -18 96.5s-14.5 68.333 -22.5 103s-16.667 68.834 -26 102.501s-18.666 65.167 -27.999 94.5l413 73c28 -30.667 53.333 -67.5 76 -110.5s42 -88.667 58 -137s28.5 -97.666 37.5 -147.999s13.5 -98.5 13.5 -144.5
z" />
    <glyph glyph-name="hyphen" unicode="-" horiz-adv-x="1524" 
d="M1356 852h-1204l20 336h1200z" />
    <glyph glyph-name="period" unicode="." horiz-adv-x="1176" 
d="M299 0v496h578v-496h-578z" />
    <glyph glyph-name="slash" unicode="/" horiz-adv-x="1626" 
d="M467 0h-463l1155 2826h463z" />
    <glyph glyph-name="zero" unicode="0" horiz-adv-x="2273" 
d="M2134 1012c0 -100.667 -10.334 -196.331 -31.001 -286.998s-51 -174.334 -91 -251.001s-89.667 -145.834 -149 -207.501s-127.833 -114.167 -205.5 -157.5s-164.334 -76.5 -260.001 -99.5s-199.834 -34.5 -312.501 -34.5c-168 0 -311.667 23 -431 69
s-217.166 111.667 -293.499 197s-132.333 188.5 -168 309.5s-53.5 256.833 -53.5 407.5c0 148.667 23.833 285.5 71.5 410.5s116.334 233 206.001 324s198.834 162 327.501 213s274 76.5 436 76.5c164.667 0 307 -21.5 427 -64.5s219 -105.833 297 -188.5
s135.833 -184.167 173.5 -304.5s56.5 -257.833 56.5 -412.5zM1618 999.003c0 106.667 -10.3369 199 -31.0039 277s-50.667 142.667 -90 194s-87.666 89.5 -144.999 114.5s-123 37.5 -197 37.5c-80 0 -151.167 -14.667 -213.5 -44s-115 -71.5 -158 -126.5
s-75.833 -122 -98.5 -201s-34 -168.167 -34 -267.5c0 -106.667 8.5 -201 25.5 -283s44.167 -150.833 81.5 -206.5s86.333 -97.834 147 -126.501s134.334 -43 221.001 -43c76 0 144.333 13.5 205 40.5s112.334 68.333 155.001 124s75.334 125.834 98.001 210.501
s34 184.667 34 300z" />
    <glyph glyph-name="one" unicode="1" horiz-adv-x="1364" 
d="M602 0v1544l-508 21l25 331l979 37v-1933h-496z" />
    <glyph glyph-name="two" unicode="2" horiz-adv-x="1909" 
d="M909 1569c-40 0 -78.8359 -2.66992 -116.503 -8.00293s-77.667 -16.166 -120 -32.499s-88.333 -39.333 -138 -69s-106.167 -68.5 -169.5 -116.5l-99.5 148.5l-101.5 150.5c72.667 59.333 142.334 110.333 209.001 153s133.334 77.5 200.001 104.5
s135.167 46.833 205.5 59.5s145.5 19 225.5 19c114.667 0 215.334 -15 302.001 -45s159.167 -72 217.5 -126s102.333 -118.333 132 -193s44.5 -156.667 44.5 -246c0 -65.333 -9.5 -127.333 -28.5 -186s-49.333 -117 -91 -175s-95.667 -117.5 -162 -178.5
s-147.166 -126.833 -242.499 -197.5l-365 -266h987l-37 -365h-1597l-37 291l635 454c95.333 68.667 172.666 128.834 231.999 180.501s105.5 98.834 138.5 141.501s55.333 82.667 67 120s17.5 76 17.5 116c0 36.667 -7.16699 71.167 -21.5 103.5s-34.833 60.5 -61.5 84.5
s-59 43 -97 57s-80.667 21 -128 21z" />
    <glyph glyph-name="three" unicode="3" horiz-adv-x="1884" 
d="M877 1556c-40 0 -78.998 -2.83105 -116.998 -8.49805s-78 -16.834 -120 -33.501s-87.5 -40 -136.5 -70s-104.833 -69 -167.5 -117l-205 311c72 60.667 141.333 112.5 208 155.5s133.5 78.167 200.5 105.5s135.5 47.333 205.5 60s144 19 222 19
c113.333 0 213.666 -14.667 300.999 -44s160.5 -70.5 219.5 -123.5s103.667 -116.833 134 -191.5s45.5 -157 45.5 -247c0 -51.333 -6.5 -101.5 -19.5 -150.5s-33.667 -98.667 -62 -149s-65 -102.333 -110 -156s-99.833 -110.834 -164.5 -171.501
c82.667 -34.667 151.667 -73 207 -115s99.5 -86.667 132.5 -134s56.333 -96.833 70 -148.5s20.5 -104.834 20.5 -159.501c0 -122.667 -22.667 -234.334 -68 -335.001s-111.5 -186.834 -198.5 -258.501s-194 -127.167 -321 -166.5s-272.5 -59 -436.5 -59
c-61.333 0 -122.166 2.83301 -182.499 8.5s-119 14.167 -176 25.5s-111.5 25.833 -163.5 43.5s-100.667 38.167 -146 61.5l90 353c99.333 -39.333 200 -67.666 302 -84.999s203.333 -26 304 -26c158.667 0 279 33.167 361 99.5s123 161.5 123 285.5
c0 57.333 -13.667 107.5 -41 150.5s-66.5 78.833 -117.5 107.5s-112.833 50.167 -185.5 64.5s-154.667 21.5 -246 21.5h-24.5c-11 0 -23.5 -0.166992 -37.5 -0.5s-28.833 -0.666016 -44.5 -0.999023s-30.834 -1.16602 -45.501 -2.49902l-20 369l75 2
c21.333 0.666992 44.166 1.16699 68.499 1.5s46.166 0.5 65.499 0.5c26.667 0 53.5 -0.166992 80.5 -0.5s53 -1 78 -2s48.5 -2.33301 70.5 -4s41.333 -3.5 58 -5.5c40.667 48 74.834 91.833 102.501 131.5s50 77.167 67 112.5s29.167 69.333 36.5 102s11 66 11 100
c0 38 -7.5 73.667 -22.5 107s-36 62.333 -63 87s-59 44.167 -96 58.5s-77.5 21.5 -121.5 21.5z" />
    <glyph glyph-name="four" unicode="4" 
d="M2036 106h-320v-720l-475 -29v749h-1069l-74 324l1164 1503h454v-1474h348zM1241 1368l-696 -917h696v917z" />
    <glyph glyph-name="five" unicode="5" horiz-adv-x="1896" 
d="M729 -631c-61.333 0 -119.502 2.1709 -174.502 6.50391s-108.333 11.166 -160 20.499s-102.167 21.666 -151.5 36.999s-99 33.666 -149 54.999l86 356c52 -19.333 103.333 -35.333 154 -48s100.667 -22.667 150 -30s98.5 -12.5 147.5 -15.5s97.833 -4.5 146.5 -4.5
c82 0 151.833 10.833 209.5 32.5s104.667 51.167 141 88.5s62.833 81.166 79.5 131.499s25 104.166 25 161.499c0 61.333 -11.5 115 -34.5 161s-61 84.333 -114 115s-122.167 53.667 -207.5 69s-190.666 23 -315.999 23c-18.667 0 -41.834 -0.5 -69.501 -1.5l-84.5 -3
c-28.667 -1 -56.167 -2.16699 -82.5 -3.5s-47.166 -2.66602 -62.499 -3.99902v1417h1446l-37 -409h-1020v-594c47.333 2 86.5 3.16699 117.5 3.5s54.833 0.5 71.5 0.5c106 0 201.833 -8.83301 287.5 -26.5s162 -42.334 229 -74.001s125 -69.667 174 -114
s89.333 -93.166 121 -146.499s55.167 -110.5 70.5 -171.5s23 -123.833 23 -188.5c0 -124 -22.667 -237.667 -68 -341s-111.166 -192.333 -197.499 -267s-192.5 -132.667 -318.5 -174s-270 -62 -432 -62z" />
    <glyph glyph-name="six" unicode="6" horiz-adv-x="2064" 
d="M1860 2093c-42.667 15.333 -89.5 29.666 -140.5 43c-51 13.333 -102.833 25 -155.5 35s-104.834 18 -156.501 24s-100.167 9 -145.5 9c-92 0 -171.833 -12 -239.5 -36s-125.334 -62.333 -173.001 -115s-86 -121.167 -115 -205.5s-51.167 -186.833 -66.5 -307.5
c202.667 -2 381.5 -14.333 536.5 -37s285 -62 390 -118s184.333 -132 238 -228s80.5 -218 80.5 -366c0 -72.667 -8.5 -143 -25.5 -211s-42.333 -132.167 -76 -192.5s-75.334 -115.5 -125.001 -165.5s-107.167 -92.833 -172.5 -128.5s-138.166 -63.5 -218.499 -83.5
s-168.166 -30 -263.499 -30c-153.333 0 -286 22.833 -398 68.5s-204.333 114.334 -277 206.001s-126.5 206.667 -161.5 345s-52.5 300.166 -52.5 485.499c0 266 25.5 493.5 76.5 682.5s125.833 343.667 224.5 464s220.334 208.5 365.001 264.5s310.667 84 498 84
c56 0 114.5 -3.16699 175.5 -9.5s120.667 -15.5 179 -27.5s113.5 -26.667 165.5 -44s97 -36.666 135 -58zM1446 774c0 76.667 -18.665 140.334 -55.998 191.001s-90.833 91 -160.5 121s-153.667 51 -252 63s-208.5 18 -330.5 18c0 -134.667 6.66699 -253.167 20 -355.5
s35.666 -187.833 66.999 -256.5s72.666 -120.334 123.999 -155.001s115 -52 191 -52c64.667 0 121.667 9.5 171 28.5s90.833 46.667 124.5 83s59 81 76 134s25.5 113.167 25.5 180.5z" />
    <glyph glyph-name="seven" unicode="7" horiz-adv-x="1913" 
d="M745 -627l-438 33l979 2122h-1184l37 405h1635l24 -311z" />
    <glyph glyph-name="eight" unicode="8" horiz-adv-x="2073" 
d="M299 1962c0 90 17.9971 172.831 53.9971 248.498s88 140.834 156 195.5c68 54.667 151.333 97.334 250 128c98.667 30.667 210.334 46 335.001 46c118 0 223.667 -13.667 317 -41s172.666 -66.833 237.999 -118.5s115.333 -114.834 150 -189.5
c34.667 -74.667 52 -159 52 -253c0 -48.667 -7.16699 -98.667 -21.5 -150s-36 -104.833 -65 -160.5s-65.667 -114 -110 -175s-96.166 -125.833 -155.499 -194.5c84 -65.333 152.833 -124 206.5 -176s95.834 -100.667 126.501 -146s51.834 -89.333 63.501 -132
s17.5 -87.667 17.5 -135c0 -112.667 -21.833 -214.334 -65.5 -305.001s-105.167 -167.667 -184.5 -231s-174.5 -112.166 -285.5 -146.499s-234.167 -51.5 -369.5 -51.5c-138 0 -260 13.333 -366 40s-195 67.334 -267 122.001s-126.5 124 -163.5 208s-55.5 183.333 -55.5 298
c0 52 6.33301 103.667 19 155s35 106.833 67 166.5s75.833 125.334 131.5 197.001s126.5 154.167 212.5 247.5c-49.333 41.333 -92 82.333 -128 123s-65.833 83.167 -89.5 127.5s-41.167 91.333 -52.5 141s-17 103.5 -17 161.5zM605.997 663.998
c0 -52 9.66797 -98.999 29.001 -140.999s47.166 -77.833 83.499 -107.5s80.666 -52.334 132.999 -68.001s111.166 -23.5 176.499 -23.5c60.667 0 113.834 7.83301 159.501 23.5s83.667 37.834 114 66.501s53.166 63.167 68.499 103.5s23 84.833 23 133.5
c0 36 -5.33301 69.5 -16 100.5s-27 61 -49 90s-49.5 57.667 -82.5 86s-71.5 57.833 -115.5 88.5l-266 184c-44 -56 -82.167 -107.833 -114.5 -155.5s-59.166 -92.834 -80.499 -135.501s-37.166 -84 -47.499 -124s-15.5 -80.333 -15.5 -121zM1430 1946
c0 45.333 -7.66602 86.168 -22.999 122.501s-37.5 67.166 -66.5 92.5c-29 25.333 -64.333 45 -106 59s-88.5 21 -140.5 21c-49.333 0 -94 -6.16699 -134 -18.5s-74 -30.333 -102 -54s-49.667 -53.167 -65 -88.5s-23 -76 -23 -122c0 -26.667 3.16699 -52.667 9.5 -78
s17 -50.5 32 -75.5s35.167 -50.167 60.5 -75.5s57 -51.333 95 -78l250 -176c77.333 104 132.166 194.667 164.499 272s48.5 143.666 48.5 198.999z" />
    <glyph glyph-name="nine" unicode="9" horiz-adv-x="2060" 
d="M201 -139c43.333 -15.333 90.3291 -29.8311 140.996 -43.498s102.334 -25.5 155.001 -35.5s104.834 -17.833 156.501 -23.5s100.167 -8.5 145.5 -8.5c92 0 171.833 12.833 239.5 38.5s125.334 65.667 173.001 120s86.334 124.166 116.001 209.499s52.834 188 69.501 308
c-204 2 -383.833 14.167 -539.5 36.5s-286.167 61.166 -391.5 116.499s-184.833 130.833 -238.5 226.5s-80.5 217.5 -80.5 365.5c0 72.667 8.5 143.167 25.5 211.5s42.333 132.833 76 193.5s75.5 116.167 125.5 166.5s107.667 93.666 173 129.999s138.166 64.5 218.499 84.5
s167.833 30 262.5 30c153.333 0 286 -22.833 398 -68.5s204.333 -114.667 277 -207s126.5 -208 161.5 -347s52.5 -301.5 52.5 -487.5c0 -264 -25.5 -490.833 -76.5 -680.5s-125.667 -345.5 -224 -467.5s-219.833 -211.833 -364.5 -269.5s-310.667 -86.5 -498 -86.5
c-56.667 0 -115.5 3.5 -176.5 10.5s-120.667 16.833 -179 29.5s-113.5 27.834 -165.5 45.501s-97 37.167 -135 58.5zM613.996 1188c0 -78.667 19.499 -143.499 58.499 -194.499s93.833 -91.167 164.5 -120.5s154.834 -49.666 252.501 -60.999s205.5 -17 323.5 -17
c0 22.667 -0.166992 53.5 -0.5 92.5s-1.5 83.167 -3.5 132.5c-2.66699 104.667 -13.5 194.5 -32.5 269.5s-45.167 136.5 -78.5 184.5s-74 83.333 -122 106s-102.667 34 -164 34c-64.667 0 -121.667 -9.66699 -171 -29s-90.833 -47.333 -124.5 -84
s-59.167 -81.334 -76.5 -134.001s-26 -112.334 -26 -179.001z" />
    <glyph glyph-name="colon" unicode=":" horiz-adv-x="1176" 
d="M299 1282v496h578v-496h-578zM299 147v492h578v-492h-578z" />
    <glyph glyph-name="semicolon" unicode=";" horiz-adv-x="1180" 
d="M295 1282v496h573v-496h-573zM930 -16c0 -93.333 -16 -177.668 -48 -253.001s-80 -144 -144 -206s-143.833 -118.333 -239.5 -169s-207.167 -98 -334.5 -142l-148 294c89.333 40.667 161.666 77.5 216.999 110.5s98.5 64.667 129.5 95s52 61.166 63 92.499
s16.5 66 16.5 104c0 16 -1.33301 36.5 -4 61.5s-6.5 52.667 -11.5 83s-11 62.5 -18 96.5s-14.5 68.333 -22.5 103s-16.667 68.834 -26 102.501s-18.666 65.167 -27.999 94.5l413 73c28 -30.667 53.333 -67.5 76 -110.5s42 -88.667 58 -137s28.5 -97.666 37.5 -147.999
s13.5 -98.5 13.5 -144.5z" />
    <glyph glyph-name="less" unicode="&#x3c;" horiz-adv-x="2122" 
d="M1860 1483l-1098 -512l1093 -525l-36 -413l-1622 770l28 307l1663 791z" />
    <glyph glyph-name="equal" unicode="=" horiz-adv-x="2118" 
d="M1851 1171h-1601l20 336h1602zM1851 442h-1601l20 336h1602z" />
    <glyph glyph-name="greater" unicode="&#x3e;" horiz-adv-x="2122" 
d="M262 446l1098 512l-1094 525l37 413l1622 -770l-24 -307l-1668 -790z" />
    <glyph glyph-name="question" unicode="?" horiz-adv-x="1757" 
d="M442 0v492h566v-492h-566zM1659 2171c0 -86 -8.49707 -160.833 -25.4971 -224.5s-46.167 -120 -87.5 -169s-96.5 -93 -165.5 -132s-155.167 -76.833 -258.5 -113.5c-69.333 -24.667 -124.833 -46 -166.5 -64s-73.5 -35.333 -95.5 -52s-36.333 -33.834 -43 -51.501
s-10 -38.167 -10 -61.5c0 -24.667 1.33301 -52.667 4 -84s6.16699 -63.666 10.5 -96.999s9.16602 -66.5 14.499 -99.5s10.666 -63.833 15.999 -92.5l-406 -45c-13.333 36 -25.666 75.333 -36.999 118s-21.333 85.334 -30 128.001s-15.334 83.667 -20.001 123
s-7 73.333 -7 102c0 36.667 2.33301 69.667 7 99s13.667 56.166 27 80.499s32.166 46.833 56.499 67.5s56.166 41 95.499 61s87 40.5 143 61.5s122.667 43.833 200 68.5c60 19.333 109.333 39.333 148 60s69.167 42.667 91.5 66s37.833 48.5 46.5 75.5s13 56.833 13 89.5
c0 69.333 -14.833 130.833 -44.5 184.5s-77 98.667 -142 135s-149.167 63.833 -252.5 82.5s-228.666 28 -375.999 28h-42c-13.333 0 -27.333 -0.166992 -42 -0.5s-30.5 -0.666016 -47.5 -1c-17 -0.333008 -36.167 -1.16602 -57.5 -2.5l45 418c52 6 108.167 11.5 168.5 16.5
s125.833 7.5 196.5 7.5c178 0 334 -19.167 468 -57.5s245.833 -92 335.5 -161s157 -151.5 202 -247.5s67.5 -201.333 67.5 -316z" />
    <glyph glyph-name="at" unicode="@" horiz-adv-x="3830" 
d="M2118 299l-129.503 -113.512c-37.667 -32.333 -72 -59.833 -103 -82.5s-59.667 -41.167 -86 -55.5s-52 -25.666 -77 -33.999s-50.5 -14 -76.5 -17s-54.333 -4.5 -85 -4.5c-64.667 0 -123.834 12.333 -177.501 37s-99.834 62.834 -138.501 114.501
s-68.834 117.5 -90.501 197.5s-32.5 175.333 -32.5 286c0 198.667 21 373.667 63 525s102 278.166 180 380.499s172.667 179.666 284 231.999s236 78.5 374 78.5c43.333 0 92.166 -2.5 146.5 -7.5c54.333 -5 110.5 -12 168.5 -21s116.167 -19.667 174.5 -32
s112.5 -26.166 162.5 -41.499l-103 -1053l-8 -94.5c-2.66699 -33 -5.16699 -66 -7.5 -99l-6.5 -94.5c-2 -30 -4 -57 -6 -81c76.667 14 148.667 38.333 216 73s128.833 77.834 184.5 129.501s105.334 111 149 178c43.667 67 80.667 139.333 111 217
s53.333 159.834 69 246.501s23.5 175.667 23.5 267c0 162 -26.5 305.667 -79.5 431s-131.5 231 -235.5 317s-232.833 151.333 -386.5 196s-330.834 67 -531.5 67c-147.333 0 -287.166 -18 -419.499 -54s-254.666 -88.5 -366.999 -157.5s-213.833 -153.167 -304.5 -252.5
s-167.667 -212.5 -231 -339.5s-112 -266.667 -146 -419s-51 -315.5 -51 -489.5c0 -214 18.333 -396.333 55 -547s90.334 -273.5 161.001 -368.5s157.667 -164.167 261 -207.5s221.333 -65 354 -65c44 0 91.667 2.66699 143 8s104.333 12.833 159 22.5
s110.334 21.334 167.001 35.001s112 28.834 166 45.501l86 -283c-51.333 -25.333 -107.166 -48.666 -167.499 -69.999s-123 -39.5 -188 -54.5s-131.167 -26.667 -198.5 -35s-134 -12.5 -200 -12.5c-119.333 0 -231.666 10.5 -336.999 31.5s-202.333 55.333 -291 103
s-168.167 109.834 -238.5 186.501s-129.833 170.5 -178.5 281.5s-86 240.667 -112 389s-39 317.5 -39 507.5c0 217.333 23.5 419.5 70.5 606.5s113.167 357.333 198.5 511s188 290.167 308 409.501c120 119.333 253 219.666 399 301c146 81.333 303 143.166 471 185.5
c168 42.333 342.667 63.5 524 63.5c266 0 496.333 -31.333 691 -94s355.5 -151.5 482.5 -266.5s221.167 -254 282.5 -417s92 -344.833 92 -545.5c0 -129.333 -14.5 -255.666 -43.5 -378.999s-70.5 -239.666 -124.5 -348.999s-119.833 -209.666 -197.5 -300.999
s-165.167 -170.166 -262.5 -236.499s-203.666 -117.833 -319 -154.5c-115.333 -36.667 -238 -55 -368 -55c-48 0 -87.167 6.33301 -117.5 19s-54 32.167 -71 58.5s-28.667 60 -35 101s-9.5 89.5 -9.5 145.5zM1573 691.988c0 -110.667 16.335 -192.165 49.002 -244.498
s81.667 -78.5 147 -78.5c19.333 0 39.666 3.83301 60.999 11.5s45.666 20.167 72.999 37.5s59 40.166 95 68.499l128 103.5l86 856c-41.333 10 -84.5 18 -129.5 24s-85.167 9 -120.5 9c-68.667 0 -127.5 -19.167 -176.5 -57.5s-89.167 -92 -120.5 -161
s-54.5 -151.833 -69.5 -248.5s-22.5 -203.334 -22.5 -320.001z" />
    <glyph glyph-name="A" unicode="A" horiz-adv-x="2572" 
d="M1987 0l-254 754h-947l-274 -754h-504l1041 2826h495l1008 -2826h-565zM897 1098h725l-311 950c-14.667 41.333 -24.5 81.166 -29.5 119.5c-5 38.333 -7.5 70.833 -7.5 97.5c0 -26.667 -4 -59.667 -12 -99s-19 -78.666 -33 -118z" />
    <glyph glyph-name="B" unicode="B" horiz-adv-x="2367" 
d="M2220 877c0 -133.333 -24.3311 -254.003 -72.998 -362.003s-120.167 -200.167 -214.5 -276.5s-210.5 -135.166 -348.5 -176.499s-296 -62 -474 -62h-836v2826h877c156.667 0 290.5 -16.333 401.5 -49s201.667 -79 272 -139s121.833 -132.667 154.5 -218
s49 -180.666 49 -285.999c0 -102.667 -23.667 -204 -71 -304s-114 -203.333 -200 -310c83.333 -28.667 154.166 -64.834 212.499 -108.501s106.166 -93.167 143.499 -148.5s64.5 -115.666 81.5 -180.999s25.5 -133.666 25.5 -204.999zM1528 2064
c0 60.667 -8.66797 114.668 -26.001 162.001s-44.833 87.166 -82.5 119.499s-86.667 57 -147 74s-133.5 25.5 -219.5 25.5h-275v-823h602c28 46 51.333 88.333 70 127s33.834 75.5 45.501 110.5s20 69.167 25 102.5s7.5 67.333 7.5 102zM1696 847.998
c0 60.667 -9.66699 115.831 -29 165.498s-48.5 92.334 -87.5 128.001s-87.667 63.167 -146 82.5s-126.5 29 -204.5 29h-451v-868h373c97.333 0 180.5 11 249.5 33s125.333 53.333 169 94s75.667 89.334 96 146.001s30.5 120 30.5 190z" />
    <glyph glyph-name="C" unicode="C" horiz-adv-x="2466" 
d="M1741 2388c-28 7.33301 -53.333 13.332 -76 17.999s-44.834 8.5 -66.501 11.5s-43.334 5 -65.001 6s-45.5 1.5 -71.5 1.5c-116.667 0 -221.334 -20.833 -314.001 -62.5s-171.167 -105 -235.5 -190s-113.666 -192 -147.999 -321s-51.5 -280.5 -51.5 -454.5
c0 -130.667 8.83301 -245.834 26.5 -345.501s42.667 -186.167 75 -259.5s70.833 -134.666 115.5 -183.999s94 -89 148 -119s111.833 -51.333 173.5 -64s125.167 -19 190.5 -19c67.333 0 134 5.16699 200 15.5s130.5 25 193.5 44s124.667 41.833 185 68.5
s118.5 56.334 174.5 89.001l140 -381c-70.667 -42.667 -142.334 -80.834 -215 -114.501c-72.667 -33.667 -149.167 -62.167 -229.5 -85.5s-165.666 -41 -255.999 -53s-188.833 -18 -295.5 -18c-191.333 0 -360 27 -506 81s-268.167 137.333 -366.5 250
s-172.666 255.834 -222.999 429.501s-75.5 380.5 -75.5 620.5c0 231.333 28.667 439.5 86 624.5s140.666 342.333 249.999 472s243.833 229.167 403.5 298.5s341.834 104 546.501 104c91.333 0 173.5 -3.16699 246.5 -9.5s140.5 -15.666 202.5 -28
c62 -12.333 120.667 -28 176 -47s110.666 -41.5 166 -67.5l-54 -856l-438 -24z" />
    <glyph glyph-name="D" unicode="D" horiz-adv-x="2691" 
d="M2523 1475c0 -236.667 -29.002 -446.667 -87.002 -630s-144.167 -337.5 -258.5 -462.5s-256.666 -220 -426.999 -285s-367.5 -97.5 -591.5 -97.5h-885v2826h963c136.667 0 263.334 -10.167 380.001 -30.5s222.5 -52.666 317.5 -97
c95 -44.333 179.167 -101.666 252.5 -172c73.333 -70.333 134.833 -155.5 184.5 -255.5s87.334 -215.833 113 -347.5c25.667 -131.667 38.5 -281.167 38.5 -448.5zM785.998 2429l0.00195312 -2036h373c143.333 0 267.5 22 372.5 66s191.833 109.5 260.5 196.5
s119.667 195.5 153 325.5s50 281 50 453c0 170 -15.833 317.5 -47.5 442.5s-81.334 228.333 -149.001 310s-154.334 142.5 -260.001 182.5s-232.167 60 -379.5 60h-373z" />
    <glyph glyph-name="E" unicode="E" horiz-adv-x="2228" 
d="M279 0v2826h1773l-33 -393h-1228v-786h1097v-394h-1097v-860h1232l37 -393h-1781z" />
    <glyph glyph-name="F" unicode="F" horiz-adv-x="2089" 
d="M1958 2433h-1167v-844h1064l-32 -389h-1032v-1200h-512v2826h1716z" />
    <glyph glyph-name="G" unicode="G" horiz-adv-x="2654" 
d="M2413 254c-66.667 -42 -139.998 -80.3359 -219.998 -115.003s-165 -64.5 -255 -89.5s-184 -44.333 -282 -58s-198 -20.5 -300 -20.5c-190.667 0 -359.667 25.833 -507 77.5s-271.5 133 -372.5 244s-177.667 253.5 -230 427.5s-78.5 383.333 -78.5 628
c0 234.667 28.667 444.834 86 630.501s140.666 343.167 249.999 472.5s243.166 228.333 401.499 297s338.5 103 540.5 103c97.333 0 184.5 -2.83301 261.5 -8.5s149.167 -14.834 216.5 -27.5c67.333 -12.667 132.5 -29.5 195.5 -50.5s129.167 -46.833 198.5 -77.5l-135 -401
c-113.333 49.333 -230.333 85.5 -351 108.5s-244 34.5 -370 34.5c-118.667 0 -224.834 -21.5 -318.501 -64.5s-173 -107.333 -238 -193s-114.667 -192.667 -149 -321s-51.5 -278.166 -51.5 -449.499c0 -191.333 18.333 -352.333 55 -483s88.334 -236 155.001 -316
s146.834 -137.5 240.501 -172.5s197.167 -52.5 310.5 -52.5c42 0 81.833 1.83301 119.5 5.5s74.167 9.33398 109.5 17.001s70.666 17.5 105.999 29.5s71.333 26 108 42v569h-520l28 369h996v-1155v0z" />
    <glyph glyph-name="H" unicode="H" horiz-adv-x="2863" 
d="M2064 0v1233h-1269v-1233h-516v2826h516v-1184h1269v1184h521v-2826h-521z" />
    <glyph glyph-name="I" unicode="I" horiz-adv-x="1729" 
d="M1536 2474l-393 -25v-2089l401 -16v-344h-1319v344l402 16v2089l-389 25v352h1298v-352z" />
    <glyph glyph-name="J" unicode="J" horiz-adv-x="1442" 
d="M-33 -262c28.667 -8 59.6689 -15.168 93.002 -21.501s66.166 -11.5 98.499 -15.5s63.333 -7 93 -9s55.167 -3 76.5 -3c52 0 95.833 5.83301 131.5 17.5s64.334 29.834 86.001 54.501s37.167 56.5 46.5 95.5s14 85.5 14 139.5v2453l-442 25v352h1253v-352l-291 -20v-2368
c0 -127.333 -16.833 -240.5 -50.5 -339.5s-83.334 -182.5 -149.001 -250.5s-146.5 -119.833 -242.5 -155.5s-206.667 -53.5 -332 -53.5c-36.667 0 -75.834 2 -117.501 6s-83.5 9.5 -125.5 16.5s-83 15.667 -123 26s-76.333 21.5 -109 33.5z" />
    <glyph glyph-name="K" unicode="K" horiz-adv-x="2470" 
d="M1855 0l-835 1286l-242 -266v-1020h-499v2826h499v-1261l1057 1261h532l-966 -1184l1089 -1642h-635z" />
    <glyph glyph-name="L" unicode="L" horiz-adv-x="2064" 
d="M279 0v2826h516v-2433h1147l32 -393h-1695z" />
    <glyph glyph-name="M" unicode="M" horiz-adv-x="3482" 
d="M2716 0l-13 1995c-6 -35.333 -13.5 -69 -22.5 -101s-21.833 -66.667 -38.5 -104l-762 -1733h-344l-729 1672c-9.33301 20 -17.333 38.667 -24 56s-12.5 34.333 -17.5 51s-9.16699 33.167 -12.5 49.5s-6 33.5 -8 51.5l-28 -1937h-447l49 2826h500l922 -2093l950 2093h496
l32 -2826h-503z" />
    <glyph glyph-name="N" unicode="N" horiz-adv-x="2900" 
d="M2175 0l-1315 1810c-24.667 33.333 -45.834 64.833 -63.501 94.5s-30.5 57.167 -38.5 82.5v-1987h-479v2826h450l1307 -1839c32.667 -45.333 57.834 -83 75.5 -113c17.667 -30 30.5 -56.333 38.5 -79v2031h476v-2826h-451z" />
    <glyph glyph-name="O" unicode="O" horiz-adv-x="2855" 
d="M2683 1458c0 -139.333 -12.002 -272.836 -36.002 -400.503s-60.333 -246.667 -109 -357s-109.334 -210.666 -182 -300.999c-72.667 -90.333 -157.5 -167.5 -254.5 -231.5s-206.333 -113.5 -328 -148.5s-255.5 -52.5 -401.5 -52.5
c-193.333 0 -364.666 25.167 -513.999 75.5s-274.833 131 -376.5 242s-178.667 255.167 -231 432.5s-78.5 393 -78.5 647c0 152.667 13.167 295.5 39.5 428.5s65 254.5 116 364.5s113.833 208 188.5 294s160.334 158.667 257.001 218s203.667 104.5 321 135.5
s244.333 46.5 381 46.5c193.333 0 365 -25.5 515 -76.5s276.333 -132.167 379 -243.5s180.667 -255.166 234 -431.499s80 -390.166 80 -641.499zM2134 1434c0 160 -12.335 302.499 -37.002 427.499s-64.167 230.833 -118.5 317.5s-124.5 152.667 -210.5 198
s-190.667 68 -314 68c-116 0 -219.333 -22.833 -310 -68.5s-167.334 -112.5 -230.001 -200.5s-110.5 -196.333 -143.5 -325s-49.5 -276 -49.5 -442c0 -178 13.333 -331.667 40 -461s68 -236 124 -320s127 -146.167 213 -186.5s188.333 -60.5 307 -60.5
s223.334 23.5 314.001 70.5s166.834 115.5 228.501 205.5s108.167 200.333 139.501 331c31.333 130.667 47 279.334 47 446.001z" />
    <glyph glyph-name="P" unicode="P" horiz-adv-x="2224" 
d="M2101 1942c0 -102 -10.835 -198.833 -32.502 -290.5s-53.167 -176.667 -94.5 -255s-91.666 -149 -150.999 -212s-126.833 -116.667 -202.5 -161s-158.667 -78.5 -249 -102.5s-187.166 -36 -290.499 -36c-16 0 -38.5 0.333008 -67.5 1s-58.5 1.5 -88.5 2.5
s-57.5 2.66699 -82.5 5s-42.167 4.83301 -51.5 7.5v-901h-512v2826h901c162 0 301 -22 417 -66s211.333 -105.333 286 -184s129.667 -172 165 -280s53 -226 53 -354zM1593 1901c0 69.333 -7.5 136.166 -22.5 200.499s-40.833 121 -77.5 170s-86.167 88.167 -148.5 117.5
s-140.5 44 -234.5 44h-319v-1155c5.33301 -1.33301 14.833 -2.66602 28.5 -3.99902s29.5 -2.5 47.5 -3.5s37.5 -2.16699 58.5 -3.5s41.5 -2.33301 61.5 -3s38.667 -1.16699 56 -1.5s31.333 -0.5 42 -0.5c94 0 173.333 17.5 238 52.5s117 82 157 141s68.833 127 86.5 204
s26.5 157.5 26.5 241.5z" />
    <glyph glyph-name="Q" unicode="Q" horiz-adv-x="2855" 
d="M2683 1458c0 -150.667 -14.334 -294.83 -43.001 -432.497s-71.667 -264.834 -129 -381.501s-129 -220.834 -215 -312.501s-186.333 -166.834 -301 -225.501c28.667 -86 54.667 -155.667 78.001 -209c23.333 -53.333 48.333 -94.833 75 -124.5s57 -49.667 91 -60
s75.333 -15.5 124 -15.5c22.667 0 50.167 1.33301 82.5 4s66.666 6.5 102.999 11.5s73.833 10.667 112.5 17s76 13.166 112 20.499l53 -381c-40 -15.333 -84.333 -28.833 -133 -40.5s-97.667 -21.5 -147 -29.5s-97 -14 -143 -18s-86.667 -6 -122 -6
c-64.667 0 -123.167 3.66699 -175.5 11s-99.833 20.666 -142.5 39.999s-81.5 45.833 -116.5 79.5s-67.833 76.667 -98.5 129s-59.834 115.333 -87.501 189s-55.5 160.5 -83.5 260.5c-33.333 -4.66699 -67 -8.66699 -101 -12s-68.667 -5 -104 -5
c-193.333 0 -364.666 25.167 -513.999 75.5s-274.833 131 -376.5 242s-178.667 255.167 -231 432.5s-78.5 393 -78.5 647c0 152.667 13.167 295.5 39.5 428.5s65 254.5 116 364.5s113.833 208 188.5 294s160.334 158.667 257.001 218s203.667 104.5 321 135.5
s244.333 46.5 381 46.5c193.333 0 365 -25.5 515 -76.5s276.333 -132.167 379 -243.5s180.667 -255.166 234 -431.499s80 -390.166 80 -641.499zM2134 1434c0 160 -12.334 302.499 -37.001 427.499s-64.167 230.833 -118.5 317.5s-124.5 152.667 -210.5 198
s-190.667 68 -314 68c-116 0 -219.333 -22.833 -310 -68.5s-167.334 -112.5 -230.001 -200.5s-110.5 -196.333 -143.5 -325s-49.5 -276 -49.5 -442c0 -178 13.333 -331.667 40 -461s68 -236 124 -320s127 -146.167 213 -186.5s188.333 -60.5 307 -60.5
s223.334 23.5 314.001 70.5s166.834 115.5 228.501 205.5s108.167 200.333 139.5 331s47 279.334 47 446.001z" />
    <glyph glyph-name="R" unicode="R" horiz-adv-x="2376" 
d="M1729 0l-537.003 1069h-401v-1069h-512v2826h880c167.333 0 311.5 -16.167 432.5 -48.5s220.833 -81.166 299.5 -146.5c78.667 -65.333 136.834 -147.166 174.501 -245.5c37.667 -98.333 56.5 -213.5 56.5 -345.5c0 -68 -8.5 -135 -25.5 -201s-44.167 -133 -81.5 -201
s-85.166 -138 -143.499 -210s-129.166 -148 -212.499 -228l651 -1200h-581zM1618 2015c0 70.667 -10 132.165 -30 184.498s-51 95.833 -93 130.5s-95.5 60.5 -160.5 77.5s-142.5 25.5 -232.5 25.5h-311v-991h565c48 56 88.667 108.667 122 158s60.333 96.833 81 142.5
s35.667 90.834 45 135.501s14 90.334 14 137.001z" />
    <glyph glyph-name="S" unicode="S" horiz-adv-x="2232" 
d="M2056 831c0 -120.667 -22.668 -233.496 -68.001 -338.496s-112.666 -196.5 -201.999 -274.5s-200.333 -139.333 -333 -184s-286.667 -67 -462 -67c-86 0 -167 3.66699 -243 11s-149.333 18.666 -220 33.999s-139.834 34.5 -207.501 57.5s-136.167 50.5 -205.5 82.5
l135 430c57.333 -26 118.833 -49.667 184.5 -71s132.667 -39.833 201 -55.5s136.5 -27.834 204.5 -36.501s133.333 -13 196 -13c81.333 0 152.833 8.5 214.5 25.5s113.334 40.5 155.001 70.5s73.167 65.833 94.5 107.5s32 86.834 32 135.501c0 52 -6.83301 98 -20.5 138
s-39.334 76.5 -77.001 109.5s-89.834 64.167 -156.501 93.5s-152.667 59.333 -258 90c-92.667 26.667 -177 54 -253 82s-143.667 58.667 -203 92s-110.833 70.666 -154.5 111.999s-79.667 88.333 -108 141s-49.5 112.167 -63.5 178.5s-21 141.5 -21 225.5
c0 120.667 20.5 233.334 61.5 338c41 104.667 101.667 195.667 182 273s180 138.166 299 182.5c119 44.333 256.167 66.5 411.5 66.5c167.333 0 320.833 -15.167 460.5 -45.5s262.167 -72.5 367.5 -126.5l-127 -397c-50 20.667 -104.5 39.334 -163.5 56
c-59 16.667 -118.333 30.834 -178 42.5c-59.667 11.667 -117.667 20.667 -174 27s-107.166 9.5 -152.499 9.5c-80.667 0 -150 -7.66699 -208 -23s-105.5 -37.833 -142.5 -67.5s-64.333 -66.334 -82 -110.001s-26.5 -94.167 -26.5 -151.5c0 -50 5.66699 -94.833 17 -134.5
s33.5 -76 66.5 -109s79.5 -63.833 139.5 -92.5s138.667 -57.334 236 -86.001c116.667 -34 218.834 -68.5 306.501 -103.5s163 -71.667 226 -110s115.167 -79 156.5 -122s74 -89.5 98 -139.5s40.833 -104 50.5 -162s14.5 -121.667 14.5 -191z" />
    <glyph glyph-name="T" unicode="T" horiz-adv-x="2298" 
d="M2236 2433h-827v-2433h-512v2433h-868l32 393h2208z" />
    <glyph glyph-name="U" unicode="U" horiz-adv-x="2757" 
d="M2503 1114c0 -170.667 -23.668 -326.331 -71.001 -466.998s-119 -261 -215 -361s-216.667 -177.5 -362 -232.5s-316 -82.5 -512 -82.5c-195.333 0 -362 22.667 -500 68s-250.667 114 -338 206s-151 207.5 -191 346.5s-60 302.167 -60 489.5v1745h516v-1745
c0 -120.667 10.667 -224.834 32 -312.501s56 -159.834 104 -216.501s110.5 -98.667 187.5 -126s171.167 -41 282.5 -41c118.667 0 218.5 15.333 299.5 46s146.333 76.167 196 136.5s85.334 135.5 107.001 225.5s32.5 194.333 32.5 313v1720h492v-1712v0z" />
    <glyph glyph-name="V" unicode="V" horiz-adv-x="2454" 
d="M1974 2826h496l-1053 -2826h-487l-946 2826h581l627 -1999c10 -36.667 18 -74.5 24 -113.5s9 -72.167 9 -99.5c0 27.333 3.66699 60.5 11 99.5s17.333 76.833 30 113.5z" />
    <glyph glyph-name="W" unicode="W" horiz-adv-x="3625" 
d="M1233 0h-548.999l-643 2826h553l397 -1982c8.66699 -43.333 14.334 -83 17.001 -119s4 -67.333 4 -94c0 26.667 4.16699 59 12.5 97s17.833 76.667 28.5 116l532 1831h496l504 -1831c10 -39.333 17.833 -78 23.5 -116s8.5 -70.333 8.5 -97c0 26.667 3 58.5 9 95.5
s14 76.167 24 117.5l451 1982h483l-684 -2826h-553l-528 1831c-10.667 37.333 -18.834 74.833 -24.501 112.5s-8.5 69.834 -8.5 96.501c0 -26.667 -2.83301 -58.834 -8.5 -96.501s-13.834 -75.167 -24.501 -112.5z" />
    <glyph glyph-name="X" unicode="X" horiz-adv-x="2384" 
d="M1495 1450l856 -1450h-594l-586 1008l-602 -1008h-557l869 1393l-832 1433h586l569 -999l619 999h536z" />
    <glyph glyph-name="Y" unicode="Y" horiz-adv-x="2351" 
d="M1393 1221v-1221h-516v1208l-902 1618h594l611 -1114l684 1114h512z" />
    <glyph glyph-name="Z" unicode="Z" horiz-adv-x="2171" 
d="M2097 2507l-1409 -2114h1368l-24 -393h-1909l-37 373l1348 2060h-1270l29 393h1884z" />
    <glyph glyph-name="bracketleft" unicode="[" horiz-adv-x="1364" 
d="M1233 2654h-512v-3232h532l-24 -352h-950v3932h983z" />
    <glyph glyph-name="backslash" unicode="\" horiz-adv-x="1651" 
d="M1159 0l-1155 2826h467l1159 -2826h-471z" />
    <glyph glyph-name="bracketright" unicode="]" horiz-adv-x="1360" 
d="M102 -930l29 352h512v3232h-532l24 348h950v-3932h-983z" />
    <glyph glyph-name="asciicircum" unicode="^" horiz-adv-x="1962" 
d="M1012 2429l-33.502 101.5c-9 28.333 -16.167 54.333 -21.5 78s-9.16602 46 -11.499 67s-3.5 43.833 -3.5 68.5c0 -24.667 -1.16699 -47.5 -3.5 -68.5s-6.16602 -43.333 -11.499 -67s-12.5 -49.667 -21.5 -78l-33.5 -101.5l-274 -811h-442l643 1597h422l589 -1597h-512z
" />
    <glyph glyph-name="underscore" unicode="_" horiz-adv-x="1528" 
d="M1413 0h-1331l24 287h1328z" />
    <glyph glyph-name="grave" unicode="`" horiz-adv-x="1286" 
d="M758 2261l-565 745l385 86l507 -761z" />
    <glyph glyph-name="a" unicode="a" horiz-adv-x="2089" 
d="M1262 811c-130 -9.33301 -237.001 -20.501 -321.001 -33.501s-150.167 -29 -198.5 -48s-81.833 -41.833 -100.5 -68.5s-28 -58.667 -28 -96c0 -38.667 5.5 -73.667 16.5 -105s27.167 -58 48.5 -80s47.5 -39 78.5 -51s66.5 -18 106.5 -18s79.333 5.5 118 16.5
s75.334 25.333 110.001 43s66.5 37.834 95.5 60.501s53.833 45.667 74.5 69v311v0zM1761 -20.001c-70.667 0 -133.002 5.33301 -187.002 16s-100.5 26.167 -139.5 46.5s-70.667 45.5 -95 75.5s-42.166 64.333 -53.499 103c-82 -90 -172.667 -154.833 -272 -194.5
s-210.666 -59.5 -333.999 -59.5c-74 0 -143.667 12.667 -209 38s-122.666 62.5 -171.999 111.5s-88.333 109.333 -117 181s-43 154.167 -43 247.5c0 46 5.5 89.667 16.5 131s31.5 80 61.5 116s71.5 69.333 124.5 100s121.167 58.167 204.5 82.5s184 45.833 302 64.5
s257.333 34 418 46c2 50 3.16699 97.333 3.5 142s0.5 91.667 0.5 141c0 44 -4 81.167 -12 111.5s-20.5 54.833 -37.5 73.5s-38.667 32.167 -65 40.5s-57.833 12.5 -94.5 12.5c-52 0 -105.833 -5.16699 -161.5 -15.5s-111.167 -25.333 -166.5 -45
s-109.666 -43.334 -162.999 -71.001s-104 -59.167 -152 -94.5l-197 303c68.667 50 138.667 94.167 210 132.5s145.833 70.5 223.5 96.5s159.834 45.667 246.501 59s179.667 20 279 20c114.667 0 209.667 -14.5 285 -43.5s135.166 -71 179.499 -126s75.5 -122.333 93.5 -202
s27 -170.167 27 -271.5v-803c0 -36 2.33301 -65 7 -87s16.167 -39.667 34.5 -53s46.166 -24.166 83.499 -32.499s88.666 -16.5 153.999 -24.5l-82 -364c-37.333 -2 -72.833 -3.16699 -106.5 -3.5s-65.167 -0.5 -94.5 -0.5z" />
    <glyph glyph-name="b" unicode="b" horiz-adv-x="2224" 
d="M766 1741c86 77.333 177.166 137.667 273.499 181s201.833 65 316.5 65c108.667 0 206.667 -18.167 294 -54.5s161.666 -92.666 222.999 -168.999s108.5 -173.5 141.5 -291.5s49.5 -259 49.5 -423c0 -172 -22.5 -325 -67.5 -459s-110.333 -246.833 -196 -338.5
s-190.667 -161.334 -315 -209.001s-265.833 -71.5 -424.5 -71.5c-64.667 0 -131.667 3.16699 -201 9.5s-138.166 16.166 -206.499 29.499s-135.166 30.333 -200.499 51s-126.333 45.334 -183 74.001v2806l496 33v-1233zM1556 995.001c0 92 -8.16504 174.334 -24.498 247.001
s-40.666 134.167 -72.999 184.5s-72.833 88.666 -121.5 114.999s-105.334 39.5 -170.001 39.5c-70 0 -138.167 -16.833 -204.5 -50.5s-130.5 -78.167 -192.5 -133.5v-1020c47.333 -18.667 96.666 -33 147.999 -43s105.666 -15 162.999 -15c156 0 274.167 56 354.5 168
s120.5 281.333 120.5 508z" />
    <glyph glyph-name="c" unicode="c" horiz-adv-x="1753" 
d="M1528 1536c-66 20.667 -131.003 35.333 -195.003 44s-122 13 -174 13c-86.667 0 -161.5 -13 -224.5 -39s-115 -66 -156 -120s-71.167 -122.333 -90.5 -205s-29 -181 -29 -295c0 -94 8.5 -176.333 25.5 -247s43.667 -129.5 80 -176.5s82.666 -82.333 138.999 -106
s123.833 -35.5 202.5 -35.5c80.667 0 159.334 9.66699 236.001 29s152.334 46.333 227.001 81l127 -348c-95.333 -51.333 -200 -90.833 -314 -118.5s-240 -41.5 -378 -41.5c-137.333 0 -258.5 17 -363.5 51s-193.167 88 -264.5 162s-125.166 169.667 -161.499 287
s-54.5 259.333 -54.5 426c0 182 23.833 341 71.5 477s113.834 249 198.501 339s185.334 157.333 302.001 202s244 67 382 67c97.333 0 188.666 -6 273.999 -18s166 -34.667 242 -68z" />
    <glyph glyph-name="d" unicode="d" horiz-adv-x="2216" 
d="M1495 -20c-4.66699 13.333 -9.33203 29.332 -13.999 47.999s-8.66699 38.667 -12 60s-6 43.5 -8 66.5s-3 45.167 -3 66.5c-36.667 -36 -75.834 -69.167 -117.501 -99.5s-86 -56.666 -133 -78.999s-96.667 -39.833 -149 -52.5s-107.5 -19 -165.5 -19
c-135.333 0 -249.666 21.667 -342.999 65s-168.833 105.5 -226.5 186.5s-99.334 179.833 -125.001 296.5s-38.5 248 -38.5 394c0 171.333 22 322.833 66 454.5s106.167 242.5 186.5 332.5s176.833 158.167 289.5 204.5s237.667 69.5 375 69.5
c72.667 0 138.667 -4.5 198 -13.5s115 -24.833 167 -47.5v1028l500 33v-2958zM1442 1552c-94.667 41.333 -200 62 -316 62c-68.667 0 -131.167 -12.167 -187.5 -36.5s-104.5 -63 -144.5 -116s-71 -121.833 -93 -206.5s-33 -187.667 -33 -309
c0 -113.333 8.83301 -208 26.5 -284s43.167 -137 76.5 -183s74.333 -78.667 123 -98s104.334 -29 167.001 -29c38 0 75.167 4.5 111.5 13.5s70.833 20.5 103.5 34.5s63.167 29.833 91.5 47.5s53.166 35.167 74.499 52.5v1052z" />
    <glyph glyph-name="e" unicode="e" horiz-adv-x="2036" 
d="M1876 201c-56 -36 -116.501 -68.1709 -181.501 -96.5039s-132.667 -52.5 -203 -72.5s-142.666 -35.167 -216.999 -45.5s-149.5 -15.5 -225.5 -15.5c-140.667 0 -266 17 -376 51s-203 87.833 -279 161.5s-134 168.334 -174 284.001s-60 254.834 -60 417.501
c0 166.667 21.5 317.334 64.5 452.001s105.833 249.5 188.5 344.5s184.167 168.167 304.5 219.5s257.833 77 412.5 77c131.333 0 242.166 -20.667 332.499 -62s163.333 -100.5 219 -177.5s95.834 -170.333 120.501 -280s37 -232.5 37 -368.5
c0 -27.333 -0.5 -58.166 -1.5 -92.499s-4.5 -77.5 -10.5 -129.5h-1176c0 -86.667 9 -162.667 27 -228s46 -119.5 84 -162.5s86.333 -75.333 145 -97s129 -32.5 211 -32.5c51.333 0 104.5 4.83301 159.5 14.5s110 22.834 165 39.501s109.167 36.167 162.5 58.5
s104 46.166 152 71.499l119 -331v0zM1393 1167c0 154 -27 267 -81 339s-132.333 108 -235 108c-56 0 -107.333 -9.33301 -154 -28s-87.5 -46.5 -122.5 -83.5s-63.833 -83.5 -86.5 -139.5s-38 -121.333 -46 -196h725z" />
    <glyph glyph-name="f" unicode="f" horiz-adv-x="1294" 
d="M1266 2556c-21.333 5.33301 -44.833 10.333 -70.5 15s-51.5 9 -77.5 13s-51 7.16699 -75 9.5s-45.333 3.5 -64 3.5c-34.667 0 -63.334 -3.16699 -86.001 -9.5s-40.667 -17.166 -54 -32.5c-13.333 -15.333 -22.666 -35.833 -27.999 -61.5s-8 -58.167 -8 -97.5v-463h409
l-28 -360h-381v-1573h-496v1573l-250 16l29 336l221 8v402c0 109.333 11.167 204.166 33.5 284.5c22.333 80.333 57.333 146.833 105 199.5s108.667 91.667 183 117s163.833 38 268.5 38c42 0 83.5 -1.83301 124.5 -5.5s80.5 -8.83398 118.5 -15.5
c38 -6.66699 73.833 -14.167 107.5 -22.5s64.167 -17.166 91.5 -26.5z" />
    <glyph glyph-name="g" unicode="g" horiz-adv-x="2167" 
d="M2130 1798c-49.333 6 -94.002 10.999 -134.002 14.999s-74.667 6 -104 6c-21.333 0 -39.5 -2.5 -54.5 -7.5s-28.5 -13.667 -40.5 -26s-23.333 -28.833 -34 -49.5s-22 -46.334 -34 -77.001c18 -21.333 34.5 -46.833 49.5 -76.5s27.833 -61.167 38.5 -94.5
s19 -67.333 25 -102s9 -68 9 -100c0 -112.667 -21 -212 -63 -298s-100.5 -158.167 -175.5 -216.5s-164.667 -102.5 -269 -132.5s-219.166 -45 -344.499 -45h-102c-7.33301 -11.333 -13.833 -24.166 -19.5 -38.499s-10.334 -29 -14.001 -44s-6.5 -30 -8.5 -45
s-3 -28.5 -3 -40.5c0 -21.333 1.83301 -39 5.5 -53s9.33398 -25 17.001 -33s17.5 -13.5 29.5 -16.5s26 -4.5 42 -4.5h414c118 0 218 -8.83301 300 -26.5s148.667 -45.334 200 -83.001s88.666 -86.334 111.999 -146.001s35 -131.5 35 -215.5
c0 -64 -11.667 -127.167 -35 -189.5s-57.166 -121.5 -101.499 -177.5s-98.833 -107.833 -163.5 -155.5s-138.5 -88.834 -221.5 -123.501s-174.833 -61.834 -275.5 -81.501s-209 -29.5 -325 -29.5c-266.667 0 -469.834 37.5 -609.501 112.5s-209.5 190.167 -209.5 345.5
c0 54.667 8.5 105.167 25.5 151.5s42.5 90.833 76.5 133.5s76.5 84.834 127.5 126.501s110.833 84.834 179.5 129.501c-16.667 18.667 -29 41.334 -37 68.001s-12 54.667 -12 84c0 27.333 2.66699 55 8 83s14.333 57.833 27 89.5s29.834 65.834 51.501 102.501
s48.834 77.334 81.501 122.001c-62.667 16.667 -120 40.834 -172 72.501s-96.833 71.5 -134.5 119.5s-67 104.167 -88 168.5s-31.5 136.833 -31.5 217.5c0 120 21.833 226.667 65.5 320s104.334 172 182.001 236s169.667 112.833 276 146.5s222.5 50.5 348.5 50.5
c49.333 0 95.5 -2.83301 138.5 -8.5s83.167 -13.334 120.5 -23.001s72 -21 104 -34s61.333 -26.5 88 -40.5c22.667 78 45.167 142.5 67.5 193.5s47.666 91.5 75.999 121.5s60.833 51.167 97.5 63.5s80.667 18.5 132 18.5c22.667 0 47 -1 73 -3s52.167 -5 78.5 -9
s52.5 -9.16699 78.5 -15.5s50.333 -13.5 73 -21.5zM1368 1278c0 51.333 -7.00195 97.8301 -21.002 139.497s-35.167 77.334 -63.5 107.001s-64.166 52.667 -107.499 69s-94 24.5 -152 24.5c-126.667 0 -220.5 -31.833 -281.5 -95.5s-91.5 -156.167 -91.5 -277.5
c0 -59.333 7.83301 -110.166 23.5 -152.499s38.5 -77.166 68.5 -104.499s66.833 -47.333 110.5 -60s93.834 -19 150.501 -19c53.333 0 102.333 7.16699 147 21.5s83 36.5 115 66.5s57 68.167 75 114.5s27 101.833 27 166.5zM1565 -225.004
c0 28.667 -4.6709 53.5 -14.0039 74.5s-25.166 38.5 -47.499 52.5s-52.166 24.333 -89.499 31s-84 10 -140 10h-602c-55.333 -45.333 -94.5 -89.5 -117.5 -132.5s-34.5 -84.833 -34.5 -125.5c0 -39.333 8.5 -73.333 25.5 -102s43.167 -52.5 78.5 -71.5
s80.666 -33.167 135.999 -42.5s121.333 -14 198 -14c100.667 0 188.834 10.167 264.501 30.5s138.834 46 189.501 77s88.834 65.333 114.501 103s38.5 74.167 38.5 109.5z" />
    <glyph glyph-name="h" unicode="h" horiz-adv-x="2195" 
d="M1434 0l0.00292969 1343c0 34 -3 64.667 -9 92s-16.167 50.666 -30.5 69.999s-34 34.166 -59 44.499s-56.5 15.5 -94.5 15.5c-32 0 -66.833 -5.5 -104.5 -16.5s-76.834 -27.167 -117.501 -48.5s-82 -47.5 -124 -78.5s-83.667 -66.5 -125 -106.5v-1315h-500v2941l496 29
v-1291c119.333 104.667 234.5 181.334 345.5 230.001s219.833 73 326.5 73c91.333 0 168.666 -11 231.999 -33s114.666 -55.5 153.999 -100.5s68 -101.667 86 -170s27 -148.5 27 -240.5v-1438h-503z" />
    <glyph glyph-name="i" unicode="i" horiz-adv-x="1028" 
d="M270 0v1929l492 29v-1958h-492zM258 2314v443h504v-443h-504z" />
    <glyph glyph-name="j" unicode="j" horiz-adv-x="1044" 
d="M270 2314v443h504v-443h-504zM770 -57c0 -149.333 -16.667 -274.501 -50 -375.501s-84 -183.167 -152 -246.5s-153.833 -111.166 -257.5 -143.499s-226.167 -54.5 -367.5 -66.5l-70 377c82.667 11.333 150 25 202 41s92.333 36.667 121 62s48.167 56.5 58.5 93.5
s15.5 82.167 15.5 135.5v2109l500 29v-2015v0z" />
    <glyph glyph-name="k" unicode="k" horiz-adv-x="2060" 
d="M1405 1933h545l-725 -864l798 -1069h-647l-606 864v-864h-500v2941l500 29v-1819z" />
    <glyph glyph-name="l" unicode="l" horiz-adv-x="1122" 
d="M266 2941l491.997 29.001v-2433c0 -34 1 -61.833 3 -83.5s7 -38.834 15 -51.501s19.833 -21.334 35.5 -26.001s37.5 -7 65.5 -7c16 0 36.167 0.333008 60.5 1s57.166 3 98.499 7l13 -348c-22.667 -7.33301 -49.667 -14 -81 -20s-64.833 -11.167 -100.5 -15.5
s-72.667 -7.66602 -111 -9.99902s-76.166 -3.5 -113.499 -3.5c-63.333 0 -118.666 7 -165.999 21s-86.666 36.167 -117.999 66.5s-54.666 69.5 -69.999 117.5s-23 106.333 -23 175v2581z" />
    <glyph glyph-name="m" unicode="m" horiz-adv-x="3289" 
d="M2544 1343c0 35.333 -3.3291 66.8301 -9.99609 94.4971s-17.834 51.334 -33.5 71.001c-15.667 19.667 -36.334 34.667 -62.001 45s-57.5 15.5 -95.5 15.5c-62 0 -131.333 -20.5 -208 -61.5s-156.334 -99.833 -239.001 -176.5v-1331h-483v1348c0 34.667 -3 65.667 -9 93
s-16.167 50.5 -30.5 69.5s-33.833 33.5 -58.5 43.5s-56 15 -94 15c-30.667 0 -64.334 -5.66699 -101.001 -17s-75 -28 -115 -50s-80.833 -48.667 -122.5 -80s-83.167 -67 -124.5 -107v-1315h-488v1937l426 33c6 -15.333 11.667 -34.166 17 -56.499s10 -46.833 14 -73.5
s7.5 -54.667 10.5 -84s5.5 -59 7.5 -89c119.333 106.667 234.666 186.667 345.999 240s221.333 80 330 80c72 0 134.333 -7.16699 187 -21.5s97.5 -35.166 134.5 -62.499s66.667 -60.5 89 -99.5s38.5 -83.167 48.5 -132.5c50 47.333 101.833 90.333 155.5 129
s108 71.834 163 99.501s110.333 49.167 166 64.5s111.167 23 166.5 23c95.333 0 175 -11.167 239 -33.5s115.333 -55.833 154 -100.5s66.167 -99.834 82.5 -165.501s24.5 -142.167 24.5 -229.5v-1458h-487v1343z" />
    <glyph glyph-name="n" unicode="n" horiz-adv-x="2195" 
d="M1434 0l0.00195312 1343c0 34 -3 64.667 -9 92s-16.167 50.666 -30.5 69.999s-34 34.166 -59 44.499s-56.5 15.5 -94.5 15.5c-32 0 -66.5 -5.5 -103.5 -16.5s-75.833 -27.167 -116.5 -48.5s-82.167 -47.5 -124.5 -78.5s-84.5 -66.5 -126.5 -106.5v-1315h-500v1937l435 29
c6 -14 11.5 -32 16.5 -54s9.5 -46.167 13.5 -72.5s7.66699 -54.166 11 -83.499s6 -59 8 -89c115.333 105.333 231.333 184.166 348 236.499s228.667 78.5 336 78.5c91.333 0 168.666 -11 231.999 -33s114.666 -55.5 153.999 -100.5s68 -101.667 86 -170s27 -148.5 27 -240.5
v-1438h-503z" />
    <glyph glyph-name="o" unicode="o" 
d="M2040 1016c0 -152.667 -21 -293.166 -63 -421.499s-104.333 -239 -187 -332s-184.834 -165.5 -306.501 -217.5s-262.5 -78 -422.5 -78c-302.667 0 -528.5 80 -677.5 240s-223.5 403.667 -223.5 731c0 156 22.5 298 67.5 426s109.833 237.833 194.5 329.5
s187.334 162.667 308.001 213s257 75.5 409 75.5c151.333 0 283.5 -19 396.5 -57s206.833 -96.5 281.5 -175.5s130.5 -179.333 167.5 -301s55.5 -265.834 55.5 -432.501zM1524 991.001c0 104.667 -7.66895 196.331 -23.002 274.998s-39.666 144.334 -72.999 197.001
s-76.166 92.334 -128.499 119.001s-115.5 40 -189.5 40c-67.333 0 -127.833 -13.667 -181.5 -41s-99.167 -68 -136.5 -122s-66 -121.167 -86 -201.5s-30 -173.166 -30 -278.499c0 -122.667 9 -225.834 27 -309.501s44.667 -151.167 80 -202.5s79 -88 131 -110
s112 -33 180 -33c74 0 138 14.333 192 43s98.667 71.167 134 127.5s61.5 126 78.5 209s25.5 178.833 25.5 287.5z" />
    <glyph glyph-name="p" unicode="p" horiz-adv-x="2224" 
d="M2064 1032c0 -94.667 -7.66504 -186.333 -22.998 -275s-39.5 -171.667 -72.5 -249s-75.167 -147.833 -126.5 -211.5s-112.833 -118.334 -184.5 -164.001s-153.834 -81.167 -246.501 -106.5s-197 -38 -313 -38c-26.667 0 -55.167 0.833008 -85.5 2.5s-60 4.16699 -89 7.5
s-56.5 8 -82.5 14s-48.333 13 -67 21v-840l-504 -29v2773l435 33c12 -30.667 22 -67.167 30 -109.5s14.333 -86.166 19 -131.499c84.667 82 177.167 145.5 277.5 190.5s208.5 67.5 324.5 67.5c107.333 0 204.666 -18.167 291.999 -54.5s161.833 -93.333 223.5 -171
s109.167 -176.667 142.5 -297s50 -264.5 50 -432.5zM1556 995.001c0 92 -8.16699 174.335 -24.5 247.002s-40.666 134.167 -72.999 184.5s-72.833 88.666 -121.5 114.999s-105.334 39.5 -170.001 39.5c-38 0 -74.667 -4.83301 -110 -14.5s-69.5 -22.667 -102.5 -39
s-64.667 -35.333 -95 -57s-58.833 -44.834 -85.5 -69.501v-1008c20.667 -9.33301 43.5 -18 68.5 -26s51.167 -14.833 78.5 -20.5s55.333 -10.167 84 -13.5s57 -5 85 -5c151.333 0 266.833 54.5 346.5 163.5s119.5 276.833 119.5 503.5z" />
    <glyph glyph-name="q" unicode="q" horiz-adv-x="2216" 
d="M1442 -836l-0.00292969 1033c-32 -30 -68.167 -58.5 -108.5 -85.5s-84.166 -51 -131.499 -72s-97.666 -37.667 -150.999 -50s-108.666 -18.5 -165.999 -18.5c-94.667 0 -178.5 10.833 -251.5 32.5s-136.333 52.5 -190 92.5s-98.667 88.333 -135 145
s-65.5 119.834 -87.5 189.501s-37.667 145.167 -47 226.5s-14 166.666 -14 255.999c0 172 21.833 324.167 65.5 456.5s106 243.166 187 332.499s178.833 157 293.5 203s242.667 69 384 69c78 0 151 -4.66699 219 -14s130 -22.333 186 -39l451 45v-2773zM1446 1565
c-45.333 14 -94.834 25.667 -148.501 35s-109.5 14 -167.5 14c-68.667 0 -131.167 -12.167 -187.5 -36.5s-104.5 -63 -144.5 -116s-71 -121.833 -93 -206.5s-33 -187.667 -33 -309c0 -113.333 8.83301 -208 26.5 -284s43.167 -137 76.5 -183s74.333 -78.667 123 -98
s104.334 -29 167.001 -29c32 0 64.5 3.5 97.5 10.5s66 17 99 30s65 28.5 96 46.5s60.5 38.333 88.5 61v1065z" />
    <glyph glyph-name="r" unicode="r" horiz-adv-x="1425" 
d="M1364 1520l-82.501 5.49902c-24.333 1.66699 -48.833 2.5 -73.5 2.5c-28.667 0 -54.334 -1.5 -77.001 -4.5s-44.334 -9.16699 -65.001 -18.5s-41 -22.5 -61 -39.5s-41.5 -40 -64.5 -69s-48.667 -64.5 -77 -106.5l-97.5 -151v-1139h-496v1937l394 33
c7.33301 -15.333 14 -38.166 20 -68.499s11.333 -65 16 -104s8.83398 -81 12.501 -126s6.5 -90.167 8.5 -135.5c45.333 92 86.333 166.5 123 223.5s72.834 101 108.501 132s72 51.833 109 62.5s77.833 16 122.5 16c43.333 0 85.333 -2.66699 126 -8s76.334 -12 107.001 -20z
" />
    <glyph glyph-name="s" unicode="s" horiz-adv-x="1794" 
d="M1647 578c0 -86 -16.1621 -166.331 -48.4951 -240.998s-81.5 -139.334 -147.5 -194.001s-149.333 -97.667 -250 -129s-219.667 -47 -357 -47c-132 0 -257.833 13 -377.5 39s-234.167 65 -343.5 117l94 369c53.333 -24.667 109 -46.834 167 -66.501s116 -36.5 174 -50.5
s114.5 -24.667 169.5 -32s106.167 -11 153.5 -11c53.333 0 98.833 4.83301 136.5 14.5s68.5 22.834 92.5 39.501s41.667 36.167 53 58.5s17 46.166 17 71.499s-3.33301 48.833 -10 70.5s-20.667 42.167 -42 61.5s-51.833 38.333 -91.5 57s-92.834 37.667 -159.501 57
c-94 27.333 -176 54.833 -246 82.5s-129.833 56.334 -179.5 86.001s-90.5 60.5 -122.5 92.5s-57.167 66 -75.5 102s-31 74.5 -38 115.5s-10.5 84.833 -10.5 131.5c0 92 18.167 175.833 54.5 251.5s87.333 140.5 153 194.5s144.5 95.667 236.5 125s193.667 44 305 44
c60.667 0 119.5 -2.66699 176.5 -8s113 -13.833 168 -25.5s109.333 -26.5 163 -44.5s107.167 -40 160.5 -66l-123 -360c-34.667 17.333 -74.834 33.333 -120.501 48s-92.834 27.167 -141.501 37.5s-96.834 18.5 -144.501 24.5s-90.834 9 -129.501 9
c-51.333 0 -94.5 -4.83301 -129.5 -14.5s-63.333 -22.834 -85 -39.501s-37.167 -36.167 -46.5 -58.5s-14 -46.5 -14 -72.5c0 -30.667 4 -57.334 12 -80.001s24.833 -43.834 50.5 -63.501s62.5 -39.167 110.5 -58.5s112 -40.666 192 -63.999
c120 -36.667 218.333 -74.5 295 -113.5s137.167 -81.333 181.5 -127s75 -95.667 92 -150s25.5 -115.166 25.5 -182.499z" />
    <glyph glyph-name="t" unicode="t" horiz-adv-x="1491" 
d="M1425 94c-72 -39.333 -158.333 -70.333 -259 -93s-215 -34 -343 -34c-86 0 -161.167 9.33301 -225.5 28s-118 48 -161 88s-75.333 91.333 -97 154s-32.5 138 -32.5 226v1114l-246 12l29 336l229 8l58 602l434 37v-639h573l-28 -360h-545v-1086
c0 -52.667 10.667 -89.667 32 -111s58.333 -32 111 -32c26.667 0 56.167 1.83301 88.5 5.5s65.5 9 99.5 16s68 15.5 102 25.5s65.667 21.667 95 35l86 -332v0z" />
    <glyph glyph-name="u" unicode="u" horiz-adv-x="2187" 
d="M1479 -16c-6 14 -11.835 32.499 -17.502 55.499s-10.667 47.5 -15 73.5s-7.83301 52.333 -10.5 79s-4.66699 51.334 -6 74.001c-56.667 -51.333 -113.5 -95.833 -170.5 -133.5s-113.833 -68.667 -170.5 -93s-112.667 -42.5 -168 -54.5s-109.666 -18 -162.999 -18
c-93.333 0 -171.833 12 -235.5 36s-115.167 59.167 -154.5 105.5s-67.5 104 -84.5 173s-25.5 148.5 -25.5 238.5v1409l504 21v-1348c0 -34.667 3.5 -65.667 10.5 -93s18.5 -50.5 34.5 -69.5s36.833 -33.5 62.5 -43.5s56.834 -15 93.501 -15c61.333 0 130 18.167 206 54.5
s157.333 94.5 244 174.5v1315l504 25v-1942z" />
    <glyph glyph-name="v" unicode="v" horiz-adv-x="1937" 
d="M946 721c14.667 -41.333 24.5 -78.5 29.5 -111.5s7.5 -62.833 7.5 -89.5c0 26.667 3 57.5 9 92.5s15.333 71.167 28 108.5l450 1212h459l-762 -1933h-446l-713 1933h520z" />
    <glyph glyph-name="w" unicode="w" horiz-adv-x="2929" 
d="M1008 0l-406 0.000976562l-561 1933h487l308 -1188c10 -40.667 18.5 -77.5 25.5 -110.5s10.5 -62.833 10.5 -89.5c0 26.667 3.66699 57.5 11 92.5s16 70.833 26 107.5l357 1176l422 25l340 -1201c24 -80.667 36 -147.334 36 -200.001c0 26.667 3.66699 57.5 11 92.5
s16 70.833 26 107.5l344 1188h430l-610 -1933h-438l-357 1204c-12 37.333 -20.333 74.166 -25 110.499s-7 67.833 -7 94.5c0 -26.667 -3.83301 -57.667 -11.5 -93s-17.5 -72.666 -29.5 -111.999z" />
    <glyph glyph-name="x" unicode="x" horiz-adv-x="1958" 
d="M1274 987l631 -987h-570l-409 659l-389 -659h-492l631 987l-606 946h569l381 -639l393 639h483z" />
    <glyph glyph-name="y" unicode="y" horiz-adv-x="1937" 
d="M946 725c14.667 -41.333 24.5 -79.166 29.5 -113.499s7.5 -64.833 7.5 -91.5c0 26.667 2.5 57.667 7.5 93s14.833 72.666 29.5 111.999l442 1208h455l-934 -2351c-30.667 -78 -67.167 -144.667 -109.5 -200s-94.5 -101.5 -156.5 -138.5s-135.667 -65.5 -221 -85.5
s-186.333 -33 -303 -39l-78 361c82 9.33301 150.333 20.5 205 33.5s100 29 136 48s64.833 41.833 86.5 68.5s40.167 58.667 55.5 96l119 290l-692 1917h503z" />
    <glyph glyph-name="z" unicode="z" horiz-adv-x="1839" 
d="M1667 1638l-885 -1278h906l-37 -360h-1458l-33 315l905 1262h-860l41 356h1392z" />
    <glyph glyph-name="braceleft" unicode="{" horiz-adv-x="1536" 
d="M1446 2716c-74.667 -19.333 -139.669 -37.666 -195.002 -55c-55.333 -17.333 -102.666 -35.5 -141.999 -54.5s-71.666 -39.333 -96.999 -61s-45.333 -46.5 -60 -74.5s-24.834 -59.667 -30.501 -95s-8.5 -76.333 -8.5 -123c0 -53.333 3.5 -111.333 10.5 -174
s14.5 -126.5 22.5 -191.5s15.5 -129.333 22.5 -193s10.5 -123.167 10.5 -178.5c0 -51.333 -6.83301 -101 -20.5 -149s-35 -92.5 -64 -133.5s-66 -77.667 -111 -110s-98.5 -58.833 -160.5 -79.5c62 -25.333 115.333 -56.333 160 -93s81.167 -77.334 109.5 -122.001
s49.166 -92.5 62.499 -143.5s20 -103.5 20 -157.5c0 -62 -3 -124.667 -9 -188s-12.5 -125.333 -19.5 -186l-19.5 -176c-6 -56.667 -9 -109.334 -9 -158.001c0 -46 2.66699 -86.833 8 -122.5s15.166 -67.667 29.499 -96s34 -53.666 59 -75.999s57 -43 96 -62
s86 -37.167 141 -54.5s119.833 -34.666 194.5 -51.999l-107 -344c-110.667 12.667 -208.834 29.834 -294.501 51.501s-160.667 48.667 -225 81s-118.666 70.5 -162.999 114.5s-80.166 94.5 -107.499 151.5s-47.166 120.667 -59.499 191s-18.5 148.166 -18.5 233.499
c0 57.333 3.16699 114.333 9.5 171s13.333 112 21 166s14.667 106.333 21 157s9.5 99 9.5 145c0 51.333 -7 95.833 -21 133.5s-38.5 69.834 -73.5 96.501s-82.167 48.834 -141.5 66.501s-134.666 32.167 -225.999 43.5l28 340c88 9.33301 160.5 22.833 217.5 40.5
s101.833 40 134.5 67s55.334 59.167 68.001 96.5s19 80 19 128c0 54 -3.66699 112.167 -11 174.5s-15.333 126.666 -24 192.999s-16.667 134.166 -24 203.499s-11 138.333 -11 207c0 122 17 228.5 51 319.5s86.667 168.333 158 232s162.166 114.667 272.499 153
s241.833 65.833 394.5 82.5z" />
    <glyph glyph-name="bar" unicode="|" horiz-adv-x="1442" 
d="M532 -831v4014h377v-4014h-377z" />
    <glyph glyph-name="braceright" unicode="}" horiz-adv-x="1536" 
d="M1438 905c-88 -9.33301 -160.498 -22.668 -217.498 -40.001s-101.833 -39.333 -134.5 -66s-55.334 -58.667 -68.001 -96s-19 -80.666 -19 -129.999c0 -54 3.66699 -112 11 -174s15.333 -126.167 24 -192.5s16.667 -133.833 24 -202.5s11 -137 11 -205
c0 -128 -17 -237.667 -51 -329s-86.667 -168.166 -158 -230.499s-162.166 -111.833 -272.499 -148.5s-241.833 -64 -394.5 -82l-99 336c74 19.333 138.333 37.5 193 54.5s101.667 35 141 54s71.5 39.333 96.5 61s44.833 46.5 59.5 74.5s24.834 59.667 30.501 95
s8.5 76.333 8.5 123c0 54.667 -3.16699 113.667 -9.5 177s-13.5 127.5 -21.5 192.5s-15.167 129.167 -21.5 192.5s-9.5 122 -9.5 176c0 51.333 6.66699 101 20 149s34.166 92.833 62.499 134.5s64.833 78.834 109.5 111.501s98 59.334 160 80.001
c-63.333 24.667 -117.166 55 -161.499 91s-80.333 76.333 -108 121s-47.667 92.667 -60 144s-18.5 104.666 -18.5 159.999c0 62.667 2.83301 125.334 8.5 188.001s11.667 124.334 18 185.001l18 176c5.66699 56.667 8.5 110 8.5 160c0 45.333 -2.66699 85.666 -8 121
c-5.33301 35.333 -15.166 67.333 -29.499 96s-33.833 54.167 -58.5 76.5s-56.334 43 -95.001 62s-85.334 36.833 -140.001 53.5s-119 33 -193 49l103 349c155.333 -20.667 288.166 -48.834 398.499 -84.5c110.333 -35.667 200.5 -82.834 270.5 -141.5
c70 -58.667 121.333 -130.667 154 -216s49 -188 49 -308c0 -59.333 -3.33301 -120.333 -10 -183s-14.167 -124.834 -22.5 -186.501s-15.833 -122 -22.5 -181s-10 -114.5 -10 -166.5c0 -46.667 6.66699 -88.334 20 -125.001s37.166 -68.834 71.499 -96.501
s81.5 -50.834 141.5 -69.501s136.333 -33.667 229 -45z" />
    <glyph glyph-name="asciitilde" unicode="~" horiz-adv-x="1827" 
d="M1675 2941c-14 -102.667 -34.833 -189.834 -62.5 -261.5c-27.667 -71.667 -61.167 -130 -100.5 -175s-83.833 -77.667 -133.5 -98s-103.5 -30.5 -161.5 -30.5c-47.333 0 -97.666 3.83301 -150.999 11.5s-106.333 16 -159 25l-152.5 25
c-49 7.66699 -92.833 11.5 -131.5 11.5c-22.667 0 -42.167 -3.33301 -58.5 -10s-30.833 -18.667 -43.5 -36s-24.5 -41 -35.5 -71s-22.5 -68.667 -34.5 -116l-316 57c13.333 98 33.166 182.5 59.499 253.5s59 129.167 98 174.5s84 78.833 135 100.5s107.833 32.5 170.5 32.5
c49.333 0 99.333 -3.66699 150 -11s100.5 -15.166 149.5 -23.5l141 -23.5c45 -7.33301 86.5 -11 124.5 -11c24.667 0 45.834 3.16699 63.501 9.5s33.5 18.166 47.5 35.5c14 17.333 27.167 41.5 39.5 72.5s25.166 70.833 38.499 119.5z" />
    <glyph glyph-name="uni00A0" unicode="&#xa0;" horiz-adv-x="815" 
 />
    <glyph glyph-name="exclamdown" unicode="&#xa1;" horiz-adv-x="1262" 
d="M893 1933v-491h-565v491h565zM389 1020h451l49 -2011h-549z" />
    <glyph glyph-name="cent" unicode="&#xa2;" horiz-adv-x="1790" 
d="M1737 147c-72.667 -43.333 -149.833 -78.8359 -231.5 -106.503s-171.167 -46.5 -268.5 -56.5l8 -512h-385l4 508c-114.667 10 -215.834 35.333 -303.501 76s-161.167 98.334 -220.5 173.001s-104.166 167.334 -134.499 278.001s-45.5 240.667 -45.5 390
c0 152.667 17 289.167 51 409.5s82 224.5 144 312.5s136.167 160 222.5 216s181.833 95.667 286.5 119l-4 577h385l-8 -557c86.667 -2 165.5 -11.5 236.5 -28.5s135.5 -38.833 193.5 -65.5l-106 -356c-32 11.333 -65 21.333 -99 30s-68.333 15.834 -103 21.501
s-68.5 10 -101.5 13s-64.5 4.5 -94.5 4.5c-86.667 0 -161.834 -13 -225.501 -39s-116 -66 -157 -120s-71.5 -122.333 -91.5 -205s-30 -181 -30 -295c0 -93.333 8.5 -175.5 25.5 -246.5s43.833 -130.333 80.5 -178s83.334 -83.667 140.001 -108s125 -36.5 205 -36.5
c86 0 169.167 10.5 249.5 31.5s162.5 52.833 246.5 95.5l131 -345v0z" />
    <glyph glyph-name="sterling" unicode="&#xa3;" horiz-adv-x="2249" 
d="M2138 446c-28.667 -84.667 -59.332 -157.5 -91.998 -218.5c-32.667 -61 -72.334 -111.167 -119.001 -150.5s-102.667 -68.166 -168 -86.499s-145 -27.5 -239 -27.5c-46 0 -101.167 1.16699 -165.5 3.5s-134.5 5.16602 -210.5 8.49902l-240.5 10.5
c-84.333 3.66699 -169.333 7.16699 -255 10.5s-170.334 6.16602 -254.001 8.49902s-163.167 3.5 -238.5 3.5l-29 328l344 20c16.667 37.333 29 77.5 37 120.5s12 94.5 12 154.5c0 37.333 -1.16699 85.833 -3.5 145.5s-6.5 136.834 -12.5 231.501h-307l24 307h258l-11.5 155
c-3 40.667 -5 74.834 -6 102.501s-1.66699 51.334 -2 71.001s-0.5 39.834 -0.5 60.501c0 112.667 16.5 212.5 49.5 299.5s82 160.167 147 219.5s145.833 104.333 242.5 135s208.334 46 335.001 46c118.667 0 229.167 -12.333 331.5 -37s200.833 -62.667 295.5 -114
l-136 -340c-82 32.667 -162.333 57.167 -241 73.5s-151 24.5 -217 24.5c-104.667 0 -180.667 -25.5 -228 -76.5s-71 -131.833 -71 -242.5c0 -18.667 0.333008 -39 1 -61s1.5 -47.667 2.5 -77s2.66699 -63.5 5 -102.5s4.83301 -84.5 7.5 -136.5h602l-29 -307h-548
c4 -48 7.33301 -89.833 10 -125.5s4.66699 -67.834 6 -96.501s2.33301 -54.834 3 -78.501s1 -47.834 1 -72.501c0 -60 -4.66699 -113.5 -14 -160.5s-22.333 -89.167 -39 -126.5c72 -4 136.333 -7.83301 193 -11.5s107.167 -6.66699 151.5 -9l115.5 -6
c32.667 -1.66699 61 -2.5 85 -2.5c38.667 0 72.667 5.16699 102 15.5s56.166 27 80.499 50s47.333 53 69 90s44.167 82.167 67.5 135.5l299 -164v0z" />
    <glyph glyph-name="currency" unicode="&#xa4;" 
d="M1909 1503c-34 14.667 -70.498 27.501 -109.498 38.501s-78.167 20.333 -117.5 28s-77.333 13.5 -114 17.5s-69.334 6 -98.001 6c-146.667 0 -260 -37.833 -340 -113.5s-130.333 -193.5 -151 -353.5h745l-28 -323h-721c7.33301 -72.667 21.5 -136.167 42.5 -190.5
s49.5 -99.5 85.5 -135.5s80 -63 132 -81s112.667 -27 182 -27c88.667 0 177.334 12.167 266.001 36.5s181.667 61.166 279 110.499l127 -344c-61.333 -34 -121.5 -63.5 -180.5 -88.5s-119.333 -45.833 -181 -62.5s-126.167 -29.167 -193.5 -37.5s-140.333 -12.5 -219 -12.5
c-130.667 0 -246.834 15.333 -348.501 46s-188 79.334 -259 146.001s-126.333 152.667 -166 258s-63.167 232.666 -70.5 381.999h-369l29 323h352c19.333 143.333 56.333 268.666 111 375.999s123 196.5 205 267.5s176.167 124.167 282.5 159.5s220.833 53 343.5 53
c63.333 0 122.166 -2.66699 176.499 -8s105.333 -13.166 153 -23.499s92.667 -22.833 135 -37.5s82.833 -31 121.5 -49z" />
    <glyph glyph-name="yen" unicode="&#xa5;" horiz-adv-x="2183" 
d="M1991 1020h-541l-123 -201v-143h668l-17 -283h-651v-393h-496v393h-663l25 283h638v119l-126 225h-525l25 283h332l-365 630h557l397 -696l414 696h483l-397 -630h385z" />
    <glyph glyph-name="brokenbar" unicode="&#xa6;" horiz-adv-x="1442" 
d="M532 1470v1713h377v-1713h-377zM532 -831v1720h377v-1720h-377z" />
    <glyph glyph-name="section" unicode="&#xa7;" horiz-adv-x="2105" 
d="M1622 963c43.333 -72.667 80.8301 -142.334 112.497 -209.001s58 -131.5 79 -194.5s36.667 -124.833 47 -185.5s15.5 -121 15.5 -181c0 -116 -21.5 -222.333 -64.5 -319s-104.5 -180 -184.5 -250s-176.833 -124.5 -290.5 -163.5s-241.167 -58.5 -382.5 -58.5
c-69.333 0 -137.833 4 -205.5 12s-132.5 20 -194.5 36s-120.167 35.667 -174.5 59s-103.166 50.333 -146.499 81l107 283c111.333 -49.333 217.833 -87 319.5 -113s195.834 -39 282.501 -39h20c6 0 12.833 0.166992 20.5 0.5s16.334 0.833008 26.001 1.5
s21.5 1.66699 35.5 3c-6 62 -17.667 126.167 -35 192.5s-38.666 133 -63.999 200s-54.333 133.667 -87 200s-67.334 130.833 -104.001 193.5l-283 479c-42.667 72.667 -80 142.334 -112 209.001s-58.5 131.5 -79.5 194.5s-36.667 124.833 -47 185.5s-15.5 121 -15.5 181
c0 116 21.5 222.333 64.5 319s104.5 180 184.5 250s176.833 124.5 290.5 163.5s241.167 58.5 382.5 58.5c69.333 0 137.833 -4 205.5 -12s132.5 -20 194.5 -36s120.333 -35.833 175 -59.5s103.334 -50.834 146.001 -81.5l-107 -282
c-111.333 49.333 -217.833 86.833 -319.5 112.5s-195.834 38.5 -282.501 38.5h-20c-6 0 -12.833 -0.166992 -20.5 -0.5s-16.334 -0.666016 -26.001 -1c-9.66699 -0.333008 -21.5 -1.16602 -35.5 -2.5c6 -62.667 17.833 -127 35.5 -193s39.334 -132.5 65.001 -199.5
s54.667 -133.667 87 -200s66.5 -130.833 102.5 -193.5zM1077 1266c-44.667 76.667 -86 152.998 -124 228.998s-71.5 151.5 -100.5 226.5s-53 149 -72 222s-32.167 144.833 -39.5 215.5c-34.667 -20.667 -64.334 -44.834 -89.001 -72.5c-24.667 -27.667 -45 -57.667 -61 -90
s-27.667 -66.666 -35 -102.999s-11 -73.5 -11 -111.5c0 -32 1 -63 3 -93s5.83301 -60.333 11.5 -91s13.834 -62.667 24.501 -96s24.5 -69.666 41.5 -108.999s37.667 -82.5 62 -129.5s53.166 -99.5 86.499 -157.5l242 -418c45.333 -76.667 86.833 -153 124.5 -229
s71 -151.5 100 -226.5s53 -149 72 -222s32.167 -144.833 39.5 -215.5c34.667 20.667 64.334 44.667 89.001 72s45 57.333 61 90s27.667 67.167 35 103.5s11 73.5 11 111.5c0 48 -2.5 94 -7.5 138s-15.5 91.333 -31.5 142s-39.167 107.667 -69.5 171
s-70.5 138.333 -120.5 225z" />
    <glyph glyph-name="dieresis" unicode="&#xa8;" horiz-adv-x="1921" 
d="M1188 2335v401h463v-401h-463zM324 2335v401h467v-401h-467z" />
    <glyph glyph-name="copyright" unicode="&#xa9;" horiz-adv-x="2892" 
d="M2617 1016c0 -106 -11.8311 -209 -35.498 -309s-58.667 -194.333 -105 -283s-103.666 -170 -172 -244c-68.333 -74 -147.166 -137.667 -236.499 -191s-189 -94.833 -299 -124.5s-230 -44.5 -360 -44.5c-378.667 0 -663.834 93.167 -855.501 279.5
s-287.5 461.833 -287.5 826.5c0 128 14.667 246.5 44 355.5s70.666 207.833 123.999 296.5s117.333 166.834 192 234.501s157.667 124.5 249 170.5s189.666 80.667 294.999 104s215 35 329 35c184 0 345.833 -26.333 485.5 -79s256.334 -127.334 350 -224.001
c93.667 -96.667 164.167 -213 211.5 -349s71 -287.333 71 -454zM2355 995c0 145.333 -19.501 274.501 -58.501 387.501s-96 208.167 -171 285.5s-167.167 136.166 -276.5 176.499s-234 60.5 -374 60.5c-145.333 0 -276.666 -20.5 -393.999 -61.5
s-217.166 -101 -299.499 -180s-145.833 -176.5 -190.5 -292.5s-67 -249.333 -67 -400c0 -160.667 19 -299.667 57 -417s94.667 -214.333 170 -291s169.666 -133.5 282.999 -170.5s245.333 -55.5 396 -55.5c139.333 0 265.833 21.5 379.5 64.5s211 105.5 292 187.5
s143.5 182.333 187.5 301s66 253.667 66 405zM1888 487.001c-55.333 -38.667 -122.667 -69.502 -202 -92.502s-167.666 -34.5 -264.999 -34.5c-82.667 0 -155.834 10.833 -219.501 32.5s-117.167 55.5 -160.5 101.5s-76.166 104.667 -98.499 176
s-33.5 156.666 -33.5 255.999c0 104 14.333 195.333 43 274s68.167 144.334 118.5 197.001s110.166 92.334 179.499 119.001s144.333 40 225 40c76 0 145.333 -6 208 -18s118.667 -30.333 168 -55l-82 -226c-40.667 18.667 -84.834 31.667 -132.501 39s-92.167 11 -133.5 11
c-46.667 0 -87 -7.16699 -121 -21.5s-62 -36.333 -84 -66s-38.333 -67.5 -49 -113.5s-16 -100.667 -16 -164c0 -113.333 19.833 -197 59.5 -251s101.834 -81 186.501 -81c53.333 0 107.5 7.83301 162.5 23.5s111.167 37.834 168.5 66.501l78 -213v0z" />
    <glyph glyph-name="ordfeminine" unicode="&#xaa;" horiz-adv-x="1503" 
d="M885 1933c-86 -6.66699 -153.668 -15.002 -203.001 -25.002s-86.166 -21.667 -110.499 -35s-39.666 -28.666 -45.999 -45.999s-9.5 -36.666 -9.5 -57.999c0 -45.333 12.167 -80.5 36.5 -105.5s57.166 -37.5 98.499 -37.5c19.333 0 38 1.5 56 4.5s36.333 8.16699 55 15.5
s38 17.333 58 30s41.667 28.667 65 48v209v0zM908.999 1548c-53.333 -55.333 -110.501 -94.999 -171.501 -118.999s-122.5 -36 -184.5 -36c-59.333 0 -110.833 9 -154.5 27s-79.834 43.5 -108.501 76.5s-50 72.667 -64 119s-21 97.5 -21 153.5
c0 28 3.83301 55.167 11.5 81.5s21 51.166 40 74.499s45 45.166 78 65.499s74.667 38.666 125 54.999s110.5 30.333 180.5 42s151.667 20.5 245 26.5v110c0 43.333 -10.167 74 -30.5 92s-51.166 27 -92.499 27c-64 0 -127.333 -9 -190 -27s-129 -48.667 -199 -92l-123 205
c46 30.667 91.5 57.167 136.5 79.5s91 40.666 138 55c47 14.333 96 24.833 147 31.5s105.833 10 164.5 10c71.333 0 131.5 -8.83301 180.5 -26.5s88.667 -43 119 -76s52.166 -73 65.499 -120s20 -99.833 20 -158.5v-467c0 -24.667 1 -44 3 -58s7.33301 -25 16 -33
s21.834 -13.833 39.501 -17.5s41.834 -7.16699 72.501 -10.5l-33 -221c-33.333 -6 -67.333 -10.167 -102 -12.5s-63.667 -3.5 -87 -3.5c-38.667 0 -71 2.66699 -97 8s-47.333 13.833 -64 25.5s-29.5 26.834 -38.5 45.501s-16.167 41.334 -21.5 68.001z" />
    <glyph glyph-name="guillemotleft" unicode="&#xab;" horiz-adv-x="2507" 
d="M1720 963l439 -730l-447 -110l-532 815l610 881l442 -95zM729 963l434 -730l-442 -110l-533 815l611 881l442 -95z" />
    <glyph glyph-name="logicalnot" unicode="&#xac;" horiz-adv-x="2109" 
d="M1458 172v635h-1212l20 336h1577v-959z" />
    <glyph glyph-name="uni00AD" unicode="&#xad;" horiz-adv-x="1524" 
d="M1356 852h-1204l20 336h1200z" />
    <glyph glyph-name="registered" unicode="&#xae;" horiz-adv-x="2499" 
d="M2261 2253c0 -90.667 -10.165 -179.001 -30.498 -265.001s-50.333 -166.833 -90 -242.5s-88.834 -145.167 -147.501 -208.5s-126.334 -117.833 -203.001 -163.5s-162.167 -81.167 -256.5 -106.5s-197.166 -38 -308.499 -38c-166.667 0 -311.667 21.333 -435 64
s-225.666 104.5 -306.999 185.5s-141.833 180.333 -181.5 298s-59.5 251.834 -59.5 402.501c0 109.333 12.5 210.333 37.5 303s60.167 176.5 105.5 251.5s100 141.333 164 199s135.167 105.834 213.5 144.5c78.333 38.667 162.666 68 252.999 88s184.5 30 282.5 30
c152.667 0 288.667 -21.667 408 -65s220.166 -105.5 302.499 -186.5s145 -179.667 188 -296s64.5 -247.833 64.5 -394.5zM2040 2232c0 123.333 -16.499 233.167 -49.499 329.501c-33 96.333 -81.5 177.833 -145.5 244.5s-143.5 117.5 -238.5 152.5s-204.5 52.5 -328.5 52.5
c-124.667 0 -237.834 -17.5 -339.501 -52.5s-188.167 -86.167 -259.5 -153.5s-126.5 -150.666 -165.5 -250c-39 -99.333 -58.5 -213.666 -58.5 -343c0 -532.667 262 -799 786 -799c120 0 229 18.167 327 54.5s182 89.166 252 158.499s124.167 155 162.5 257
s57.5 218.333 57.5 349zM1438 1712l-196.999 377h-127v-377h-196v995h389c51.333 0 95.666 -7.16699 132.999 -21.5s68.333 -33.5 93 -57.5s43 -52.167 55 -84.5s18 -66.5 18 -102.5c0 -57.333 -15 -110.833 -45 -160.5s-73.667 -97.167 -131 -142.5l249 -426h-241z
M1401 2413c0 21.333 -2.99902 41.5 -8.99902 60.5s-15.167 35.5 -27.5 49.5s-27.833 25 -46.5 33s-40.334 12 -65.001 12h-139v-340h201c28.667 29.333 50.167 58.666 64.5 88c14.333 29.333 21.5 61.666 21.5 97z" />
    <glyph glyph-name="macron" unicode="&#xaf;" horiz-adv-x="1638" 
d="M1462 2413h-1310l24 335h1311z" />
    <glyph glyph-name="degree" unicode="&#xb0;" horiz-adv-x="1638" 
d="M1434 2159c0 -84.667 -15.167 -163.334 -45.5 -236.001s-75.5 -139 -135.5 -199c-59.333 -59.333 -124.833 -104.166 -196.5 -134.499s-150.834 -45.5 -237.501 -45.5c-84.667 0 -163.167 15.167 -235.5 45.5s-138.5 75.166 -198.5 134.499
c-62 60 -107.5 126.333 -136.5 199s-43.5 151.334 -43.5 236.001s14.5 163.167 43.5 235.5s74.5 138.5 136.5 198.5c120 120 264.667 180 434 180c170.667 0 315.334 -60 434.001 -180c60 -60 105.167 -126.167 135.5 -198.5s45.5 -150.833 45.5 -235.5zM1266 2159
c0 61.333 -11 118.334 -33 171.001s-54.667 100.667 -98 144c-43.333 45.333 -91.333 78.5 -144 99.5s-110 31.5 -172 31.5s-119.167 -10.5 -171.5 -31.5s-100.166 -54.167 -143.499 -99.5c-45.333 -43.333 -78.5 -91.333 -99.5 -144s-31.5 -109.667 -31.5 -171
c0 -62 10.5 -119.333 31.5 -172s54.167 -100.667 99.5 -144c43.333 -43.333 91.166 -76 143.499 -98s109.5 -33 171.5 -33s119.333 11 172 33s100.667 54.667 144 98c87.333 87.333 131 192.666 131 315.999z" />
    <glyph glyph-name="plusminus" unicode="&#xb1;" horiz-adv-x="2249" 
d="M1225 2540v-959h950v-192h-950v-951h-197v951h-954v192h954v959h197zM2175 197v-197h-2101v197h2101z" />
    <glyph glyph-name="twosuperior" unicode="&#xb2;" horiz-adv-x="1409" 
d="M1249 1008l-1069 0.000976562l-24 241l442 291c42 28 77.5 53.833 106.5 77.5s52.667 47.334 71 71.001s31.5 47.834 39.5 72.501s12 52 12 82c0 45.333 -14.833 80.666 -44.5 105.999s-69.167 38 -118.5 38c-21.333 0 -44.666 -2 -69.999 -6
s-52.833 -11.167 -82.5 -21.5s-61.834 -24.333 -96.501 -42s-72 -39.834 -112 -66.501l-139 242c52 38 102.167 70.333 150.5 97s95.666 48.167 141.999 64.5s92.333 28.333 138 36s91.834 11.5 138.501 11.5c80 0 150 -10.167 210 -30.5s109.833 -48.5 149.5 -84.5
s69.5 -78.833 89.5 -128.5s30 -103.834 30 -162.501c0 -42.667 -4.83301 -82.834 -14.5 -120.501s-25.834 -74.5 -48.501 -110.5s-52.167 -71.667 -88.5 -107s-81.166 -72.666 -134.499 -111.999l-221 -160h565z" />
    <glyph glyph-name="threesuperior" unicode="&#xb3;" horiz-adv-x="1413" 
d="M717 2302c78 0 146.663 -9.83301 205.996 -29.5s109.333 -47 150 -82s71.334 -76.167 92.001 -123.5s31 -98.666 31 -153.999c0 -30 -3.66699 -60 -11 -90s-20 -61.333 -38 -94s-41.833 -66.834 -71.5 -102.501s-67.167 -74.167 -112.5 -115.5
c51.333 -18 94.833 -40.833 130.5 -68.5s64.667 -58.167 87 -91.5s38.666 -68.5 48.999 -105.5s15.5 -73.833 15.5 -110.5c0 -76 -15.5 -146.667 -46.5 -212s-76.333 -122.166 -136 -170.499s-133 -86.166 -220 -113.499s-186.167 -41 -297.5 -41
c-78.667 0 -154.334 8.5 -227.001 25.5s-139 39.833 -199 68.5c12 43.333 24.833 87.166 38.5 131.499s26.834 89.166 39.501 134.499c34.667 -13.333 67.5 -24.666 98.5 -33.999s61.333 -16.833 91 -22.5s59.667 -9.83398 90 -12.501s62.5 -4 96.5 -4
c84.667 0 149.667 18.333 195 55s68 93.334 68 170.001c0 32.667 -7 60.834 -21 84.501s-33.667 43.167 -59 58.5s-56.166 26.666 -92.499 33.999s-77.166 11 -122.499 11c-10.667 0 -28.5 -0.166992 -53.5 -0.5s-50.833 -1.5 -77.5 -3.5l-17 279
c14.667 1.33301 27.834 2.16602 39.501 2.49902l33.5 1c10.667 0.333008 21.334 0.5 32.001 0.5h34c20.667 0 43.834 -0.166992 69.501 -0.5s51.834 -1.5 78.501 -3.5c28 30.667 50.5 57.667 67.5 81s30.167 45 39.5 65s15.666 39.167 18.999 57.5s5 37.833 5 58.5
c0 45.333 -14 82 -42 110s-70 42 -126 42c-22.667 0 -46.5 -2 -71.5 -6s-51.833 -10.667 -80.5 -20s-58.834 -22 -90.501 -38s-65.5 -35.667 -101.5 -59l-139 237c48 37.333 94.667 68.666 140 94c45.333 25.333 90.5 46 135.5 62s90.667 27.5 137 34.5
s94.5 10.5 144.5 10.5z" />
    <glyph glyph-name="acute" unicode="&#xb4;" horiz-adv-x="1286" 
d="M528 2261l-327 70l504 761l389 -86z" />
    <glyph glyph-name="mu" unicode="&#xb5;" horiz-adv-x="2359" 
d="M1901 627c0 -80.667 1.33398 -149.174 4.00098 -205.507s8 -99.833 16 -130.5c6 -22.667 13.833 -42.167 23.5 -58.5s19.5 -29.5 29.5 -39.5c12.667 -10.667 25.167 -18.167 37.5 -22.5s25.833 -6.5 40.5 -6.5c34.667 0 66 16.333 94 49c28 32 48.667 97.667 62 197h82
c-10.667 -91.333 -27 -167.5 -49 -228.5s-49.333 -107.833 -82 -140.5c-33.333 -35.333 -70.5 -61.166 -111.5 -77.499s-87.167 -24.5 -138.5 -24.5c-50 0 -94.167 7.16699 -132.5 21.5s-72.166 37.166 -101.499 68.499c-30.667 28.667 -54.5 69.167 -71.5 121.5
s-28.5 115.5 -34.5 189.5c-68 -76.667 -134.333 -140.667 -199 -192s-128 -92.333 -190 -123c-60 -29.333 -116.333 -51.833 -169 -67.5s-101.667 -23.5 -147 -23.5c-30.667 0 -60.5 3.16699 -89.5 9.5s-57.833 15.5 -86.5 27.5c-28.667 12.667 -57.167 27.334 -85.5 44.001
s-55.833 36.334 -82.5 59.001c-4 -194 12.333 -362 49 -504c24.667 -105.333 37 -177.666 37 -216.999c0 -37.333 -4.16699 -70.166 -12.5 -98.499s-21.833 -52.833 -40.5 -73.5c-36 -44 -78.333 -66 -127 -66c-22.667 0 -43.834 5 -63.501 15s-36.834 24.333 -51.501 43
c-20.667 24.667 -36 52.834 -46 84.501s-15 66.167 -15 103.5c0 18.667 1.33301 39.834 4 63.501s8 48.834 16 75.501c18.667 64 34 123.333 46 178s20 104.667 24 150c8 82.667 14.167 157.667 18.5 225s6.5 129 6.5 185v1593h335v-1151c0 -138 12.333 -236.333 37 -295
c10.667 -30.667 26 -57.5 46 -80.5s44.333 -43.833 73 -62.5c31.333 -16.667 61.333 -29.834 90 -39.501s57.334 -14.5 86.001 -14.5c35.333 0 73.333 5.33301 114 16s84.667 27.334 132 50.001c49.333 20.667 97.666 47.167 144.999 79.5s96 71.5 146 117.5v1380h332v-1204
z" />
    <glyph glyph-name="paragraph" unicode="&#xb6;" horiz-adv-x="2925" 
d="M2564 1585h-389v-2388l-430 -28v2764h844zM1454 479c-32 -27.333 -67.668 -52.3311 -107.001 -74.998s-81.333 -42 -126 -58s-91.5 -28.5 -140.5 -37.5s-99.167 -13.5 -150.5 -13.5c-107.333 0 -202.166 16.667 -284.499 50s-151.333 82.666 -207 147.999
s-97.667 146.166 -126 242.499s-42.5 207.5 -42.5 333.5c0 147.333 18.5 277 55.5 389s89.5 205.667 157.5 281s149.833 132 245.5 170s202.5 57 320.5 57c68 0 137 -3.5 207 -10.5s136 -15.833 198 -26.5v-1450v0z" />
    <glyph glyph-name="periodcentered" unicode="&#xb7;" horiz-adv-x="1221" 
d="M319 750v467h545v-467h-545z" />
    <glyph glyph-name="cedilla" unicode="&#xb8;" horiz-adv-x="1221" 
d="M864 152c15.333 -45.333 29.168 -91.335 41.501 -138.002s22.833 -92.5 31.5 -137.5s15.167 -88 19.5 -129s6.5 -78.5 6.5 -112.5c0 -69.333 -13.333 -133.666 -40 -192.999s-71.334 -111 -134.001 -155s-145.834 -79.167 -249.501 -105.5s-232.834 -41.5 -387.501 -45.5
l-54 307c91.333 6 165 15.167 221 27.5s99.5 27 130.5 44s51.833 36.333 62.5 58s16 45.5 16 71.5c0 20.667 -1.5 48.834 -4.5 84.501s-7.16699 75.5 -12.5 119.5s-11.666 90.5 -18.999 139.5s-15.666 96.833 -24.999 143.5l397 21v0z" />
    <glyph glyph-name="onesuperior" unicode="&#xb9;" horiz-adv-x="1167" 
d="M483 1008v942l-360 20l24 279l725 37v-1278h-389z" />
    <glyph glyph-name="ordmasculine" unicode="&#xba;" horiz-adv-x="1438" 
d="M1298 2019c0 -90 -13.832 -173 -41.499 -249s-67.667 -141.667 -120 -197s-116 -98.5 -191 -129.5s-159.5 -46.5 -253.5 -46.5c-186.667 0 -325.5 48.667 -416.5 146s-136.5 245.333 -136.5 444c0 91.333 14.5 174.833 43.5 250.5s69.833 140.667 122.5 195
s116 96.666 190 127c74 30.333 156 45.5 246 45.5c88 0 166.667 -10.667 236 -32s127.666 -55.5 174.999 -102.5s83.5 -107.667 108.5 -182s37.5 -164.166 37.5 -269.5zM958.001 2003c0 63.333 -4.66602 117.833 -13.999 163.5s-23.333 83 -42 112
s-42.334 50.333 -71.001 64s-62.667 20.5 -102 20.5c-78 0 -139.833 -29.5 -185.5 -88.5s-68.5 -148.167 -68.5 -267.5c0 -72.667 4.83301 -133.167 14.5 -181.5s24.5 -87 44.5 -116s44.833 -49.5 74.5 -61.5s64.5 -18 104.5 -18c82 0 143.333 30 184 90s61 154.333 61 283z
" />
    <glyph glyph-name="guillemotright" unicode="&#xbb;" horiz-adv-x="2507" 
d="M1708 123l-442 94l516 762l-443 729l447 111l532 -815zM717 123l-447 94l512 762l-434 729l443 111l532 -815z" />
    <glyph glyph-name="onequarter" unicode="&#xbc;" horiz-adv-x="3375" 
d="M3203 57h-225v-491l-365 -12v503h-671l-41 254l716 922h361v-901h246zM2613 852l-389 -520h389v520zM1044 0h-454l1450 1978h450zM483 1008v942l-360 20l24 279l725 37v-1278h-389z" />
    <glyph glyph-name="onehalf" unicode="&#xbd;" horiz-adv-x="3445" 
d="M2486 1978l-721 -990.5l-725 -987.5h-454l726.5 987.5l727.5 990.5h446v0zM3293 0h-1069l-24 242l442 290c42 28 77.5 54 106.5 78s52.667 47.667 71 71s31.5 47.5 39.5 72.5s12 52.5 12 82.5c0 45.333 -14.833 80.5 -44.5 105.5s-69.5 37.5 -119.5 37.5
c-21.333 0 -44.666 -2 -70 -6c-25.333 -4 -52.833 -11.167 -82.5 -21.5s-61.667 -24.166 -96 -41.499s-71.5 -39.333 -111.5 -66l-139 241c52 38 102.167 70.333 150.5 97s95.666 48.167 142 64.5c46.333 16.333 92.333 28.333 138 36s91.834 11.5 138.5 11.5
c80 0 150 -10.167 210 -30.5s109.833 -48.5 149.5 -84.5s69.5 -78.833 89.5 -128.5s30 -103.5 30 -161.5c0 -42.667 -4.83301 -83 -14.5 -121s-25.834 -74.833 -48.5 -110.5c-22.667 -35.667 -52.167 -71.334 -88.5 -107.001s-81.166 -73.167 -134.5 -112.5l-222 -159h566z
M483 1008v942l-360 20l24 279l725 37v-1278h-389z" />
    <glyph glyph-name="threequarters" unicode="&#xbe;" horiz-adv-x="3772" 
d="M2884 1978l-722 -990.5l-724 -987.5h-455l725 987.5l725 990.5h451v0zM717 2302c78 0 146.663 -9.83301 205.996 -29.5s109.333 -47 150 -82s71.334 -76.167 92.001 -123.5s31 -98.666 31 -153.999c0 -30 -3.66699 -60 -11 -90s-20 -61.333 -38 -94
s-41.833 -66.834 -71.5 -102.501s-67.167 -74.167 -112.5 -115.5c51.333 -18 94.833 -40.833 130.5 -68.5s64.667 -58.167 87 -91.5s38.666 -68.5 48.999 -105.5s15.5 -73.833 15.5 -110.5c0 -76 -15.5 -146.667 -46.5 -212s-76.333 -122.166 -136 -170.499
s-133 -86.166 -220 -113.499s-186.167 -41 -297.5 -41c-78.667 0 -154.334 8.5 -227.001 25.5s-139 39.833 -199 68.5c12 43.333 24.833 87.166 38.5 131.499s26.834 89.166 39.501 134.499c34.667 -13.333 67.5 -24.666 98.5 -33.999s61.333 -16.833 91 -22.5
s59.667 -9.83398 90 -12.501s62.5 -4 96.5 -4c84.667 0 149.667 18.333 195 55s68 93.334 68 170.001c0 32.667 -7 60.834 -21 84.501s-33.667 43.167 -59 58.5s-56.166 26.666 -92.499 33.999s-77.166 11 -122.499 11c-10.667 0 -28.5 -0.166992 -53.5 -0.5
s-50.833 -1.5 -77.5 -3.5l-17 279c14.667 1.33301 27.834 2.16602 39.501 2.49902l33.5 1c10.667 0.333008 21.334 0.5 32.001 0.5h34c20.667 0 43.834 -0.166992 69.501 -0.5s51.834 -1.5 78.501 -3.5c28 30.667 50.5 57.667 67.5 81s30.167 45 39.5 65
s15.666 39.167 18.999 57.5s5 37.833 5 58.5c0 45.333 -14 82 -42 110s-70 42 -126 42c-22.667 0 -46.5 -2 -71.5 -6s-51.833 -10.667 -80.5 -20s-58.834 -22 -90.501 -38s-65.5 -35.667 -101.5 -59l-139 237c48 37.333 94.667 68.666 140 94
c45.333 25.333 90.5 46 135.5 62s90.667 27.5 137 34.5s94.5 10.5 144.5 10.5zM3596 57h-225v-491l-365 -12v503h-671l-41 254l717 922h360v-901h246zM3006 852l-389 -520h389v520z" />
    <glyph glyph-name="questiondown" unicode="&#xbf;" horiz-adv-x="1757" 
d="M1315 1933v-491h-565v491h565zM98 -238c0 86 8.49902 160.83 25.499 224.497s46.167 120 87.5 169s96.5 93 165.5 132s155.167 76.833 258.5 113.5c69.333 24.667 124.833 46.167 166.5 64.5s73.5 35.833 95.5 52.5s36.333 33.834 43 51.501s10 38.167 10 61.5
c0 24.667 -1.33301 52.5 -4 83.5s-6.16699 63.167 -10.5 96.5s-9.16602 66.666 -14.499 99.999s-10.666 64.333 -15.999 93l406 45c13.333 -36 25.666 -75.5 36.999 -118.5s21.333 -85.833 30 -128.5s15.334 -83.5 20.001 -122.5s7 -72.833 7 -101.5
c0 -36.667 -2.33301 -69.667 -7 -99s-13.667 -56.166 -27 -80.499s-32.166 -46.833 -56.499 -67.5s-56 -41.167 -95 -61.5s-86.5 -41 -142.5 -62s-122.667 -43.833 -200 -68.5c-60.667 -19.333 -110.334 -39.166 -149.001 -59.499s-69.167 -42.166 -91.5 -65.499
s-37.666 -48.666 -45.999 -75.999s-12.5 -57.333 -12.5 -90c0 -69.333 14.833 -130.833 44.5 -184.5s77 -98.667 142 -135s149.167 -63.833 252.5 -82.5s228.666 -28 375.999 -28h41c13.333 0 27.333 0.166992 42 0.5s30.5 0.666016 47.5 0.999023
s36.167 1.16602 57.5 2.49902l-45 -417c-51.333 -6.66699 -107.333 -12.5 -168 -17.5s-126.334 -7.5 -197.001 -7.5c-178 0 -334 19.333 -468 58s-245.833 92.5 -335.5 161.5s-157 151.333 -202 247s-67.5 200.834 -67.5 315.501z" />
    <glyph glyph-name="Agrave" unicode="&#xc0;" horiz-adv-x="2572" 
d="M1987 0l-254 754h-947l-274 -754h-504l1041 2826h495l1008 -2826h-565zM897 1098h725l-311 950c-14.667 41.333 -24.5 81.166 -29.5 119.5c-5 38.333 -7.5 70.833 -7.5 97.5c0 -26.667 -4 -59.667 -12 -99s-19 -78.666 -33 -118zM1135 3150l-566 745l385 86l508 -762z
" />
    <glyph glyph-name="Aacute" unicode="&#xc1;" horiz-adv-x="2572" 
d="M1987 0l-254 754h-947l-274 -754h-504l1041 2826h495l1008 -2826h-565zM897 1098h725l-311 950c-14.667 41.333 -24.5 81.166 -29.5 119.5c-5 38.333 -7.5 70.833 -7.5 97.5c0 -26.667 -4 -59.667 -12 -99s-19 -78.666 -33 -118zM1434 3150l-328 69l504 762l389 -86z" />
    <glyph glyph-name="Acircumflex" unicode="&#xc2;" horiz-adv-x="2572" 
d="M1987 0l-254 754h-947l-274 -754h-504l1041 2826h495l1008 -2826h-565zM897 1098h725l-311 950c-14.667 41.333 -24.5 81.166 -29.5 119.5c-5 38.333 -7.5 70.833 -7.5 97.5c0 -26.667 -4 -59.667 -12 -99s-19 -78.666 -33 -118zM1540 3158l-258 471l-283 -471l-331 41
l491 778h316l446 -778z" />
    <glyph glyph-name="Atilde" unicode="&#xc3;" horiz-adv-x="2572" 
d="M1987 0l-254 754h-947l-274 -754h-504l1041 2826h495l1008 -2826h-565zM897 1098h725l-311 950c-14.667 41.333 -24.5 81.166 -29.5 119.5c-5 38.333 -7.5 70.833 -7.5 97.5c0 -26.667 -4 -59.667 -12 -99s-19 -78.666 -33 -118zM1991 3858
c-13.333 -97.333 -33.165 -180 -59.498 -248s-58.166 -123.333 -95.499 -166s-79.833 -73.667 -127.5 -93s-99.834 -29 -156.501 -29c-40 0 -81 2.16699 -123 6.5s-84 9 -126 14s-83.167 9.66699 -123.5 14s-78.5 6.5 -114.5 6.5c-21.333 0 -39.833 -3.16699 -55.5 -9.5
s-29.667 -17.666 -42 -34c-12.333 -16.333 -23.666 -39.166 -33.999 -68.5c-10.333 -29.333 -21.166 -67 -32.499 -113l-303 61c13.333 94 32.666 174.667 57.999 242s56.666 122.5 93.999 165.5s80.166 74.5 128.499 94.5s102.166 30 161.499 30
c42 0 83.5 -2.33301 124.5 -7s81 -9.83398 120 -15.5c39 -5.66699 77.167 -10.834 114.5 -15.5c37.333 -4.66699 73.333 -7 108 -7c22.667 0 42.5 3.33301 59.5 10s32.333 18.5 46 35.5s26.5 40.5 38.5 70.5s24.333 68 37 114l303 -58v0z" />
    <glyph glyph-name="Adieresis" unicode="&#xc4;" horiz-adv-x="2572" 
d="M1987 0l-254 754h-947l-274 -754h-504l1041 2826h495l1008 -2826h-565zM897 1098h725l-311 950c-14.667 41.333 -24.5 81.166 -29.5 119.5c-5 38.333 -7.5 70.833 -7.5 97.5c0 -26.667 -4 -59.667 -12 -99s-19 -78.666 -33 -118zM1487 3154v401h463v-401h-463zM623 3154
v401h467v-401h-467z" />
    <glyph glyph-name="Aring" unicode="&#xc5;" horiz-adv-x="2572" 
d="M1987 0l-254 754h-947l-274 -754h-504l1041 2826h495l1008 -2826h-565zM897 1098h725l-311 950c-14.667 41.333 -24.5 81.166 -29.5 119.5c-5 38.333 -7.5 70.833 -7.5 97.5c0 -26.667 -4 -59.667 -12 -99s-19 -78.666 -33 -118zM1733 3531
c0 -63.333 -10.335 -120.5 -31.002 -171.5s-50.5 -94.5 -89.5 -130.5s-86.333 -63.667 -142 -83s-118.5 -29 -188.5 -29c-67.333 0 -127.166 8 -179.499 24s-96.5 39.833 -132.5 71.5s-63.333 71.334 -82 119c-18.667 47.667 -28 103.167 -28 166.5
c0 57.333 10.333 110.833 31 160.5s50.334 93 89.001 130s85.667 66.167 141 87.5s117.333 32 186 32c140 0 246 -31.833 318 -95.5s108 -157.5 108 -281.5zM1458 3518c0 52 -12.499 93 -37.499 123s-64.167 45 -117.5 45c-52 0 -93 -15.167 -123 -45.5
s-45 -76.5 -45 -138.5c0 -56 13.5 -98 40.5 -126s65.167 -42 114.5 -42c30.667 0 56.667 4.16699 78 12.5s38.666 20.5 51.999 36.5s23 35.333 29 58s9 48.334 9 77z" />
    <glyph glyph-name="AE" unicode="&#xc6;" horiz-adv-x="3895" 
d="M987 754l-504 -754h-544l1953 2826h1807l-37 -393h-1221v-786h1094l-8 -394h-1086v-860h1229l37 -393h-1782v754h-938zM1925 1098v1081l-717 -1077z" />
    <glyph glyph-name="Ccedilla" unicode="&#xc7;" horiz-adv-x="2466" 
d="M1741 2388c-28 7.33301 -53.332 13.333 -75.999 18s-44.834 8.5 -66.501 11.5s-43.334 5 -65.001 6s-45.5 1.5 -71.5 1.5c-116.667 0 -221.334 -20.833 -314.001 -62.5s-171.167 -105 -235.5 -190s-113.666 -192 -147.999 -321s-51.5 -280.5 -51.5 -454.5
c0 -130.667 8.83301 -245.834 26.5 -345.501s42.667 -186.167 75 -259.5s70.833 -134.666 115.5 -183.999s94 -89 148 -119s111.833 -51.333 173.5 -64s125.167 -19 190.5 -19c67.333 0 134 5.16699 200 15.5s130.5 25 193.5 44s124.667 41.833 185 68.5
s118.5 56.334 174.5 89.001l140 -381c-56.667 -34 -113.5 -65.167 -170.5 -93.5s-115.833 -53.5 -176.5 -75.5s-123.834 -40.667 -189.501 -56s-135.5 -26.333 -209.5 -33c14.667 -64 26.5 -126.167 35.5 -186.5s13.5 -114.5 13.5 -162.5
c0 -69.333 -13.167 -133.666 -39.5 -192.999s-70.833 -111 -133.5 -155s-146 -79.167 -250 -105.5s-233.333 -41.5 -388 -45.5l-53 307c91.333 6 165 15.167 221 27.5s99.5 27 130.5 44s51.833 36.333 62.5 58s16 45.5 16 71.5c0 15.333 -1 34.833 -3 58.5
s-4.66699 50.334 -8 80.001s-7.16602 61.167 -11.499 94.5s-9.16602 67.666 -14.499 102.999c-164 14 -308.167 52 -432.5 114s-228.5 149.167 -312.5 261.5s-147.333 251.166 -190 416.499s-64 358.666 -64 579.999c0 231.333 28.667 439.5 86 624.5
s140.666 342.333 249.999 472s243.833 229.167 403.5 298.5s341.834 104 546.501 104c91.333 0 173.5 -3.16699 246.5 -9.5s140.5 -15.666 202.5 -28c62 -12.333 120.667 -28 176 -47s110.666 -41.5 166 -67.5l-54 -856l-438 -24z" />
    <glyph glyph-name="Egrave" unicode="&#xc8;" horiz-adv-x="2228" 
d="M279 0v2826h1773l-33 -393h-1228v-786h1097v-394h-1097v-860h1232l37 -393h-1781zM1020 3150l-565 745l385 86l508 -762z" />
    <glyph glyph-name="Eacute" unicode="&#xc9;" horiz-adv-x="2228" 
d="M279 0v2826h1773l-33 -393h-1228v-786h1097v-394h-1097v-860h1232l37 -393h-1781zM1319 3150l-328 69l504 762l389 -86z" />
    <glyph glyph-name="Ecircumflex" unicode="&#xca;" horiz-adv-x="2228" 
d="M279 0v2826h1773l-33 -393h-1228v-786h1097v-394h-1097v-860h1232l37 -393h-1781zM1413 3158l-258 471l-283 -471l-331 41l491 778h316l446 -778z" />
    <glyph glyph-name="Edieresis" unicode="&#xcb;" horiz-adv-x="2228" 
d="M279 0v2826h1773l-33 -393h-1228v-786h1097v-394h-1097v-860h1232l37 -393h-1781zM1368 3224v401h463v-401h-463zM504 3224v401h467v-401h-467z" />
    <glyph glyph-name="Igrave" unicode="&#xcc;" horiz-adv-x="1729" 
d="M1536 2474l-393 -25v-2089l401 -16v-344h-1319v344l402 16v2089l-389 25v352h1298v-352zM725 3154l-565 745l385 86l508 -761z" />
    <glyph glyph-name="Iacute" unicode="&#xcd;" horiz-adv-x="1729" 
d="M1536 2474l-393 -25v-2089l401 -16v-344h-1319v344l402 16v2089l-389 25v352h1298v-352zM1020 3154l-328 70l504 761l389 -86z" />
    <glyph glyph-name="Icircumflex" unicode="&#xce;" horiz-adv-x="1729" 
d="M1536 2474l-393 -25v-2089l401 -16v-344h-1319v344l402 16v2089l-389 25v352h1298v-352zM1126 3162l-258 471l-282 -471l-332 41l491 778h316l446 -778z" />
    <glyph glyph-name="Idieresis" unicode="&#xcf;" horiz-adv-x="1729" 
d="M1536 2474l-393 -25v-2089l401 -16v-344h-1319v344l402 16v2089l-389 25v352h1298v-352zM1077 3228v401h463v-401h-463zM213 3228v401h467v-401h-467z" />
    <glyph glyph-name="Eth" unicode="&#xd0;" horiz-adv-x="2806" 
d="M1274 393c143.333 0 267.501 22 372.501 66s191.667 109.5 260 196.5s119.166 195.5 152.499 325.5s50 281 50 453c0 170 -16 317.5 -48 442.5s-81.833 228.333 -149.5 310s-154.167 142.5 -259.5 182.5s-231.333 60 -378 60h-369v-844l529 17l-13 -320l-516 -12v-877
h369zM389.001 0l-0.00195312 1253l-422 -16l13 315l409 17v1257h963c136.667 0 263.334 -10.167 380.001 -30.5s222.5 -52.666 317.5 -97c95 -44.333 179.167 -101.666 252.5 -172c73.333 -70.333 134.833 -155.5 184.5 -255.5s87.334 -215.833 113 -347.5
c25.667 -131.667 38.5 -281.167 38.5 -448.5c0 -236.667 -29 -446.667 -87 -630s-144.167 -337.5 -258.5 -462.5s-256.666 -220 -426.999 -285s-367.5 -97.5 -591.5 -97.5h-885z" />
    <glyph glyph-name="Ntilde" unicode="&#xd1;" horiz-adv-x="2900" 
d="M2175 0l-1315 1810c-24.667 33.333 -45.834 64.833 -63.501 94.5s-30.5 57.167 -38.5 82.5v-1987h-479v2826h450l1307 -1839c32.667 -45.333 57.834 -83 75.5 -113c17.667 -30 30.5 -56.333 38.5 -79v2031h476v-2826h-451zM2118 3858
c-13.333 -97.333 -33.165 -180 -59.498 -248s-58.166 -123.333 -95.499 -166s-79.833 -73.667 -127.5 -93s-99.834 -29 -156.501 -29c-40 0 -81 2.16699 -123 6.5s-84 9 -126 14s-83.167 9.66699 -123.5 14s-78.5 6.5 -114.5 6.5c-21.333 0 -39.833 -3.16699 -55.5 -9.5
s-29.667 -17.666 -42 -34c-12.333 -16.333 -23.666 -39.166 -33.999 -68.5c-10.333 -29.333 -21.166 -67 -32.499 -113l-303 61c13.333 94 32.666 174.667 57.999 242s56.666 122.5 93.999 165.5s80.166 74.5 128.499 94.5s102.166 30 161.499 30
c42 0 83.5 -2.33301 124.5 -7s81 -9.83398 120 -15.5c39 -5.66699 77.167 -10.834 114.5 -15.5c37.333 -4.66699 73.333 -7 108 -7c22.667 0 42.5 3.33301 59.5 10s32.333 18.5 46 35.5s26.5 40.5 38.5 70.5s24.333 68 37 114l303 -58v0z" />
    <glyph glyph-name="Ograve" unicode="&#xd2;" horiz-adv-x="2855" 
d="M2683 1458c0 -139.333 -12.002 -272.836 -36.002 -400.503s-60.333 -246.667 -109 -357s-109.334 -210.666 -182 -300.999c-72.667 -90.333 -157.5 -167.5 -254.5 -231.5s-206.333 -113.5 -328 -148.5s-255.5 -52.5 -401.5 -52.5
c-193.333 0 -364.666 25.167 -513.999 75.5s-274.833 131 -376.5 242s-178.667 255.167 -231 432.5s-78.5 393 -78.5 647c0 152.667 13.167 295.5 39.5 428.5s65 254.5 116 364.5s113.833 208 188.5 294s160.334 158.667 257.001 218s203.667 104.5 321 135.5
s244.333 46.5 381 46.5c193.333 0 365 -25.5 515 -76.5s276.333 -132.167 379 -243.5s180.667 -255.166 234 -431.499s80 -390.166 80 -641.499zM2134 1434c0 160 -12.335 302.499 -37.002 427.499s-64.167 230.833 -118.5 317.5s-124.5 152.667 -210.5 198
s-190.667 68 -314 68c-116 0 -219.333 -22.833 -310 -68.5s-167.334 -112.5 -230.001 -200.5s-110.5 -196.333 -143.5 -325s-49.5 -276 -49.5 -442c0 -178 13.333 -331.667 40 -461s68 -236 124 -320s127 -146.167 213 -186.5s188.333 -60.5 307 -60.5
s223.334 23.5 314.001 70.5s166.834 115.5 228.501 205.5s108.167 200.333 139.501 331c31.333 130.667 47 279.334 47 446.001zM1311 3150l-566 745l385 86l508 -762z" />
    <glyph glyph-name="Oacute" unicode="&#xd3;" horiz-adv-x="2855" 
d="M2683 1458c0 -139.333 -12.002 -272.836 -36.002 -400.503s-60.333 -246.667 -109 -357s-109.334 -210.666 -182 -300.999c-72.667 -90.333 -157.5 -167.5 -254.5 -231.5s-206.333 -113.5 -328 -148.5s-255.5 -52.5 -401.5 -52.5
c-193.333 0 -364.666 25.167 -513.999 75.5s-274.833 131 -376.5 242s-178.667 255.167 -231 432.5s-78.5 393 -78.5 647c0 152.667 13.167 295.5 39.5 428.5s65 254.5 116 364.5s113.833 208 188.5 294s160.334 158.667 257.001 218s203.667 104.5 321 135.5
s244.333 46.5 381 46.5c193.333 0 365 -25.5 515 -76.5s276.333 -132.167 379 -243.5s180.667 -255.166 234 -431.499s80 -390.166 80 -641.499zM2134 1434c0 160 -12.335 302.499 -37.002 427.499s-64.167 230.833 -118.5 317.5s-124.5 152.667 -210.5 198
s-190.667 68 -314 68c-116 0 -219.333 -22.833 -310 -68.5s-167.334 -112.5 -230.001 -200.5s-110.5 -196.333 -143.5 -325s-49.5 -276 -49.5 -442c0 -178 13.333 -331.667 40 -461s68 -236 124 -320s127 -146.167 213 -186.5s188.333 -60.5 307 -60.5
s223.334 23.5 314.001 70.5s166.834 115.5 228.501 205.5s108.167 200.333 139.501 331c31.333 130.667 47 279.334 47 446.001zM1610 3150l-328 69l504 762l389 -86z" />
    <glyph glyph-name="Ocircumflex" unicode="&#xd4;" horiz-adv-x="2855" 
d="M2683 1458c0 -139.333 -12.002 -272.836 -36.002 -400.503s-60.333 -246.667 -109 -357s-109.334 -210.666 -182 -300.999c-72.667 -90.333 -157.5 -167.5 -254.5 -231.5s-206.333 -113.5 -328 -148.5s-255.5 -52.5 -401.5 -52.5
c-193.333 0 -364.666 25.167 -513.999 75.5s-274.833 131 -376.5 242s-178.667 255.167 -231 432.5s-78.5 393 -78.5 647c0 152.667 13.167 295.5 39.5 428.5s65 254.5 116 364.5s113.833 208 188.5 294s160.334 158.667 257.001 218s203.667 104.5 321 135.5
s244.333 46.5 381 46.5c193.333 0 365 -25.5 515 -76.5s276.333 -132.167 379 -243.5s180.667 -255.166 234 -431.499s80 -390.166 80 -641.499zM2134 1434c0 160 -12.335 302.499 -37.002 427.499s-64.167 230.833 -118.5 317.5s-124.5 152.667 -210.5 198
s-190.667 68 -314 68c-116 0 -219.333 -22.833 -310 -68.5s-167.334 -112.5 -230.001 -200.5s-110.5 -196.333 -143.5 -325s-49.5 -276 -49.5 -442c0 -178 13.333 -331.667 40 -461s68 -236 124 -320s127 -146.167 213 -186.5s188.333 -60.5 307 -60.5
s223.334 23.5 314.001 70.5s166.834 115.5 228.501 205.5s108.167 200.333 139.501 331c31.333 130.667 47 279.334 47 446.001zM1712 3158l-258 471l-283 -471l-331 41l491 778h316l446 -778z" />
    <glyph glyph-name="Otilde" unicode="&#xd5;" horiz-adv-x="2855" 
d="M2683 1458c0 -139.333 -12.002 -272.836 -36.002 -400.503s-60.333 -246.667 -109 -357s-109.334 -210.666 -182 -300.999c-72.667 -90.333 -157.5 -167.5 -254.5 -231.5s-206.333 -113.5 -328 -148.5s-255.5 -52.5 -401.5 -52.5
c-193.333 0 -364.666 25.167 -513.999 75.5s-274.833 131 -376.5 242s-178.667 255.167 -231 432.5s-78.5 393 -78.5 647c0 152.667 13.167 295.5 39.5 428.5s65 254.5 116 364.5s113.833 208 188.5 294s160.334 158.667 257.001 218s203.667 104.5 321 135.5
s244.333 46.5 381 46.5c193.333 0 365 -25.5 515 -76.5s276.333 -132.167 379 -243.5s180.667 -255.166 234 -431.499s80 -390.166 80 -641.499zM2134 1434c0 160 -12.335 302.499 -37.002 427.499s-64.167 230.833 -118.5 317.5s-124.5 152.667 -210.5 198
s-190.667 68 -314 68c-116 0 -219.333 -22.833 -310 -68.5s-167.334 -112.5 -230.001 -200.5s-110.5 -196.333 -143.5 -325s-49.5 -276 -49.5 -442c0 -178 13.333 -331.667 40 -461s68 -236 124 -320s127 -146.167 213 -186.5s188.333 -60.5 307 -60.5
s223.334 23.5 314.001 70.5s166.834 115.5 228.501 205.5s108.167 200.333 139.501 331c31.333 130.667 47 279.334 47 446.001zM2163 3858c-13.333 -97.333 -33.1641 -180 -59.498 -248c-26.333 -68 -58.166 -123.333 -95.499 -166s-79.833 -73.667 -127.5 -93
s-99.834 -29 -156.501 -29c-40 0 -81 2.16699 -123 6.5s-84 9 -126 14s-83.167 9.66699 -123.5 14s-78.5 6.5 -114.5 6.5c-21.333 0 -39.833 -3.16699 -55.5 -9.5s-29.667 -17.666 -42 -34c-12.333 -16.333 -23.666 -39.166 -33.999 -68.5
c-10.333 -29.333 -21.166 -67 -32.499 -113l-303 61c13.333 94 32.666 174.667 57.999 242s56.666 122.5 93.999 165.5s80.166 74.5 128.499 94.5s102.166 30 161.499 30c42 0 83.5 -2.33301 124.5 -7s81 -9.83398 120 -15.5c39 -5.66699 77.167 -10.834 114.5 -15.5
c37.333 -4.66699 73.333 -7 108 -7c22.667 0 42.5 3.33301 59.5 10s32.333 18.5 46 35.5s26.5 40.5 38.5 70.5s24.333 68 37 114l303 -58v0z" />
    <glyph glyph-name="Odieresis" unicode="&#xd6;" horiz-adv-x="2855" 
d="M2683 1458c0 -139.333 -12.002 -272.836 -36.002 -400.503s-60.333 -246.667 -109 -357s-109.334 -210.666 -182 -300.999c-72.667 -90.333 -157.5 -167.5 -254.5 -231.5s-206.333 -113.5 -328 -148.5s-255.5 -52.5 -401.5 -52.5
c-193.333 0 -364.666 25.167 -513.999 75.5s-274.833 131 -376.5 242s-178.667 255.167 -231 432.5s-78.5 393 -78.5 647c0 152.667 13.167 295.5 39.5 428.5s65 254.5 116 364.5s113.833 208 188.5 294s160.334 158.667 257.001 218s203.667 104.5 321 135.5
s244.333 46.5 381 46.5c193.333 0 365 -25.5 515 -76.5s276.333 -132.167 379 -243.5s180.667 -255.166 234 -431.499s80 -390.166 80 -641.499zM2134 1434c0 160 -12.335 302.499 -37.002 427.499s-64.167 230.833 -118.5 317.5s-124.5 152.667 -210.5 198
s-190.667 68 -314 68c-116 0 -219.333 -22.833 -310 -68.5s-167.334 -112.5 -230.001 -200.5s-110.5 -196.333 -143.5 -325s-49.5 -276 -49.5 -442c0 -178 13.333 -331.667 40 -461s68 -236 124 -320s127 -146.167 213 -186.5s188.333 -60.5 307 -60.5
s223.334 23.5 314.001 70.5s166.834 115.5 228.501 205.5s108.167 200.333 139.501 331c31.333 130.667 47 279.334 47 446.001zM1659 3224v401h463v-401h-463zM794.996 3224v401h467v-401h-467z" />
    <glyph glyph-name="multiply" unicode="&#xd7;" horiz-adv-x="1978" 
d="M999 1245l451 537l303 -221l-512 -574l512 -581l-315 -218l-463 533l-459 -533l-295 209l520 578l-520 594l320 213z" />
    <glyph glyph-name="Oslash" unicode="&#xd8;" horiz-adv-x="2855" 
d="M2683 1442c0 -135.333 -11.834 -265.666 -35.501 -390.999s-59.5 -242.666 -107.5 -351.999s-108.167 -209 -180.5 -299s-157 -167 -254 -231s-206.667 -113.667 -329 -149s-257.166 -53 -404.499 -53c-82.667 0 -158.834 6.16699 -228.501 18.5
s-135.5 30.833 -197.5 55.5l-213 -442h-348l254 553c-76 53.333 -143 116.333 -201 189s-106.667 158.167 -146 256.5s-69.166 210.833 -89.499 337.5s-30.5 271 -30.5 433c0 230.667 29.667 437.667 89 621s145 338.833 257 466.5s249 225.5 411 293.5s345.333 102 550 102
c78 0 152.5 -5.5 223.5 -16.5s138.5 -28.833 202.5 -53.5l204 434h361l-254 -557c80 -54 149.167 -118.833 207.5 -194.5s106.833 -163.334 145.5 -263c38.667 -99.667 67.334 -212.334 86 -338.001c18.667 -125.667 28 -265.834 28 -420.501zM2146 1446
c0 76.667 -2.83203 150.331 -8.49902 220.998s-14.834 137.334 -27.5 200.001c-12.667 62.667 -28.834 121 -48.501 175s-43.167 102.333 -70.5 145l-881 -1757c77.333 -40.667 174.333 -61 291 -61c250 0 436.667 90.833 560 272.5s185 449.834 185 804.501zM1737 2388
c-35.333 20.667 -76.002 36.835 -122.002 48.501c-46 11.667 -97 17.5 -153 17.5c-120 0 -227.167 -22.333 -321.5 -67s-174.166 -110.834 -239.499 -198.5c-65.333 -87.667 -115.166 -196.334 -149.499 -326.001s-51.5 -279.5 -51.5 -449.5c0 -169.333 13.333 -319 40 -449
s66.667 -238.333 120 -325z" />
    <glyph glyph-name="Ugrave" unicode="&#xd9;" horiz-adv-x="2757" 
d="M2503 1114c0 -170.667 -23.668 -326.331 -71.001 -466.998s-119 -261 -215 -361s-216.667 -177.5 -362 -232.5s-316 -82.5 -512 -82.5c-195.333 0 -362 22.667 -500 68s-250.667 114 -338 206s-151 207.5 -191 346.5s-60 302.167 -60 489.5v1745h516v-1745
c0 -120.667 10.667 -224.834 32 -312.501s56 -159.834 104 -216.501s110.5 -98.667 187.5 -126s171.167 -41 282.5 -41c118.667 0 218.5 15.333 299.5 46s146.333 76.167 196 136.5s85.334 135.5 107.001 225.5s32.5 194.333 32.5 313v1720h492v-1712v0zM1229 3150l-565 745
l385 86l507 -762z" />
    <glyph glyph-name="Uacute" unicode="&#xda;" horiz-adv-x="2757" 
d="M2503 1114c0 -170.667 -23.668 -326.331 -71.001 -466.998s-119 -261 -215 -361s-216.667 -177.5 -362 -232.5s-316 -82.5 -512 -82.5c-195.333 0 -362 22.667 -500 68s-250.667 114 -338 206s-151 207.5 -191 346.5s-60 302.167 -60 489.5v1745h516v-1745
c0 -120.667 10.667 -224.834 32 -312.501s56 -159.834 104 -216.501s110.5 -98.667 187.5 -126s171.167 -41 282.5 -41c118.667 0 218.5 15.333 299.5 46s146.333 76.167 196 136.5s85.334 135.5 107.001 225.5s32.5 194.333 32.5 313v1720h492v-1712v0zM1528 3150l-328 69
l504 762l389 -86z" />
    <glyph glyph-name="Ucircumflex" unicode="&#xdb;" horiz-adv-x="2757" 
d="M2503 1114c0 -170.667 -23.668 -326.331 -71.001 -466.998s-119 -261 -215 -361s-216.667 -177.5 -362 -232.5s-316 -82.5 -512 -82.5c-195.333 0 -362 22.667 -500 68s-250.667 114 -338 206s-151 207.5 -191 346.5s-60 302.167 -60 489.5v1745h516v-1745
c0 -120.667 10.667 -224.834 32 -312.501s56 -159.834 104 -216.501s110.5 -98.667 187.5 -126s171.167 -41 282.5 -41c118.667 0 218.5 15.333 299.5 46s146.333 76.167 196 136.5s85.334 135.5 107.001 225.5s32.5 194.333 32.5 313v1720h492v-1712v0zM1638 3158l-258 471
l-282 -471l-332 41l491 778h316l446 -778z" />
    <glyph glyph-name="Udieresis" unicode="&#xdc;" horiz-adv-x="2757" 
d="M2503 1114c0 -170.667 -23.668 -326.331 -71.001 -466.998s-119 -261 -215 -361s-216.667 -177.5 -362 -232.5s-316 -82.5 -512 -82.5c-195.333 0 -362 22.667 -500 68s-250.667 114 -338 206s-151 207.5 -191 346.5s-60 302.167 -60 489.5v1745h516v-1745
c0 -120.667 10.667 -224.834 32 -312.501s56 -159.834 104 -216.501s110.5 -98.667 187.5 -126s171.167 -41 282.5 -41c118.667 0 218.5 15.333 299.5 46s146.333 76.167 196 136.5s85.334 135.5 107.001 225.5s32.5 194.333 32.5 313v1720h492v-1712v0zM1577 3224v401h463
v-401h-463zM712.999 3224v401h467v-401h-467z" />
    <glyph glyph-name="Yacute" unicode="&#xdd;" horiz-adv-x="2351" 
d="M1393 1221v-1221h-516v1208l-902 1618h594l611 -1114l684 1114h512zM1335 3150l-327 69l503 762l390 -86z" />
    <glyph glyph-name="Thorn" unicode="&#xde;" horiz-adv-x="2224" 
d="M1180 2474c160.667 0 298.834 -21.833 414.501 -65.5s210.667 -104.834 285 -183.5c74.333 -78.667 129.166 -172 164.499 -280s53 -226.667 53 -356c0 -100.667 -10.833 -196.834 -32.5 -288.501s-53 -176.667 -94 -255s-91.167 -149.166 -150.5 -212.499
s-126.666 -117.333 -201.999 -162s-158 -79 -248 -103s-186.333 -36 -289 -36c-55.333 0 -107.333 1.83301 -156 5.5s-93.334 7.5 -134.001 11.5v-549h-512v2920h512v-446h389zM1593 1548c0 70 -7.66699 137.001 -23 201.001s-41.5 120.667 -78.5 170
s-86.5 88.666 -148.5 117.999s-139.667 44 -233 44h-319v-1151c38.667 -4 83.5 -7.83301 134.5 -11.5s104.167 -5.5 159.5 -5.5c93.333 0 172.333 17.333 237 52s117 81.167 157 139.5s69 125.833 87 202.5s27 157 27 241z" />
    <glyph glyph-name="germandbls" unicode="&#xdf;" horiz-adv-x="2552" 
d="M2437 614c0 -90.667 -16.998 -175.503 -50.998 -254.503s-84.833 -147.5 -152.5 -205.5s-151.834 -103.667 -252.5 -137c-100.667 -33.333 -217.667 -50 -351 -50c-69.333 0 -136.333 3.83301 -201 11.5s-126.834 18.5 -186.501 32.5s-117 30.5 -172 49.5
s-107.5 39.833 -157.5 62.5l99 373c54 -24.667 110.333 -46.834 169 -66.501s117 -36.5 175 -50.5s114.167 -24.667 168.5 -32s104.5 -11 150.5 -11c47.333 0 88.833 5.16699 124.5 15.5s65.5 24.166 89.5 41.499s42.167 37.333 54.5 60s18.5 46.334 18.5 71.001
c0 30 -4.66699 56.667 -14 80s-25.833 45.5 -49.5 66.5s-55.5 41.833 -95.5 62.5s-90.667 42.667 -152 66c-86 32.667 -161.167 63.5 -225.5 92.5s-119.833 57.833 -166.5 86.5s-85 57.667 -115 87s-54 60.5 -72 93.5s-30.5 68.667 -37.5 107s-10.5 80.833 -10.5 127.5
c0 34 3.33301 67.833 10 101.5s18.167 70.334 34.5 110.001s38.833 83.834 67.5 132.501s65 104.667 109 168l88 129c24 36.667 43.5 70.167 58.5 100.5s25.833 59 32.5 86s10 55.5 10 85.5c0 36 -5.5 69.667 -16.5 101s-29.5 58.666 -55.5 82
c-26 23.333 -60.167 41.666 -102.5 55c-42.333 13.333 -94.833 20 -157.5 20c-113.333 0 -200.333 -33.167 -261 -99.5s-91 -161.5 -91 -285.5v-2179h-500v2077c0 142 20 266.5 60 373.5s98.167 196.333 174.5 268s169.833 125.334 280.5 161
c110.667 35.667 236.667 53.5 378 53.5c132 0 246.167 -12.833 342.5 -38.5s175.833 -62.834 238.5 -111.5c62.667 -48.667 109.167 -108.334 139.5 -179.001s45.5 -151 45.5 -241c0 -44 -4 -86.167 -12 -126.5s-22 -82.5 -42 -126.5s-46.833 -91.667 -80.5 -143
s-76.167 -110.333 -127.5 -177c-26.667 -36 -48.834 -67.167 -66.501 -93.5s-31.667 -49.833 -42 -70.5s-17.5 -39.5 -21.5 -56.5s-6 -33.5 -6 -49.5c0 -30 3.66699 -55.333 11 -76s21.5 -40 42.5 -58s50.5 -36 88.5 -54s87.667 -38.667 149 -62
c126 -47.333 230 -94.666 312 -141.999s146.833 -97.166 194.5 -149.499s81 -108.166 100 -167.499s28.5 -125 28.5 -197z" />
    <glyph glyph-name="agrave" unicode="&#xe0;" horiz-adv-x="2089" 
d="M1262 811c-130 -9.33301 -237.001 -20.501 -321.001 -33.501s-150.167 -29 -198.5 -48s-81.833 -41.833 -100.5 -68.5s-28 -58.667 -28 -96c0 -38.667 5.5 -73.667 16.5 -105s27.167 -58 48.5 -80s47.5 -39 78.5 -51s66.5 -18 106.5 -18s79.333 5.5 118 16.5
s75.334 25.333 110.001 43s66.5 37.834 95.5 60.501s53.833 45.667 74.5 69v311v0zM1761 -20.001c-70.667 0 -133.002 5.33301 -187.002 16s-100.5 26.167 -139.5 46.5s-70.667 45.5 -95 75.5s-42.166 64.333 -53.499 103c-82 -90 -172.667 -154.833 -272 -194.5
s-210.666 -59.5 -333.999 -59.5c-74 0 -143.667 12.667 -209 38s-122.666 62.5 -171.999 111.5s-88.333 109.333 -117 181s-43 154.167 -43 247.5c0 46 5.5 89.667 16.5 131s31.5 80 61.5 116s71.5 69.333 124.5 100s121.167 58.167 204.5 82.5s184 45.833 302 64.5
s257.333 34 418 46c2 50 3.16699 97.333 3.5 142s0.5 91.667 0.5 141c0 44 -4 81.167 -12 111.5s-20.5 54.833 -37.5 73.5s-38.667 32.167 -65 40.5s-57.833 12.5 -94.5 12.5c-52 0 -105.833 -5.16699 -161.5 -15.5s-111.167 -25.333 -166.5 -45
s-109.666 -43.334 -162.999 -71.001s-104 -59.167 -152 -94.5l-197 303c68.667 50 138.667 94.167 210 132.5s145.833 70.5 223.5 96.5s159.834 45.667 246.501 59s179.667 20 279 20c114.667 0 209.667 -14.5 285 -43.5s135.166 -71 179.499 -126s75.5 -122.333 93.5 -202
s27 -170.167 27 -271.5v-803c0 -36 2.33301 -65 7 -87s16.167 -39.667 34.5 -53s46.166 -24.166 83.499 -32.499s88.666 -16.5 153.999 -24.5l-82 -364c-37.333 -2 -72.833 -3.16699 -106.5 -3.5s-65.167 -0.5 -94.5 -0.5zM945.997 2261l-565 745l385 86l508 -761z" />
    <glyph glyph-name="aacute" unicode="&#xe1;" horiz-adv-x="2089" 
d="M1262 811c-130 -9.33301 -237.001 -20.501 -321.001 -33.501s-150.167 -29 -198.5 -48s-81.833 -41.833 -100.5 -68.5s-28 -58.667 -28 -96c0 -38.667 5.5 -73.667 16.5 -105s27.167 -58 48.5 -80s47.5 -39 78.5 -51s66.5 -18 106.5 -18s79.333 5.5 118 16.5
s75.334 25.333 110.001 43s66.5 37.834 95.5 60.501s53.833 45.667 74.5 69v311v0zM1761 -20.001c-70.667 0 -133.002 5.33301 -187.002 16s-100.5 26.167 -139.5 46.5s-70.667 45.5 -95 75.5s-42.166 64.333 -53.499 103c-82 -90 -172.667 -154.833 -272 -194.5
s-210.666 -59.5 -333.999 -59.5c-74 0 -143.667 12.667 -209 38s-122.666 62.5 -171.999 111.5s-88.333 109.333 -117 181s-43 154.167 -43 247.5c0 46 5.5 89.667 16.5 131s31.5 80 61.5 116s71.5 69.333 124.5 100s121.167 58.167 204.5 82.5s184 45.833 302 64.5
s257.333 34 418 46c2 50 3.16699 97.333 3.5 142s0.5 91.667 0.5 141c0 44 -4 81.167 -12 111.5s-20.5 54.833 -37.5 73.5s-38.667 32.167 -65 40.5s-57.833 12.5 -94.5 12.5c-52 0 -105.833 -5.16699 -161.5 -15.5s-111.167 -25.333 -166.5 -45
s-109.666 -43.334 -162.999 -71.001s-104 -59.167 -152 -94.5l-197 303c68.667 50 138.667 94.167 210 132.5s145.833 70.5 223.5 96.5s159.834 45.667 246.501 59s179.667 20 279 20c114.667 0 209.667 -14.5 285 -43.5s135.166 -71 179.499 -126s75.5 -122.333 93.5 -202
s27 -170.167 27 -271.5v-803c0 -36 2.33301 -65 7 -87s16.167 -39.667 34.5 -53s46.166 -24.166 83.499 -32.499s88.666 -16.5 153.999 -24.5l-82 -364c-37.333 -2 -72.833 -3.16699 -106.5 -3.5s-65.167 -0.5 -94.5 -0.5zM1241 2261l-328 70l504 761l389 -86z" />
    <glyph glyph-name="acircumflex" unicode="&#xe2;" horiz-adv-x="2089" 
d="M1262 811c-130 -9.33301 -237.001 -20.501 -321.001 -33.501s-150.167 -29 -198.5 -48s-81.833 -41.833 -100.5 -68.5s-28 -58.667 -28 -96c0 -38.667 5.5 -73.667 16.5 -105s27.167 -58 48.5 -80s47.5 -39 78.5 -51s66.5 -18 106.5 -18s79.333 5.5 118 16.5
s75.334 25.333 110.001 43s66.5 37.834 95.5 60.501s53.833 45.667 74.5 69v311v0zM1761 -20.001c-70.667 0 -133.002 5.33301 -187.002 16s-100.5 26.167 -139.5 46.5s-70.667 45.5 -95 75.5s-42.166 64.333 -53.499 103c-82 -90 -172.667 -154.833 -272 -194.5
s-210.666 -59.5 -333.999 -59.5c-74 0 -143.667 12.667 -209 38s-122.666 62.5 -171.999 111.5s-88.333 109.333 -117 181s-43 154.167 -43 247.5c0 46 5.5 89.667 16.5 131s31.5 80 61.5 116s71.5 69.333 124.5 100s121.167 58.167 204.5 82.5s184 45.833 302 64.5
s257.333 34 418 46c2 50 3.16699 97.333 3.5 142s0.5 91.667 0.5 141c0 44 -4 81.167 -12 111.5s-20.5 54.833 -37.5 73.5s-38.667 32.167 -65 40.5s-57.833 12.5 -94.5 12.5c-52 0 -105.833 -5.16699 -161.5 -15.5s-111.167 -25.333 -166.5 -45
s-109.666 -43.334 -162.999 -71.001s-104 -59.167 -152 -94.5l-197 303c68.667 50 138.667 94.167 210 132.5s145.833 70.5 223.5 96.5s159.834 45.667 246.501 59s179.667 20 279 20c114.667 0 209.667 -14.5 285 -43.5s135.166 -71 179.499 -126s75.5 -122.333 93.5 -202
s27 -170.167 27 -271.5v-803c0 -36 2.33301 -65 7 -87s16.167 -39.667 34.5 -53s46.166 -24.166 83.499 -32.499s88.666 -16.5 153.999 -24.5l-82 -364c-37.333 -2 -72.833 -3.16699 -106.5 -3.5s-65.167 -0.5 -94.5 -0.5zM1307 2269l-258 471l-283 -471l-332 41l492 778
h315l447 -778z" />
    <glyph glyph-name="atilde" unicode="&#xe3;" horiz-adv-x="2089" 
d="M1262 811c-130 -9.33301 -237.001 -20.501 -321.001 -33.501s-150.167 -29 -198.5 -48s-81.833 -41.833 -100.5 -68.5s-28 -58.667 -28 -96c0 -38.667 5.5 -73.667 16.5 -105s27.167 -58 48.5 -80s47.5 -39 78.5 -51s66.5 -18 106.5 -18s79.333 5.5 118 16.5
s75.334 25.333 110.001 43s66.5 37.834 95.5 60.501s53.833 45.667 74.5 69v311v0zM1761 -20.001c-70.667 0 -133.002 5.33301 -187.002 16s-100.5 26.167 -139.5 46.5s-70.667 45.5 -95 75.5s-42.166 64.333 -53.499 103c-82 -90 -172.667 -154.833 -272 -194.5
s-210.666 -59.5 -333.999 -59.5c-74 0 -143.667 12.667 -209 38s-122.666 62.5 -171.999 111.5s-88.333 109.333 -117 181s-43 154.167 -43 247.5c0 46 5.5 89.667 16.5 131s31.5 80 61.5 116s71.5 69.333 124.5 100s121.167 58.167 204.5 82.5s184 45.833 302 64.5
s257.333 34 418 46c2 50 3.16699 97.333 3.5 142s0.5 91.667 0.5 141c0 44 -4 81.167 -12 111.5s-20.5 54.833 -37.5 73.5s-38.667 32.167 -65 40.5s-57.833 12.5 -94.5 12.5c-52 0 -105.833 -5.16699 -161.5 -15.5s-111.167 -25.333 -166.5 -45
s-109.666 -43.334 -162.999 -71.001s-104 -59.167 -152 -94.5l-197 303c68.667 50 138.667 94.167 210 132.5s145.833 70.5 223.5 96.5s159.834 45.667 246.501 59s179.667 20 279 20c114.667 0 209.667 -14.5 285 -43.5s135.166 -71 179.499 -126s75.5 -122.333 93.5 -202
s27 -170.167 27 -271.5v-803c0 -36 2.33301 -65 7 -87s16.167 -39.667 34.5 -53s46.166 -24.166 83.499 -32.499s88.666 -16.5 153.999 -24.5l-82 -364c-37.333 -2 -72.833 -3.16699 -106.5 -3.5s-65.167 -0.5 -94.5 -0.5zM1790 2970
c-13.333 -97.333 -33 -180.165 -59 -248.499c-26 -68.333 -57.833 -123.833 -95.5 -166.5s-80.334 -73.667 -128.001 -93s-99.5 -29 -155.5 -29c-40 0 -81.167 2.16699 -123.5 6.5s-84.5 9 -126.5 14s-83.167 9.66699 -123.5 14s-78.5 6.5 -114.5 6.5
c-21.333 0 -39.833 -3.16699 -55.5 -9.5s-29.667 -17.666 -42 -34c-12.333 -16.333 -23.666 -39.166 -33.999 -68.5c-10.333 -29.333 -21.166 -67 -32.499 -113l-303 61c13.333 94 32.833 174.667 58.5 242s57 122.5 94 165.5s79.833 74.667 128.5 95s102.667 30.5 162 30.5
c42 0 83.333 -2.33301 124 -7s80.667 -9.83398 120 -15.5c39.333 -5.66699 77.666 -10.834 114.999 -15.501s73.333 -7 108 -7c22.667 0 42.5 3.33301 59.5 10s32.333 18.5 46 35.5s26.5 40.333 38.5 70s24 67.5 36 113.5l303 -57v0z" />
    <glyph glyph-name="adieresis" unicode="&#xe4;" horiz-adv-x="2089" 
d="M1262 811c-130 -9.33301 -237.001 -20.501 -321.001 -33.501s-150.167 -29 -198.5 -48s-81.833 -41.833 -100.5 -68.5s-28 -58.667 -28 -96c0 -38.667 5.5 -73.667 16.5 -105s27.167 -58 48.5 -80s47.5 -39 78.5 -51s66.5 -18 106.5 -18s79.333 5.5 118 16.5
s75.334 25.333 110.001 43s66.5 37.834 95.5 60.501s53.833 45.667 74.5 69v311v0zM1761 -20.001c-70.667 0 -133.002 5.33301 -187.002 16s-100.5 26.167 -139.5 46.5s-70.667 45.5 -95 75.5s-42.166 64.333 -53.499 103c-82 -90 -172.667 -154.833 -272 -194.5
s-210.666 -59.5 -333.999 -59.5c-74 0 -143.667 12.667 -209 38s-122.666 62.5 -171.999 111.5s-88.333 109.333 -117 181s-43 154.167 -43 247.5c0 46 5.5 89.667 16.5 131s31.5 80 61.5 116s71.5 69.333 124.5 100s121.167 58.167 204.5 82.5s184 45.833 302 64.5
s257.333 34 418 46c2 50 3.16699 97.333 3.5 142s0.5 91.667 0.5 141c0 44 -4 81.167 -12 111.5s-20.5 54.833 -37.5 73.5s-38.667 32.167 -65 40.5s-57.833 12.5 -94.5 12.5c-52 0 -105.833 -5.16699 -161.5 -15.5s-111.167 -25.333 -166.5 -45
s-109.666 -43.334 -162.999 -71.001s-104 -59.167 -152 -94.5l-197 303c68.667 50 138.667 94.167 210 132.5s145.833 70.5 223.5 96.5s159.834 45.667 246.501 59s179.667 20 279 20c114.667 0 209.667 -14.5 285 -43.5s135.166 -71 179.499 -126s75.5 -122.333 93.5 -202
s27 -170.167 27 -271.5v-803c0 -36 2.33301 -65 7 -87s16.167 -39.667 34.5 -53s46.166 -24.166 83.499 -32.499s88.666 -16.5 153.999 -24.5l-82 -364c-37.333 -2 -72.833 -3.16699 -106.5 -3.5s-65.167 -0.5 -94.5 -0.5zM1282 2335v401h463v-401h-463zM417.997 2335v401
h467v-401h-467z" />
    <glyph glyph-name="aring" unicode="&#xe5;" horiz-adv-x="2089" 
d="M1262 811c-130 -9.33301 -237.001 -20.501 -321.001 -33.501s-150.167 -29 -198.5 -48s-81.833 -41.833 -100.5 -68.5s-28 -58.667 -28 -96c0 -38.667 5.5 -73.667 16.5 -105s27.167 -58 48.5 -80s47.5 -39 78.5 -51s66.5 -18 106.5 -18s79.333 5.5 118 16.5
s75.334 25.333 110.001 43s66.5 37.834 95.5 60.501s53.833 45.667 74.5 69v311v0zM1761 -20.001c-70.667 0 -133.002 5.33301 -187.002 16s-100.5 26.167 -139.5 46.5s-70.667 45.5 -95 75.5s-42.166 64.333 -53.499 103c-82 -90 -172.667 -154.833 -272 -194.5
s-210.666 -59.5 -333.999 -59.5c-74 0 -143.667 12.667 -209 38s-122.666 62.5 -171.999 111.5s-88.333 109.333 -117 181s-43 154.167 -43 247.5c0 46 5.5 89.667 16.5 131s31.5 80 61.5 116s71.5 69.333 124.5 100s121.167 58.167 204.5 82.5s184 45.833 302 64.5
s257.333 34 418 46c2 50 3.16699 97.333 3.5 142s0.5 91.667 0.5 141c0 44 -4 81.167 -12 111.5s-20.5 54.833 -37.5 73.5s-38.667 32.167 -65 40.5s-57.833 12.5 -94.5 12.5c-52 0 -105.833 -5.16699 -161.5 -15.5s-111.167 -25.333 -166.5 -45
s-109.666 -43.334 -162.999 -71.001s-104 -59.167 -152 -94.5l-197 303c68.667 50 138.667 94.167 210 132.5s145.833 70.5 223.5 96.5s159.834 45.667 246.501 59s179.667 20 279 20c114.667 0 209.667 -14.5 285 -43.5s135.166 -71 179.499 -126s75.5 -122.333 93.5 -202
s27 -170.167 27 -271.5v-803c0 -36 2.33301 -65 7 -87s16.167 -39.667 34.5 -53s46.166 -24.166 83.499 -32.499s88.666 -16.5 153.999 -24.5l-82 -364c-37.333 -2 -72.833 -3.16699 -106.5 -3.5s-65.167 -0.5 -94.5 -0.5zM1503 2642
c0 -63.333 -10.335 -120.501 -31.002 -171.501s-50.5 -94.5 -89.5 -130.5s-86.333 -63.667 -142 -83s-118.167 -29 -187.5 -29c-135.333 0 -239.5 31.833 -312.5 95.5s-109.5 158.834 -109.5 285.501c0 57.333 10.333 111 31 161s50.334 93.5 89.001 130.5s85.5 66 140.5 87
s116.833 31.5 185.5 31.5c140.667 0 246.834 -31.833 318.501 -95.5s107.5 -157.5 107.5 -281.5zM1229 2630c0 51.333 -12.499 92.166 -37.499 122.5c-25 30.333 -64.5 45.5 -118.5 45.5c-51.333 0 -92.166 -15.333 -122.499 -46s-45.5 -77 -45.5 -139
c0 -55.333 13.667 -97.166 41 -125.5c27.333 -28.333 65.666 -42.5 114.999 -42.5c30.667 0 56.667 4.16699 78 12.5s38.666 20.5 51.999 36.5s23 35.5 29 58.5s9 48.833 9 77.5z" />
    <glyph glyph-name="ae" unicode="&#xe6;" horiz-adv-x="3043" 
d="M1241 471c-9.33301 28 -17.168 54.8311 -23.501 80.498s-11.666 51.834 -15.999 78.501s-7.83301 54.334 -10.5 83.001s-5 60 -7 94c-112 -10 -204.333 -21.5 -277 -34.5s-130.5 -28.833 -173.5 -47.5s-73 -41 -90 -67s-25.5 -57 -25.5 -93
c0 -38.667 5.33301 -73.667 16 -105s26.667 -58 48 -80s47.833 -39 79.5 -51s68.5 -18 110.5 -18c34 0 68.5 4.5 103.5 13.5s68.833 21 101.5 36s63 32 91 51s52.333 38.833 73 59.5zM2068 -29.002c-76 0 -147.835 4.83496 -215.502 14.502s-130.667 24.5 -189 44.5
s-111.5 45.833 -159.5 77.5s-90.667 69.5 -128 113.5c-42.667 -42.667 -90.167 -80 -142.5 -112s-107 -58.5 -164 -79.5s-115.5 -36.667 -175.5 -47s-119 -15.5 -177 -15.5c-86.667 0 -165.667 13.667 -237 41s-132.166 65.833 -182.499 115.5s-89.333 109.167 -117 178.5
s-41.5 146 -41.5 230c0 50.667 5.66699 97.5 17 140.5s31.5 82.333 60.5 118s68.5 68.167 118.5 97.5s113.833 56 191.5 80s170.834 45.333 279.501 64s236 35 382 49c8 74.667 21.5 143.667 40.5 207s40.833 122.666 65.5 177.999c-16 47.333 -45 82.5 -87 105.5
s-90.667 34.5 -146 34.5c-52 0 -105.667 -5.16699 -161 -15.5s-110.333 -25.333 -165 -45s-108.5 -43.334 -161.5 -71.001s-103.5 -59.167 -151.5 -94.5l-197 303c68.667 50 138.334 94.167 209.001 132.5s144.667 70.5 222 96.5s159.166 45.667 245.499 59
s179.166 20 278.499 20c202.667 0 347.334 -53.333 434.001 -160c72 49.333 153.167 86.166 243.5 110.499s187.833 36.5 292.5 36.5c131.333 0 242.166 -20.667 332.5 -62c90.333 -41.333 163.333 -100.5 219 -177.5s95.834 -170.333 120.5 -280
c24.667 -109.667 37 -232.5 37 -368.5c0 -27.333 -0.5 -58.166 -1.5 -92.499s-4.5 -77.5 -10.5 -129.5h-1176c0 -86.667 9 -162.667 27 -228s45.833 -119.5 83.5 -162.5s86 -75.333 145 -97s129.5 -32.5 211.5 -32.5c51.333 0 104.5 4.83301 159.5 14.5
s110 22.834 165 39.501s109.167 36.167 162.5 58.5s104 46.166 152 71.499l119 -331c-56 -36 -116.5 -68.167 -181.5 -96.5s-132.667 -52.5 -203 -72.5s-142.833 -35.167 -217.5 -45.5s-150 -15.5 -226 -15.5zM2413 1167c0 154 -27 267 -81 339s-132.333 108 -235 108
c-56 0 -107.333 -9.33301 -154 -28s-87.5 -46.5 -122.5 -83.5s-63.833 -83.5 -86.5 -139.5s-38 -121.333 -46 -196h725z" />
    <glyph glyph-name="ccedilla" unicode="&#xe7;" horiz-adv-x="1753" 
d="M1528 1536c-66 20.667 -130.999 35.334 -194.999 44.001s-122 13 -174 13c-86.667 0 -161.5 -13 -224.5 -39s-115 -66 -156 -120s-71.167 -122.333 -90.5 -205s-29 -181 -29 -295c0 -94 8.5 -176.333 25.5 -247s43.667 -129.5 80 -176.5s82.666 -82.333 138.999 -106
s123.833 -35.5 202.5 -35.5c80.667 0 159.334 9.66699 236.001 29s152.334 46.333 227.001 81l127 -348c-64 -35.333 -131.667 -64.833 -203 -88.5s-147 -40.5 -227 -50.5c16 -66 28.167 -129.5 36.5 -190.5s12.5 -116.5 12.5 -166.5
c0 -69.333 -13.333 -133.666 -40 -192.999s-71.334 -111 -134.001 -155s-145.834 -79.167 -249.501 -105.5s-232.834 -41.5 -387.501 -45.5l-53 307c91.333 6 165 15.167 221 27.5s99.5 27 130.5 44s51.833 36.333 62.5 58s16 45.5 16 71.5
c0 15.333 -0.833008 34.833 -2.5 58.5s-4 50.334 -7 80.001s-6.83301 61.167 -11.5 94.5s-10 67.666 -16 102.999c-112 11.333 -210.5 37.166 -295.5 77.499s-156.333 97.666 -214 171.999s-101.167 166.5 -130.5 276.5s-44 240.333 -44 391c0 182 23.833 341 71.5 477
s113.834 249 198.501 339s185.334 157.333 302.001 202s244 67 382 67c97.333 0 188.666 -6 273.999 -18s166 -34.667 242 -68z" />
    <glyph glyph-name="egrave" unicode="&#xe8;" horiz-adv-x="2036" 
d="M1876 201c-56 -36 -116.501 -68.1709 -181.501 -96.5039s-132.667 -52.5 -203 -72.5s-142.666 -35.167 -216.999 -45.5s-149.5 -15.5 -225.5 -15.5c-140.667 0 -266 17 -376 51s-203 87.833 -279 161.5s-134 168.334 -174 284.001s-60 254.834 -60 417.501
c0 166.667 21.5 317.334 64.5 452.001s105.833 249.5 188.5 344.5s184.167 168.167 304.5 219.5s257.833 77 412.5 77c131.333 0 242.166 -20.667 332.499 -62s163.333 -100.5 219 -177.5s95.834 -170.333 120.501 -280s37 -232.5 37 -368.5
c0 -27.333 -0.5 -58.166 -1.5 -92.499s-4.5 -77.5 -10.5 -129.5h-1176c0 -86.667 9 -162.667 27 -228s46 -119.5 84 -162.5s86.333 -75.333 145 -97s129 -32.5 211 -32.5c51.333 0 104.5 4.83301 159.5 14.5s110 22.834 165 39.501s109.167 36.167 162.5 58.5
s104 46.166 152 71.499l119 -331v0zM1393 1167c0 154 -27 267 -81 339s-132.333 108 -235 108c-56 0 -107.333 -9.33301 -154 -28s-87.5 -46.5 -122.5 -83.5s-63.833 -83.5 -86.5 -139.5s-38 -121.333 -46 -196h725zM941.999 2261l-565 745l385 86l508 -761z" />
    <glyph glyph-name="eacute" unicode="&#xe9;" horiz-adv-x="2036" 
d="M1876 201c-56 -36 -116.501 -68.1709 -181.501 -96.5039s-132.667 -52.5 -203 -72.5s-142.666 -35.167 -216.999 -45.5s-149.5 -15.5 -225.5 -15.5c-140.667 0 -266 17 -376 51s-203 87.833 -279 161.5s-134 168.334 -174 284.001s-60 254.834 -60 417.501
c0 166.667 21.5 317.334 64.5 452.001s105.833 249.5 188.5 344.5s184.167 168.167 304.5 219.5s257.833 77 412.5 77c131.333 0 242.166 -20.667 332.499 -62s163.333 -100.5 219 -177.5s95.834 -170.333 120.501 -280s37 -232.5 37 -368.5
c0 -27.333 -0.5 -58.166 -1.5 -92.499s-4.5 -77.5 -10.5 -129.5h-1176c0 -86.667 9 -162.667 27 -228s46 -119.5 84 -162.5s86.333 -75.333 145 -97s129 -32.5 211 -32.5c51.333 0 104.5 4.83301 159.5 14.5s110 22.834 165 39.501s109.167 36.167 162.5 58.5
s104 46.166 152 71.499l119 -331v0zM1393 1167c0 154 -27 267 -81 339s-132.333 108 -235 108c-56 0 -107.333 -9.33301 -154 -28s-87.5 -46.5 -122.5 -83.5s-63.833 -83.5 -86.5 -139.5s-38 -121.333 -46 -196h725zM1237 2261l-328 70l504 761l389 -86z" />
    <glyph glyph-name="ecircumflex" unicode="&#xea;" horiz-adv-x="2036" 
d="M1876 201c-56 -36 -116.501 -68.1709 -181.501 -96.5039s-132.667 -52.5 -203 -72.5s-142.666 -35.167 -216.999 -45.5s-149.5 -15.5 -225.5 -15.5c-140.667 0 -266 17 -376 51s-203 87.833 -279 161.5s-134 168.334 -174 284.001s-60 254.834 -60 417.501
c0 166.667 21.5 317.334 64.5 452.001s105.833 249.5 188.5 344.5s184.167 168.167 304.5 219.5s257.833 77 412.5 77c131.333 0 242.166 -20.667 332.499 -62s163.333 -100.5 219 -177.5s95.834 -170.333 120.501 -280s37 -232.5 37 -368.5
c0 -27.333 -0.5 -58.166 -1.5 -92.499s-4.5 -77.5 -10.5 -129.5h-1176c0 -86.667 9 -162.667 27 -228s46 -119.5 84 -162.5s86.333 -75.333 145 -97s129 -32.5 211 -32.5c51.333 0 104.5 4.83301 159.5 14.5s110 22.834 165 39.501s109.167 36.167 162.5 58.5
s104 46.166 152 71.499l119 -331v0zM1393 1167c0 154 -27 267 -81 339s-132.333 108 -235 108c-56 0 -107.333 -9.33301 -154 -28s-87.5 -46.5 -122.5 -83.5s-63.833 -83.5 -86.5 -139.5s-38 -121.333 -46 -196h725zM1327 2269l-258 471l-283 -471l-331 41l491 778h316
l446 -778z" />
    <glyph glyph-name="edieresis" unicode="&#xeb;" horiz-adv-x="2036" 
d="M1876 201c-56 -36 -116.501 -68.1709 -181.501 -96.5039s-132.667 -52.5 -203 -72.5s-142.666 -35.167 -216.999 -45.5s-149.5 -15.5 -225.5 -15.5c-140.667 0 -266 17 -376 51s-203 87.833 -279 161.5s-134 168.334 -174 284.001s-60 254.834 -60 417.501
c0 166.667 21.5 317.334 64.5 452.001s105.833 249.5 188.5 344.5s184.167 168.167 304.5 219.5s257.833 77 412.5 77c131.333 0 242.166 -20.667 332.499 -62s163.333 -100.5 219 -177.5s95.834 -170.333 120.501 -280s37 -232.5 37 -368.5
c0 -27.333 -0.5 -58.166 -1.5 -92.499s-4.5 -77.5 -10.5 -129.5h-1176c0 -86.667 9 -162.667 27 -228s46 -119.5 84 -162.5s86.333 -75.333 145 -97s129 -32.5 211 -32.5c51.333 0 104.5 4.83301 159.5 14.5s110 22.834 165 39.501s109.167 36.167 162.5 58.5
s104 46.166 152 71.499l119 -331v0zM1393 1167c0 154 -27 267 -81 339s-132.333 108 -235 108c-56 0 -107.333 -9.33301 -154 -28s-87.5 -46.5 -122.5 -83.5s-63.833 -83.5 -86.5 -139.5s-38 -121.333 -46 -196h725zM1290 2335v401h463v-401h-463zM425.999 2335v401h467
v-401h-467z" />
    <glyph glyph-name="igrave" unicode="&#xec;" horiz-adv-x="1028" 
d="M270 0v1929l492 29v-1958h-492zM365 2261l-566 745l385 86l508 -761z" />
    <glyph glyph-name="iacute" unicode="&#xed;" horiz-adv-x="1028" 
d="M270 0v1929l492 29v-1958h-492zM639 2261l-328 70l504 761l389 -86z" />
    <glyph glyph-name="icircumflex" unicode="&#xee;" horiz-adv-x="1028" 
d="M279 0v1929l491 29v-1958h-491zM770 2269l-258 471l-283 -471l-331 41l491 778h316l446 -778z" />
    <glyph glyph-name="idieresis" unicode="&#xef;" horiz-adv-x="1028" 
d="M672 2335v401h463v-401h-463zM-111 2335v401h467v-401h-467zM270 0v1929l492 29v-1958h-492z" />
    <glyph glyph-name="eth" unicode="&#xf0;" horiz-adv-x="2122" 
d="M1663 2376c36 -74 68.332 -153.667 96.999 -239s53 -173 73 -263s35.5 -180.333 46.5 -271s16.5 -178.667 16.5 -264c0 -234.667 -21.667 -437.834 -65 -609.501s-106 -313.667 -188 -426s-182 -195.833 -300 -250.5s-251.667 -82 -401 -82
c-134 0 -250.167 17.667 -348.5 53s-179.5 87.833 -243.5 157.5s-111.667 156.334 -143 260.001s-47 224.167 -47 361.5c0 158 19.833 297.333 59.5 418s95.667 222 168 304s159 144 260 186s212.833 63 335.5 63c66 0 130.5 -5.5 193.5 -16.5s125.5 -28.833 187.5 -53.5
c-6 45.333 -14.333 91.166 -25 137.499s-23 92.333 -37 138s-29.667 90.167 -47 133.501c-17.333 43.333 -35.666 84.333 -54.999 123l-446 -172l-82 283l397 152l-59.5 84c-21 28.667 -42.833 56.834 -65.5 84.5l-68.5 80c-23 25.667 -45.833 49.167 -68.5 70.5l377 246
c66 -58 129.333 -122 190 -192s114.667 -141.333 162 -214l336 123l90 -295zM1380 1348c-24.667 10 -51.1689 19.165 -79.502 27.498s-57.166 15.166 -86.499 20.499s-58.5 9.5 -87.5 12.5s-56.5 4.5 -82.5 4.5c-68.667 0 -127 -12.667 -175 -38
s-87.167 -62.166 -117.5 -110.499s-52.5 -108.166 -66.5 -179.499s-21 -153 -21 -245c0 -86.667 6.83301 -161.167 20.5 -223.5s33.667 -113.333 60 -153s58.833 -68.834 97.5 -87.501s83 -28 133 -28c67.333 0 126.333 15.833 177 47.5s92.834 83.834 126.501 156.501
s59 168.334 76 287.001s25.5 265 25.5 439v70z" />
    <glyph glyph-name="ntilde" unicode="&#xf1;" horiz-adv-x="2195" 
d="M1434 0l0.00195312 1343c0 34 -3 64.667 -9 92s-16.167 50.666 -30.5 69.999s-34 34.166 -59 44.499s-56.5 15.5 -94.5 15.5c-32 0 -66.5 -5.5 -103.5 -16.5s-75.833 -27.167 -116.5 -48.5s-82.167 -47.5 -124.5 -78.5s-84.5 -66.5 -126.5 -106.5v-1315h-500v1937l435 29
c6 -14 11.5 -32 16.5 -54s9.5 -46.167 13.5 -72.5s7.66699 -54.166 11 -83.499s6 -59 8 -89c115.333 105.333 231.333 184.166 348 236.499s228.667 78.5 336 78.5c91.333 0 168.666 -11 231.999 -33s114.666 -55.5 153.999 -100.5s68 -101.667 86 -170s27 -148.5 27 -240.5
v-1438h-503zM1815 2970c-13.333 -97.333 -33.165 -180.166 -59.498 -248.5c-26.333 -68.333 -58.166 -123.833 -95.499 -166.5s-79.833 -73.667 -127.5 -93s-99.834 -29 -156.501 -29c-40 0 -81 2.16699 -123 6.5s-84 9 -126 14s-83.167 9.66699 -123.5 14
s-78.5 6.5 -114.5 6.5c-21.333 0 -39.833 -3.16699 -55.5 -9.5s-29.667 -17.666 -42 -34c-12.333 -16.333 -23.666 -39.166 -33.999 -68.5c-10.333 -29.333 -21.166 -67 -32.499 -113l-303 61c13.333 94 32.666 174.667 57.999 242s56.666 122.5 93.999 165.5
s80.166 74.667 128.499 95s102.166 30.5 161.499 30.5c42 0 83.5 -2.33301 124.5 -7s81 -9.83398 120 -15.5c39 -5.66699 77.167 -10.834 114.5 -15.5c37.333 -4.66699 73.333 -7 108 -7c22.667 0 42.5 3.33301 59.5 10s32.333 18.5 46 35.5s26.5 40.333 38.5 70
s24 67.5 36 113.5l304 -57v0z" />
    <glyph glyph-name="ograve" unicode="&#xf2;" 
d="M2040 1016c0 -152.667 -21 -293.166 -63 -421.499s-104.333 -239 -187 -332s-184.834 -165.5 -306.501 -217.5s-262.5 -78 -422.5 -78c-302.667 0 -528.5 80 -677.5 240s-223.5 403.667 -223.5 731c0 156 22.5 298 67.5 426s109.833 237.833 194.5 329.5
s187.334 162.667 308.001 213s257 75.5 409 75.5c151.333 0 283.5 -19 396.5 -57s206.833 -96.5 281.5 -175.5s130.5 -179.333 167.5 -301s55.5 -265.834 55.5 -432.501zM1524 991.001c0 104.667 -7.66895 196.331 -23.002 274.998s-39.666 144.334 -72.999 197.001
s-76.166 92.334 -128.499 119.001s-115.5 40 -189.5 40c-67.333 0 -127.833 -13.667 -181.5 -41s-99.167 -68 -136.5 -122s-66 -121.167 -86 -201.5s-30 -173.166 -30 -278.499c0 -122.667 9 -225.834 27 -309.501s44.667 -151.167 80 -202.5s79 -88 131 -110
s112 -33 180 -33c74 0 138 14.333 192 43s98.667 71.167 134 127.5s61.5 126 78.5 209s25.5 178.833 25.5 287.5zM957.998 2261l-565 745l385 86l508 -761z" />
    <glyph glyph-name="oacute" unicode="&#xf3;" 
d="M2040 1016c0 -152.667 -21 -293.166 -63 -421.499s-104.333 -239 -187 -332s-184.834 -165.5 -306.501 -217.5s-262.5 -78 -422.5 -78c-302.667 0 -528.5 80 -677.5 240s-223.5 403.667 -223.5 731c0 156 22.5 298 67.5 426s109.833 237.833 194.5 329.5
s187.334 162.667 308.001 213s257 75.5 409 75.5c151.333 0 283.5 -19 396.5 -57s206.833 -96.5 281.5 -175.5s130.5 -179.333 167.5 -301s55.5 -265.834 55.5 -432.501zM1524 991.001c0 104.667 -7.66895 196.331 -23.002 274.998s-39.666 144.334 -72.999 197.001
s-76.166 92.334 -128.499 119.001s-115.5 40 -189.5 40c-67.333 0 -127.833 -13.667 -181.5 -41s-99.167 -68 -136.5 -122s-66 -121.167 -86 -201.5s-30 -173.166 -30 -278.499c0 -122.667 9 -225.834 27 -309.501s44.667 -151.167 80 -202.5s79 -88 131 -110
s112 -33 180 -33c74 0 138 14.333 192 43s98.667 71.167 134 127.5s61.5 126 78.5 209s25.5 178.833 25.5 287.5zM1253 2261l-327 70l504 761l389 -86z" />
    <glyph glyph-name="ocircumflex" unicode="&#xf4;" 
d="M2040 1016c0 -152.667 -21 -293.166 -63 -421.499s-104.333 -239 -187 -332s-184.834 -165.5 -306.501 -217.5s-262.5 -78 -422.5 -78c-302.667 0 -528.5 80 -677.5 240s-223.5 403.667 -223.5 731c0 156 22.5 298 67.5 426s109.833 237.833 194.5 329.5
s187.334 162.667 308.001 213s257 75.5 409 75.5c151.333 0 283.5 -19 396.5 -57s206.833 -96.5 281.5 -175.5s130.5 -179.333 167.5 -301s55.5 -265.834 55.5 -432.501zM1524 991.001c0 104.667 -7.66895 196.331 -23.002 274.998s-39.666 144.334 -72.999 197.001
s-76.166 92.334 -128.499 119.001s-115.5 40 -189.5 40c-67.333 0 -127.833 -13.667 -181.5 -41s-99.167 -68 -136.5 -122s-66 -121.167 -86 -201.5s-30 -173.166 -30 -278.499c0 -122.667 9 -225.834 27 -309.501s44.667 -151.167 80 -202.5s79 -88 131 -110
s112 -33 180 -33c74 0 138 14.333 192 43s98.667 71.167 134 127.5s61.5 126 78.5 209s25.5 178.833 25.5 287.5zM1393 2269l-258 471l-283 -471l-332 41l492 778h315l447 -778z" />
    <glyph glyph-name="otilde" unicode="&#xf5;" 
d="M2040 1016c0 -152.667 -21 -293.166 -63 -421.499s-104.333 -239 -187 -332s-184.834 -165.5 -306.501 -217.5s-262.5 -78 -422.5 -78c-302.667 0 -528.5 80 -677.5 240s-223.5 403.667 -223.5 731c0 156 22.5 298 67.5 426s109.833 237.833 194.5 329.5
s187.334 162.667 308.001 213s257 75.5 409 75.5c151.333 0 283.5 -19 396.5 -57s206.833 -96.5 281.5 -175.5s130.5 -179.333 167.5 -301s55.5 -265.834 55.5 -432.501zM1524 991.001c0 104.667 -7.66895 196.331 -23.002 274.998s-39.666 144.334 -72.999 197.001
s-76.166 92.334 -128.499 119.001s-115.5 40 -189.5 40c-67.333 0 -127.833 -13.667 -181.5 -41s-99.167 -68 -136.5 -122s-66 -121.167 -86 -201.5s-30 -173.166 -30 -278.499c0 -122.667 9 -225.834 27 -309.501s44.667 -151.167 80 -202.5s79 -88 131 -110
s112 -33 180 -33c74 0 138 14.333 192 43s98.667 71.167 134 127.5s61.5 126 78.5 209s25.5 178.833 25.5 287.5zM1847 2970c-13.333 -97.333 -33 -180.166 -59 -248.5c-26 -68.333 -57.833 -123.833 -95.5 -166.5s-80.334 -73.667 -128.001 -93s-99.5 -29 -155.5 -29
c-40 0 -81.167 2.16699 -123.5 6.5s-84.5 9 -126.5 14l-123 14c-40 4.33301 -78 6.5 -114 6.5c-21.333 0 -39.833 -3.16699 -55.5 -9.5s-29.667 -17.666 -42 -34c-12.333 -16.333 -23.666 -39.166 -33.999 -68.5c-10.333 -29.333 -21.166 -67 -32.499 -113l-303 61
c13.333 94 32.666 174.667 57.999 242s56.5 122.5 93.5 165.5s79.833 74.667 128.5 95s102.667 30.5 162 30.5c42 0 83.5 -2.33301 124.5 -7s81 -9.83398 120 -15.5c39 -5.66699 77.167 -10.834 114.5 -15.5c37.333 -4.66699 73.333 -7 108 -7
c22.667 0 42.5 3.33301 59.5 10s32.333 18.5 46 35.5s26.5 40.333 38.5 70s24 67.5 36 113.5l303 -57v0z" />
    <glyph glyph-name="odieresis" unicode="&#xf6;" 
d="M2040 1016c0 -152.667 -21 -293.166 -63 -421.499s-104.333 -239 -187 -332s-184.834 -165.5 -306.501 -217.5s-262.5 -78 -422.5 -78c-302.667 0 -528.5 80 -677.5 240s-223.5 403.667 -223.5 731c0 156 22.5 298 67.5 426s109.833 237.833 194.5 329.5
s187.334 162.667 308.001 213s257 75.5 409 75.5c151.333 0 283.5 -19 396.5 -57s206.833 -96.5 281.5 -175.5s130.5 -179.333 167.5 -301s55.5 -265.834 55.5 -432.501zM1524 991.001c0 104.667 -7.66895 196.331 -23.002 274.998s-39.666 144.334 -72.999 197.001
s-76.166 92.334 -128.499 119.001s-115.5 40 -189.5 40c-67.333 0 -127.833 -13.667 -181.5 -41s-99.167 -68 -136.5 -122s-66 -121.167 -86 -201.5s-30 -173.166 -30 -278.499c0 -122.667 9 -225.834 27 -309.501s44.667 -151.167 80 -202.5s79 -88 131 -110
s112 -33 180 -33c74 0 138 14.333 192 43s98.667 71.167 134 127.5s61.5 126 78.5 209s25.5 178.833 25.5 287.5zM1323 2335v401h463v-401h-463zM458.998 2335v401h467v-401h-467z" />
    <glyph glyph-name="divide" unicode="&#xf7;" horiz-adv-x="2249" 
d="M1343 1688c0 -31.333 -5.66699 -60 -17 -86s-27.333 -49.333 -48 -70c-20.667 -22.667 -44 -39.334 -70 -50.001s-54.667 -16 -86 -16c-30.667 0 -59 5.33301 -85 16s-49.333 27.334 -70 50.001c-22.667 20.667 -39.334 44 -50.001 70s-16 54.667 -16 86
c0 30.667 5.33301 59 16 85s27.334 49.333 50.001 70c20.667 22.667 44 39.334 70 50.001s54.333 16 85 16c31.333 0 60 -5.33301 86 -16s49.333 -27.334 70 -50.001c20.667 -20.667 36.667 -44 48 -70s17 -54.333 17 -85zM2175 1151v-197h-2101v197h2101zM1348 410
c0 -31.333 -5.83398 -60.166 -17.501 -86.499s-27.834 -50.833 -48.501 -73.5c-22.667 -20.667 -47.167 -36.834 -73.5 -48.501s-55.166 -17.5 -86.499 -17.5c-30.667 0 -58.5 5.83301 -83.5 17.5s-48.833 27.834 -71.5 48.501c-20.667 22.667 -36.834 47.167 -48.501 73.5
s-17.5 55.166 -17.5 86.499c0 30.667 5.83301 58.5 17.5 83.5s27.834 48.833 48.501 71.5c44 44 95.667 66 155 66c62.667 0 116 -22 160 -66c20.667 -22.667 36.834 -46.5 48.501 -71.5s17.5 -52.833 17.5 -83.5z" />
    <glyph glyph-name="oslash" unicode="&#xf8;" 
d="M1659 1872c127.333 -71.333 222.669 -177.5 286.002 -318.5s95 -320.167 95 -537.5c0 -152.667 -21 -293.167 -63 -421.5s-104.333 -239 -187 -332s-184.834 -165.5 -306.501 -217.5s-262.5 -78 -422.5 -78c-41.333 0 -80.5 1.66699 -117.5 5s-72.833 7.33301 -107.5 12
l-168 -394h-328l209 484c-132 72 -229.833 179.5 -293.5 322.5s-95.5 323.5 -95.5 541.5c0 156 22.5 298 67.5 426s109.833 237.833 194.5 329.5s187.334 162.667 308.001 213s257 75.5 409 75.5c41.333 0 81.166 -1.83301 119.499 -5.5s76.166 -8.5 113.499 -14.5l197 455
h327zM676.003 979c0 -101.333 6.66895 -191.001 20.002 -269.001s31.333 -142.667 54 -194l475 1094c-16.667 4 -35.334 7 -56.001 9s-40.334 3 -59.001 3c-67.333 0 -127.833 -13.667 -181.5 -41s-99.167 -68 -136.5 -122s-66 -121.167 -86 -201.5
s-30 -173.166 -30 -278.499zM1524 990.999c0 86.667 -6.66895 165.833 -20.002 237.5s-31.333 133.167 -54 184.5l-471 -1081c16.667 -2 35.334 -3.83301 56.001 -5.5s40.334 -2.5 59.001 -2.5c74 0 138 14.333 192 43s98.667 71.167 134 127.5s61.5 126 78.5 209
s25.5 178.833 25.5 287.5z" />
    <glyph glyph-name="ugrave" unicode="&#xf9;" horiz-adv-x="2187" 
d="M1479 -16c-6 14 -11.835 32.499 -17.502 55.499s-10.667 47.5 -15 73.5s-7.83301 52.333 -10.5 79s-4.66699 51.334 -6 74.001c-56.667 -51.333 -113.5 -95.833 -170.5 -133.5s-113.833 -68.667 -170.5 -93s-112.667 -42.5 -168 -54.5s-109.666 -18 -162.999 -18
c-93.333 0 -171.833 12 -235.5 36s-115.167 59.167 -154.5 105.5s-67.5 104 -84.5 173s-25.5 148.5 -25.5 238.5v1409l504 21v-1348c0 -34.667 3.5 -65.667 10.5 -93s18.5 -50.5 34.5 -69.5s36.833 -33.5 62.5 -43.5s56.834 -15 93.501 -15c61.333 0 130 18.167 206 54.5
s157.333 94.5 244 174.5v1315l504 25v-1942zM933.998 2261l-565 745l385 86l508 -761z" />
    <glyph glyph-name="uacute" unicode="&#xfa;" horiz-adv-x="2187" 
d="M1479 -16c-6 14 -11.835 32.499 -17.502 55.499s-10.667 47.5 -15 73.5s-7.83301 52.333 -10.5 79s-4.66699 51.334 -6 74.001c-56.667 -51.333 -113.5 -95.833 -170.5 -133.5s-113.833 -68.667 -170.5 -93s-112.667 -42.5 -168 -54.5s-109.666 -18 -162.999 -18
c-93.333 0 -171.833 12 -235.5 36s-115.167 59.167 -154.5 105.5s-67.5 104 -84.5 173s-25.5 148.5 -25.5 238.5v1409l504 21v-1348c0 -34.667 3.5 -65.667 10.5 -93s18.5 -50.5 34.5 -69.5s36.833 -33.5 62.5 -43.5s56.834 -15 93.501 -15c61.333 0 130 18.167 206 54.5
s157.333 94.5 244 174.5v1315l504 25v-1942zM1233 2261l-328 70l504 761l389 -86z" />
    <glyph glyph-name="ucircumflex" unicode="&#xfb;" horiz-adv-x="2187" 
d="M1479 -16c-6 14 -11.835 32.499 -17.502 55.499s-10.667 47.5 -15 73.5s-7.83301 52.333 -10.5 79s-4.66699 51.334 -6 74.001c-56.667 -51.333 -113.5 -95.833 -170.5 -133.5s-113.833 -68.667 -170.5 -93s-112.667 -42.5 -168 -54.5s-109.666 -18 -162.999 -18
c-93.333 0 -171.833 12 -235.5 36s-115.167 59.167 -154.5 105.5s-67.5 104 -84.5 173s-25.5 148.5 -25.5 238.5v1409l504 21v-1348c0 -34.667 3.5 -65.667 10.5 -93s18.5 -50.5 34.5 -69.5s36.833 -33.5 62.5 -43.5s56.834 -15 93.501 -15c61.333 0 130 18.167 206 54.5
s157.333 94.5 244 174.5v1315l504 25v-1942zM1331 2269l-258 471l-282 -471l-332 41l491 778h316l446 -778z" />
    <glyph glyph-name="udieresis" unicode="&#xfc;" horiz-adv-x="2187" 
d="M1479 -16c-6 14 -11.835 32.499 -17.502 55.499s-10.667 47.5 -15 73.5s-7.83301 52.333 -10.5 79s-4.66699 51.334 -6 74.001c-56.667 -51.333 -113.5 -95.833 -170.5 -133.5s-113.833 -68.667 -170.5 -93s-112.667 -42.5 -168 -54.5s-109.666 -18 -162.999 -18
c-93.333 0 -171.833 12 -235.5 36s-115.167 59.167 -154.5 105.5s-67.5 104 -84.5 173s-25.5 148.5 -25.5 238.5v1409l504 21v-1348c0 -34.667 3.5 -65.667 10.5 -93s18.5 -50.5 34.5 -69.5s36.833 -33.5 62.5 -43.5s56.834 -15 93.501 -15c61.333 0 130 18.167 206 54.5
s157.333 94.5 244 174.5v1315l504 25v-1942zM1298 2335v401h463v-401h-463zM433.998 2335v401h467v-401h-467z" />
    <glyph glyph-name="yacute" unicode="&#xfd;" horiz-adv-x="1937" 
d="M946 725c14.667 -41.333 24.5 -79.166 29.5 -113.499s7.5 -64.833 7.5 -91.5c0 26.667 2.5 57.667 7.5 93s14.833 72.666 29.5 111.999l442 1208h455l-934 -2351c-30.667 -78 -67.167 -144.667 -109.5 -200s-94.5 -101.5 -156.5 -138.5s-135.667 -65.5 -221 -85.5
s-186.333 -33 -303 -39l-78 361c82 9.33301 150.333 20.5 205 33.5s100 29 136 48s64.833 41.833 86.5 68.5s40.167 58.667 55.5 96l119 290l-692 1917h503zM1130 2261l-327 70l504 761l389 -86z" />
    <glyph glyph-name="thorn" unicode="&#xfe;" horiz-adv-x="2212" 
d="M758 1741c84.667 78 175.499 138.498 272.499 181.498s201.167 64.5 312.5 64.5c108 0 205.667 -18.167 293 -54.5s161.833 -92.666 223.5 -168.999s109.167 -173.5 142.5 -291.5s50 -259 50 -423c0 -99.333 -7.83301 -194.666 -23.5 -285.999s-40 -176.333 -73 -255
s-75.167 -150 -126.5 -214s-112.666 -118.667 -183.999 -164s-153 -80.333 -245 -105s-195.333 -37 -310 -37c-26.667 0 -55.167 0.833008 -85.5 2.5s-60 4.16699 -89 7.5s-56.5 8 -82.5 14s-48.333 13 -67 21v-840l-504 -29v3425l496 28v-876zM1544 994.998
c0 92 -8 174.167 -24 246.5s-39.833 133.333 -71.5 183s-71.334 87.5 -119.001 113.5s-103.167 39 -166.5 39c-38.667 0 -76.167 -5 -112.5 -15s-71.166 -23.333 -104.499 -40s-65 -35.834 -95 -57.501s-58.333 -44.167 -85 -67.5v-1000
c43.333 -18.667 92.833 -34.167 148.5 -46.5s111.167 -18.5 166.5 -18.5c154 0 269.667 53.833 347 161.5s116 274.834 116 501.501z" />
    <glyph glyph-name="ydieresis" unicode="&#xff;" horiz-adv-x="1937" 
d="M946 725c14.667 -41.333 24.5 -79.166 29.5 -113.499s7.5 -64.833 7.5 -91.5c0 26.667 2.5 57.667 7.5 93s14.833 72.666 29.5 111.999l442 1208h455l-934 -2351c-30.667 -78 -67.167 -144.667 -109.5 -200s-94.5 -101.5 -156.5 -138.5s-135.667 -65.5 -221 -85.5
s-186.333 -33 -303 -39l-78 361c82 9.33301 150.333 20.5 205 33.5s100 29 136 48s64.833 41.833 86.5 68.5s40.167 58.667 55.5 96l119 290l-692 1917h503zM1188 2335v401h463v-401h-463zM324 2335v401h467v-401h-467z" />
    <glyph glyph-name="Amacron" unicode="&#x100;" horiz-adv-x="2572" 
d="M1987 0l-254 754h-947l-274 -754h-504l1041 2826h495l1008 -2826h-565zM897 1098h725l-311 950c-14.667 41.333 -24.5 81.166 -29.5 119.5c-5 38.333 -7.5 70.833 -7.5 97.5c0 -26.667 -4 -59.667 -12 -99s-19 -78.666 -33 -118zM1966 3301h-1311l25 336h1311z" />
    <glyph glyph-name="amacron" unicode="&#x101;" horiz-adv-x="2089" 
d="M1262 811c-130 -9.33301 -237.001 -20.501 -321.001 -33.501s-150.167 -29 -198.5 -48s-81.833 -41.833 -100.5 -68.5s-28 -58.667 -28 -96c0 -38.667 5.5 -73.667 16.5 -105s27.167 -58 48.5 -80s47.5 -39 78.5 -51s66.5 -18 106.5 -18s79.333 5.5 118 16.5
s75.334 25.333 110.001 43s66.5 37.834 95.5 60.501s53.833 45.667 74.5 69v311v0zM1761 -20.001c-70.667 0 -133.002 5.33301 -187.002 16s-100.5 26.167 -139.5 46.5s-70.667 45.5 -95 75.5s-42.166 64.333 -53.499 103c-82 -90 -172.667 -154.833 -272 -194.5
s-210.666 -59.5 -333.999 -59.5c-74 0 -143.667 12.667 -209 38s-122.666 62.5 -171.999 111.5s-88.333 109.333 -117 181s-43 154.167 -43 247.5c0 46 5.5 89.667 16.5 131s31.5 80 61.5 116s71.5 69.333 124.5 100s121.167 58.167 204.5 82.5s184 45.833 302 64.5
s257.333 34 418 46c2 50 3.16699 97.333 3.5 142s0.5 91.667 0.5 141c0 44 -4 81.167 -12 111.5s-20.5 54.833 -37.5 73.5s-38.667 32.167 -65 40.5s-57.833 12.5 -94.5 12.5c-52 0 -105.833 -5.16699 -161.5 -15.5s-111.167 -25.333 -166.5 -45
s-109.666 -43.334 -162.999 -71.001s-104 -59.167 -152 -94.5l-197 303c68.667 50 138.667 94.167 210 132.5s145.833 70.5 223.5 96.5s159.834 45.667 246.501 59s179.667 20 279 20c114.667 0 209.667 -14.5 285 -43.5s135.166 -71 179.499 -126s75.5 -122.333 93.5 -202
s27 -170.167 27 -271.5v-803c0 -36 2.33301 -65 7 -87s16.167 -39.667 34.5 -53s46.166 -24.166 83.499 -32.499s88.666 -16.5 153.999 -24.5l-82 -364c-37.333 -2 -72.833 -3.16699 -106.5 -3.5s-65.167 -0.5 -94.5 -0.5zM1724 2413h-1310l24 335h1311z" />
    <glyph glyph-name="Abreve" unicode="&#x102;" horiz-adv-x="2572" 
d="M1987 0l-254 754h-947l-274 -754h-504l1041 2826h495l1008 -2826h-565zM897 1098h725l-311 950c-14.667 41.333 -24.5 81.166 -29.5 119.5c-5 38.333 -7.5 70.833 -7.5 97.5c0 -26.667 -4 -59.667 -12 -99s-19 -78.666 -33 -118zM1012 3822
c6 -62.667 14.834 -113.5 26.501 -152.5s28.5 -69.333 50.5 -91s49.833 -36.334 83.5 -44c33.667 -7.66699 75.5 -11.5 125.5 -11.5c49.333 0 91 4.66699 125 14s62 25.333 84 48s38.833 53.167 50.5 91.5s19.5 86.833 23.5 145.5l328 -37c-2 -98.667 -18 -185 -48 -259
s-72.167 -135.833 -126.5 -185.5s-120.333 -87 -198 -112s-165.167 -37.5 -262.5 -37.5c-90 0 -171.333 11 -244 33s-134.834 56.833 -186.501 104.5s-92.167 109 -121.5 184s-46 165.833 -50 272.5z" />
    <glyph glyph-name="abreve" unicode="&#x103;" horiz-adv-x="2089" 
d="M1262 811c-130 -9.33301 -237.001 -20.501 -321.001 -33.501s-150.167 -29 -198.5 -48s-81.833 -41.833 -100.5 -68.5s-28 -58.667 -28 -96c0 -38.667 5.5 -73.667 16.5 -105s27.167 -58 48.5 -80s47.5 -39 78.5 -51s66.5 -18 106.5 -18s79.333 5.5 118 16.5
s75.334 25.333 110.001 43s66.5 37.834 95.5 60.501s53.833 45.667 74.5 69v311v0zM1761 -20.001c-70.667 0 -133.002 5.33301 -187.002 16s-100.5 26.167 -139.5 46.5s-70.667 45.5 -95 75.5s-42.166 64.333 -53.499 103c-82 -90 -172.667 -154.833 -272 -194.5
s-210.666 -59.5 -333.999 -59.5c-74 0 -143.667 12.667 -209 38s-122.666 62.5 -171.999 111.5s-88.333 109.333 -117 181s-43 154.167 -43 247.5c0 46 5.5 89.667 16.5 131s31.5 80 61.5 116s71.5 69.333 124.5 100s121.167 58.167 204.5 82.5s184 45.833 302 64.5
s257.333 34 418 46c2 50 3.16699 97.333 3.5 142s0.5 91.667 0.5 141c0 44 -4 81.167 -12 111.5s-20.5 54.833 -37.5 73.5s-38.667 32.167 -65 40.5s-57.833 12.5 -94.5 12.5c-52 0 -105.833 -5.16699 -161.5 -15.5s-111.167 -25.333 -166.5 -45
s-109.666 -43.334 -162.999 -71.001s-104 -59.167 -152 -94.5l-197 303c68.667 50 138.667 94.167 210 132.5s145.833 70.5 223.5 96.5s159.834 45.667 246.501 59s179.667 20 279 20c114.667 0 209.667 -14.5 285 -43.5s135.166 -71 179.499 -126s75.5 -122.333 93.5 -202
s27 -170.167 27 -271.5v-803c0 -36 2.33301 -65 7 -87s16.167 -39.667 34.5 -53s46.166 -24.166 83.499 -32.499s88.666 -16.5 153.999 -24.5l-82 -364c-37.333 -2 -72.833 -3.16699 -106.5 -3.5s-65.167 -0.5 -94.5 -0.5zM790.997 2933
c6 -62.667 14.833 -113.499 26.5 -152.499s28.5 -69.333 50.5 -91s49.833 -36.334 83.5 -44.001s75.5 -11.5 125.5 -11.5c49.333 0 91 4.66699 125 14s62 25.333 84 48s38.833 53.167 50.5 91.5s19.5 86.833 23.5 145.5l328 -37c-2 -98 -18 -184.167 -48 -258.5
s-72.333 -136.333 -127 -186s-120.667 -87 -198 -112s-164.666 -37.5 -261.999 -37.5c-90 0 -171.333 11 -244 33s-134.834 56.833 -186.501 104.5s-92.167 109 -121.5 184s-46 165.833 -50 272.5z" />
    <glyph glyph-name="Aogonek" unicode="&#x104;" horiz-adv-x="2572" 
d="M2269 -889c-109.333 15.333 -201 35.668 -275 61.001s-133.333 56 -178 92s-76.5 77.333 -95.5 124s-28.5 99 -28.5 157c0 32.667 4 64.667 12 96s22.667 64.666 44 99.999s50.833 74.166 88.5 116.499s86.167 91.166 145.5 146.499l-249 750h-947l-274 -754h-504
l1041 2826h495l1008 -2826h-160c-49.333 -59.333 -89.5 -110.666 -120.5 -153.999s-55.167 -81.333 -72.5 -114s-29.166 -61.167 -35.5 -85.5c-6.33301 -24.333 -9.5 -47.166 -9.5 -68.499s2.66699 -40 8 -56s15.666 -30.5 31 -43.5c15.333 -13 37 -24.833 65 -35.5
s64.333 -21.667 109 -33zM897 1098h725l-311 950c-14.667 41.333 -24.5 81.166 -29.5 119.5c-5 38.333 -7.5 70.833 -7.5 97.5c0 -26.667 -4 -59.667 -12 -99s-19 -78.666 -33 -118z" />
    <glyph glyph-name="aogonek" unicode="&#x105;" horiz-adv-x="2089" 
d="M1733 -889c-110 15.333 -201.831 35.667 -275.498 61s-133 56 -178 92s-77 77.333 -96 124s-28.5 99 -28.5 157c0 34 4.16699 67 12.5 99s23.833 66.333 46.5 103s54.167 77.334 94.5 122.001s92.833 96.667 157.5 156c-49.333 20.667 -88.5 47.167 -117.5 79.5
s-49.833 71.166 -62.5 116.499c-82 -90 -172.667 -154.833 -272 -194.5s-210.666 -59.5 -333.999 -59.5c-74 0 -143.667 12.667 -209 38s-122.666 62.5 -171.999 111.5s-88.333 109.333 -117 181s-43 154.167 -43 247.5c0 46 5.5 89.667 16.5 131s31.5 80 61.5 116
s71.5 69.333 124.5 100s121.167 58.167 204.5 82.5s184 45.833 302 64.5s257.333 34 418 46c2 50 3.16699 97.333 3.5 142s0.5 91.667 0.5 141c0 44 -4 81.167 -12 111.5s-20.5 54.833 -37.5 73.5s-38.667 32.167 -65 40.5s-57.833 12.5 -94.5 12.5
c-52 0 -105.833 -5.16699 -161.5 -15.5s-111.167 -25.333 -166.5 -45s-109.666 -43.334 -162.999 -71.001s-104 -59.167 -152 -94.5l-197 303c68.667 50 138.667 94.167 210 132.5s145.833 70.5 223.5 96.5s159.834 45.667 246.501 59s179.667 20 279 20
c114.667 0 209.667 -14.5 285 -43.5s135.166 -71 179.499 -126s75.5 -122.333 93.5 -202s27 -170.167 27 -271.5v-803c0 -36 2.33301 -65 7 -87s16.167 -39.667 34.5 -53s46.166 -24.166 83.499 -32.499s88.666 -16.5 153.999 -24.5l-82 -364
c-22.667 0 -44.334 -0.666992 -65.001 -2s-41.334 -2 -62.001 -2c-44.667 -55.333 -81.167 -103.666 -109.5 -144.999s-50.5 -77.5 -66.5 -108.5s-26.833 -58.333 -32.5 -82s-8.5 -45.834 -8.5 -66.501c0 -21.333 2.66699 -40 8 -56s15.666 -30.5 30.999 -43.5
s37 -24.833 65 -35.5s64.333 -21.667 109 -33zM1262 811.001c-130 -9.33301 -237.001 -20.501 -321.001 -33.501s-150.167 -29 -198.5 -48s-81.833 -41.833 -100.5 -68.5s-28 -58.667 -28 -96c0 -38.667 5.5 -73.667 16.5 -105s27.167 -58 48.5 -80s47.5 -39 78.5 -51
s66.5 -18 106.5 -18s79.333 5.5 118 16.5s75.334 25.333 110.001 43s66.5 37.834 95.5 60.501s53.833 45.667 74.5 69v311v0z" />
    <glyph glyph-name="Cacute" unicode="&#x106;" horiz-adv-x="2466" 
d="M1741 2388c-28 7.33301 -53.333 13.332 -76 17.999s-44.834 8.5 -66.501 11.5s-43.334 5 -65.001 6s-45.5 1.5 -71.5 1.5c-116.667 0 -221.334 -20.833 -314.001 -62.5s-171.167 -105 -235.5 -190s-113.666 -192 -147.999 -321s-51.5 -280.5 -51.5 -454.5
c0 -130.667 8.83301 -245.834 26.5 -345.501s42.667 -186.167 75 -259.5s70.833 -134.666 115.5 -183.999s94 -89 148 -119s111.833 -51.333 173.5 -64s125.167 -19 190.5 -19c67.333 0 134 5.16699 200 15.5s130.5 25 193.5 44s124.667 41.833 185 68.5
s118.5 56.334 174.5 89.001l140 -381c-70.667 -42.667 -142.334 -80.834 -215 -114.501c-72.667 -33.667 -149.167 -62.167 -229.5 -85.5s-165.666 -41 -255.999 -53s-188.833 -18 -295.5 -18c-191.333 0 -360 27 -506 81s-268.167 137.333 -366.5 250
s-172.666 255.834 -222.999 429.501s-75.5 380.5 -75.5 620.5c0 231.333 28.667 439.5 86 624.5s140.666 342.333 249.999 472s243.833 229.167 403.5 298.5s341.834 104 546.501 104c91.333 0 173.5 -3.16699 246.5 -9.5s140.5 -15.666 202.5 -28
c62 -12.333 120.667 -28 176 -47s110.666 -41.5 166 -67.5l-54 -856l-438 -24zM1573 3150l-328 69l504 762l389 -86z" />
    <glyph glyph-name="cacute" unicode="&#x107;" horiz-adv-x="1753" 
d="M1528 1536c-66 20.667 -131.003 35.333 -195.003 44s-122 13 -174 13c-86.667 0 -161.5 -13 -224.5 -39s-115 -66 -156 -120s-71.167 -122.333 -90.5 -205s-29 -181 -29 -295c0 -94 8.5 -176.333 25.5 -247s43.667 -129.5 80 -176.5s82.666 -82.333 138.999 -106
s123.833 -35.5 202.5 -35.5c80.667 0 159.334 9.66699 236.001 29s152.334 46.333 227.001 81l127 -348c-95.333 -51.333 -200 -90.833 -314 -118.5s-240 -41.5 -378 -41.5c-137.333 0 -258.5 17 -363.5 51s-193.167 88 -264.5 162s-125.166 169.667 -161.499 287
s-54.5 259.333 -54.5 426c0 182 23.833 341 71.5 477s113.834 249 198.501 339s185.334 157.333 302.001 202s244 67 382 67c97.333 0 188.666 -6 273.999 -18s166 -34.667 242 -68zM1180 2261l-328 70l504 761l389 -86z" />
    <glyph glyph-name="Ccircumflex" unicode="&#x108;" horiz-adv-x="2466" 
d="M1741 2388c-28 7.33301 -53.333 13.332 -76 17.999s-44.834 8.5 -66.501 11.5s-43.334 5 -65.001 6s-45.5 1.5 -71.5 1.5c-116.667 0 -221.334 -20.833 -314.001 -62.5s-171.167 -105 -235.5 -190s-113.666 -192 -147.999 -321s-51.5 -280.5 -51.5 -454.5
c0 -130.667 8.83301 -245.834 26.5 -345.501s42.667 -186.167 75 -259.5s70.833 -134.666 115.5 -183.999s94 -89 148 -119s111.833 -51.333 173.5 -64s125.167 -19 190.5 -19c67.333 0 134 5.16699 200 15.5s130.5 25 193.5 44s124.667 41.833 185 68.5
s118.5 56.334 174.5 89.001l140 -381c-70.667 -42.667 -142.334 -80.834 -215 -114.501c-72.667 -33.667 -149.167 -62.167 -229.5 -85.5s-165.666 -41 -255.999 -53s-188.833 -18 -295.5 -18c-191.333 0 -360 27 -506 81s-268.167 137.333 -366.5 250
s-172.666 255.834 -222.999 429.501s-75.5 380.5 -75.5 620.5c0 231.333 28.667 439.5 86 624.5s140.666 342.333 249.999 472s243.833 229.167 403.5 298.5s341.834 104 546.501 104c91.333 0 173.5 -3.16699 246.5 -9.5s140.5 -15.666 202.5 -28
c62 -12.333 120.667 -28 176 -47s110.666 -41.5 166 -67.5l-54 -856l-438 -24zM1675 3138l-258 471l-282 -471l-332 40l491 779h316l446 -779z" />
    <glyph glyph-name="ccircumflex" unicode="&#x109;" horiz-adv-x="1753" 
d="M1528 1536c-66 20.667 -131.003 35.333 -195.003 44s-122 13 -174 13c-86.667 0 -161.5 -13 -224.5 -39s-115 -66 -156 -120s-71.167 -122.333 -90.5 -205s-29 -181 -29 -295c0 -94 8.5 -176.333 25.5 -247s43.667 -129.5 80 -176.5s82.666 -82.333 138.999 -106
s123.833 -35.5 202.5 -35.5c80.667 0 159.334 9.66699 236.001 29s152.334 46.333 227.001 81l127 -348c-95.333 -51.333 -200 -90.833 -314 -118.5s-240 -41.5 -378 -41.5c-137.333 0 -258.5 17 -363.5 51s-193.167 88 -264.5 162s-125.166 169.667 -161.499 287
s-54.5 259.333 -54.5 426c0 182 23.833 341 71.5 477s113.834 249 198.501 339s185.334 157.333 302.001 202s244 67 382 67c97.333 0 188.666 -6 273.999 -18s166 -34.667 242 -68zM1286 2269l-258 471l-283 -471l-331 41l491 778h316l446 -778z" />
    <glyph glyph-name="Cdotaccent" unicode="&#x10a;" horiz-adv-x="2466" 
d="M1741 2388c-28 7.33301 -53.333 13.332 -76 17.999s-44.834 8.5 -66.501 11.5s-43.334 5 -65.001 6s-45.5 1.5 -71.5 1.5c-116.667 0 -221.334 -20.833 -314.001 -62.5s-171.167 -105 -235.5 -190s-113.666 -192 -147.999 -321s-51.5 -280.5 -51.5 -454.5
c0 -130.667 8.83301 -245.834 26.5 -345.501s42.667 -186.167 75 -259.5s70.833 -134.666 115.5 -183.999s94 -89 148 -119s111.833 -51.333 173.5 -64s125.167 -19 190.5 -19c67.333 0 134 5.16699 200 15.5s130.5 25 193.5 44s124.667 41.833 185 68.5
s118.5 56.334 174.5 89.001l140 -381c-70.667 -42.667 -142.334 -80.834 -215 -114.501c-72.667 -33.667 -149.167 -62.167 -229.5 -85.5s-165.666 -41 -255.999 -53s-188.833 -18 -295.5 -18c-191.333 0 -360 27 -506 81s-268.167 137.333 -366.5 250
s-172.666 255.834 -222.999 429.501s-75.5 380.5 -75.5 620.5c0 231.333 28.667 439.5 86 624.5s140.666 342.333 249.999 472s243.833 229.167 403.5 298.5s341.834 104 546.501 104c91.333 0 173.5 -3.16699 246.5 -9.5s140.5 -15.666 202.5 -28
c62 -12.333 120.667 -28 176 -47s110.666 -41.5 166 -67.5l-54 -856l-438 -24zM1204 3183v442h504v-442h-504z" />
    <glyph glyph-name="cdotaccent" unicode="&#x10b;" horiz-adv-x="1753" 
d="M1528 1536c-66 20.667 -131.003 35.333 -195.003 44s-122 13 -174 13c-86.667 0 -161.5 -13 -224.5 -39s-115 -66 -156 -120s-71.167 -122.333 -90.5 -205s-29 -181 -29 -295c0 -94 8.5 -176.333 25.5 -247s43.667 -129.5 80 -176.5s82.666 -82.333 138.999 -106
s123.833 -35.5 202.5 -35.5c80.667 0 159.334 9.66699 236.001 29s152.334 46.333 227.001 81l127 -348c-95.333 -51.333 -200 -90.833 -314 -118.5s-240 -41.5 -378 -41.5c-137.333 0 -258.5 17 -363.5 51s-193.167 88 -264.5 162s-125.166 169.667 -161.499 287
s-54.5 259.333 -54.5 426c0 182 23.833 341 71.5 477s113.834 249 198.501 339s185.334 157.333 302.001 202s244 67 382 67c97.333 0 188.666 -6 273.999 -18s166 -34.667 242 -68zM814.997 2314v443h504v-443h-504z" />
    <glyph glyph-name="Ccaron" unicode="&#x10c;" horiz-adv-x="2466" 
d="M1741 2388c-28 7.33301 -53.333 13.332 -76 17.999s-44.834 8.5 -66.501 11.5s-43.334 5 -65.001 6s-45.5 1.5 -71.5 1.5c-116.667 0 -221.334 -20.833 -314.001 -62.5s-171.167 -105 -235.5 -190s-113.666 -192 -147.999 -321s-51.5 -280.5 -51.5 -454.5
c0 -130.667 8.83301 -245.834 26.5 -345.501s42.667 -186.167 75 -259.5s70.833 -134.666 115.5 -183.999s94 -89 148 -119s111.833 -51.333 173.5 -64s125.167 -19 190.5 -19c67.333 0 134 5.16699 200 15.5s130.5 25 193.5 44s124.667 41.833 185 68.5
s118.5 56.334 174.5 89.001l140 -381c-70.667 -42.667 -142.334 -80.834 -215 -114.501c-72.667 -33.667 -149.167 -62.167 -229.5 -85.5s-165.666 -41 -255.999 -53s-188.833 -18 -295.5 -18c-191.333 0 -360 27 -506 81s-268.167 137.333 -366.5 250
s-172.666 255.834 -222.999 429.501s-75.5 380.5 -75.5 620.5c0 231.333 28.667 439.5 86 624.5s140.666 342.333 249.999 472s243.833 229.167 403.5 298.5s341.834 104 546.501 104c91.333 0 173.5 -3.16699 246.5 -9.5s140.5 -15.666 202.5 -28
c62 -12.333 120.667 -28 176 -47s110.666 -41.5 166 -67.5l-54 -856l-438 -24zM1196 3977l258 -475l279 471l331 -33l-491 -782h-316l-442 782z" />
    <glyph glyph-name="ccaron" unicode="&#x10d;" horiz-adv-x="1753" 
d="M1528 1536c-66 20.667 -131.003 35.333 -195.003 44s-122 13 -174 13c-86.667 0 -161.5 -13 -224.5 -39s-115 -66 -156 -120s-71.167 -122.333 -90.5 -205s-29 -181 -29 -295c0 -94 8.5 -176.333 25.5 -247s43.667 -129.5 80 -176.5s82.666 -82.333 138.999 -106
s123.833 -35.5 202.5 -35.5c80.667 0 159.334 9.66699 236.001 29s152.334 46.333 227.001 81l127 -348c-95.333 -51.333 -200 -90.833 -314 -118.5s-240 -41.5 -378 -41.5c-137.333 0 -258.5 17 -363.5 51s-193.167 88 -264.5 162s-125.166 169.667 -161.499 287
s-54.5 259.333 -54.5 426c0 182 23.833 341 71.5 477s113.834 249 198.501 339s185.334 157.333 302.001 202s244 67 382 67c97.333 0 188.666 -6 273.999 -18s166 -34.667 242 -68zM802.997 3088l258 -475l278 471l332 -32l-491 -783h-316l-442 783z" />
    <glyph glyph-name="Dcaron" unicode="&#x10e;" horiz-adv-x="2691" 
d="M2523 1475c0 -236.667 -29.002 -446.667 -87.002 -630s-144.167 -337.5 -258.5 -462.5s-256.666 -220 -426.999 -285s-367.5 -97.5 -591.5 -97.5h-885v2826h963c136.667 0 263.334 -10.167 380.001 -30.5s222.5 -52.666 317.5 -97
c95 -44.333 179.167 -101.666 252.5 -172c73.333 -70.333 134.833 -155.5 184.5 -255.5s87.334 -215.833 113 -347.5c25.667 -131.667 38.5 -281.167 38.5 -448.5zM785.998 2429l0.00195312 -2036h373c143.333 0 267.5 22 372.5 66s191.833 109.5 260.5 196.5
s119.667 195.5 153 325.5s50 281 50 453c0 170 -15.833 317.5 -47.5 442.5s-81.334 228.333 -149.001 310s-154.334 142.5 -260.001 182.5s-232.167 60 -379.5 60h-373zM1004 3977l258 -475l278 471l332 -33l-492 -782h-315l-442 782z" />
    <glyph glyph-name="dcaron" unicode="&#x10f;" horiz-adv-x="2773" 
d="M1495 -20c-4.66699 13.333 -9.33203 29.332 -13.999 47.999s-8.66699 38.667 -12 60s-6 43.5 -8 66.5s-3 45.167 -3 66.5c-36.667 -36 -75.834 -69.167 -117.501 -99.5s-86 -56.666 -133 -78.999s-96.667 -39.833 -149 -52.5s-107.5 -19 -165.5 -19
c-135.333 0 -249.666 21.667 -342.999 65s-168.833 105.5 -226.5 186.5s-99.334 179.833 -125.001 296.5s-38.5 248 -38.5 394c0 171.333 22 322.833 66 454.5s106.167 242.5 186.5 332.5s176.833 158.167 289.5 204.5s237.667 69.5 375 69.5
c72.667 0 138.667 -4.5 198 -13.5s115 -24.833 167 -47.5v1028l500 33v-2958zM1442 1552c-94.667 41.333 -200 62 -316 62c-68.667 0 -131.167 -12.167 -187.5 -36.5s-104.5 -63 -144.5 -116s-71 -121.833 -93 -206.5s-33 -187.667 -33 -309
c0 -113.333 8.83301 -208 26.5 -284s43.167 -137 76.5 -183s74.333 -78.667 123 -98s104.334 -29 167.001 -29c38 0 75.167 4.5 111.5 13.5s70.833 20.5 103.5 34.5s63.167 29.833 91.5 47.5s53.166 35.167 74.499 52.5v1052zM2736 3097
c54 -74.667 94.167 -156.333 120.5 -244.999c26.333 -88.667 39.5 -176.334 39.5 -263c0 -160 -47.5 -303.833 -142.5 -431.5s-238.833 -240.5 -431.5 -338.5l-176 286c55.333 38 100 72.667 134 104s60.5 62.666 79.5 94c19 31.333 31.833 64.166 38.5 98.5
c6.66699 34.333 10 73.5 10 117.5c0 23.333 -2.33301 54.166 -7 92.499s-11.334 80 -20 125c-8.66699 45 -18.667 91.667 -30 140s-23.666 94.5 -37 138.5z" />
    <glyph glyph-name="Dcroat" unicode="&#x110;" horiz-adv-x="2806" 
d="M1274 393c143.333 0 267.501 22 372.501 66s191.667 109.5 260 196.5s119.166 195.5 152.499 325.5s50 281 50 453c0 170 -16 317.5 -48 442.5s-81.833 228.333 -149.5 310s-154.167 142.5 -259.5 182.5s-231.333 60 -378 60h-369v-844l529 17l-13 -320l-516 -12v-877
h369zM389.001 0l-0.00195312 1253l-422 -16l13 315l409 17v1257h963c136.667 0 263.334 -10.167 380.001 -30.5s222.5 -52.666 317.5 -97c95 -44.333 179.167 -101.666 252.5 -172c73.333 -70.333 134.833 -155.5 184.5 -255.5s87.334 -215.833 113 -347.5
c25.667 -131.667 38.5 -281.167 38.5 -448.5c0 -236.667 -29 -446.667 -87 -630s-144.167 -337.5 -258.5 -462.5s-256.666 -220 -426.999 -285s-367.5 -97.5 -591.5 -97.5h-885z" />
    <glyph glyph-name="dcroat" unicode="&#x111;" horiz-adv-x="2249" 
d="M1495 -20c-4.66699 13.333 -9.33203 29.332 -13.999 47.999s-8.66699 38.667 -12 60s-6 43.5 -8 66.5s-3 45.167 -3 66.5c-36.667 -36 -75.834 -69.167 -117.501 -99.5s-86 -56.666 -133 -78.999s-96.667 -39.833 -149 -52.5s-107.5 -19 -165.5 -19
c-135.333 0 -249.666 21.667 -342.999 65s-168.833 105.5 -226.5 186.5s-99.334 179.833 -125.001 296.5s-38.5 248 -38.5 394c0 171.333 22 322.833 66 454.5s106.167 242.5 186.5 332.5s176.833 158.167 289.5 204.5s237.667 69.5 375 69.5
c72.667 0 138.667 -4.5 198 -13.5s115 -24.833 167 -47.5v434h-578l17 311h561v332l500 25v-357h331l-16 -311h-315v-2331zM1442 1552c-94.667 41.333 -200 62 -316 62c-68.667 0 -131.167 -12.167 -187.5 -36.5s-104.5 -63 -144.5 -116s-71 -121.833 -93 -206.5
s-33 -187.667 -33 -309c0 -113.333 8.83301 -208 26.5 -284s43.167 -137 76.5 -183s74.333 -78.667 123 -98s104.334 -29 167.001 -29c38 0 75.167 4.5 111.5 13.5s70.833 20.5 103.5 34.5s63.167 29.833 91.5 47.5s53.166 35.167 74.499 52.5v1052z" />
    <glyph glyph-name="Emacron" unicode="&#x112;" horiz-adv-x="2228" 
d="M279 0v2826h1773l-33 -393h-1228v-786h1097v-394h-1097v-860h1232l37 -393h-1781zM1831 3301h-1311l25 336h1310z" />
    <glyph glyph-name="emacron" unicode="&#x113;" horiz-adv-x="2036" 
d="M1876 201c-56 -36 -116.501 -68.1709 -181.501 -96.5039s-132.667 -52.5 -203 -72.5s-142.666 -35.167 -216.999 -45.5s-149.5 -15.5 -225.5 -15.5c-140.667 0 -266 17 -376 51s-203 87.833 -279 161.5s-134 168.334 -174 284.001s-60 254.834 -60 417.501
c0 166.667 21.5 317.334 64.5 452.001s105.833 249.5 188.5 344.5s184.167 168.167 304.5 219.5s257.833 77 412.5 77c131.333 0 242.166 -20.667 332.499 -62s163.333 -100.5 219 -177.5s95.834 -170.333 120.501 -280s37 -232.5 37 -368.5
c0 -27.333 -0.5 -58.166 -1.5 -92.499s-4.5 -77.5 -10.5 -129.5h-1176c0 -86.667 9 -162.667 27 -228s46 -119.5 84 -162.5s86.333 -75.333 145 -97s129 -32.5 211 -32.5c51.333 0 104.5 4.83301 159.5 14.5s110 22.834 165 39.501s109.167 36.167 162.5 58.5
s104 46.166 152 71.499l119 -331v0zM1393 1167c0 154 -27 267 -81 339s-132.333 108 -235 108c-56 0 -107.333 -9.33301 -154 -28s-87.5 -46.5 -122.5 -83.5s-63.833 -83.5 -86.5 -139.5s-38 -121.333 -46 -196h725zM1729 2413h-1311l24 335h1311z" />
    <glyph glyph-name="Ebreve" unicode="&#x114;" horiz-adv-x="2228" 
d="M279 0v2826h1773l-33 -393h-1228v-786h1097v-394h-1097v-860h1232l37 -393h-1781zM950 3801c6 -62.667 15.0029 -113.5 27.0029 -152.5s28.833 -69.333 50.5 -91s49.5 -36.334 83.5 -44c34 -7.66699 76 -11.5 126 -11.5c49.333 0 91 4.66699 125 14s62 25.333 84 48
s38.833 53.334 50.5 92c11.667 38.667 19.5 87 23.5 145l327 -37c-2 -98 -17.833 -184.167 -47.5 -258.5s-71.834 -136.333 -126.501 -186s-120.834 -87 -198.501 -112s-165.167 -37.5 -262.5 -37.5c-90 0 -171.167 11 -243.5 33s-134.333 56.833 -186 104.5
s-92.334 109 -122.001 184s-46.5 165.833 -50.5 272.5z" />
    <glyph glyph-name="ebreve" unicode="&#x115;" horiz-adv-x="2036" 
d="M1876 201c-56 -36 -116.501 -68.1709 -181.501 -96.5039s-132.667 -52.5 -203 -72.5s-142.666 -35.167 -216.999 -45.5s-149.5 -15.5 -225.5 -15.5c-140.667 0 -266 17 -376 51s-203 87.833 -279 161.5s-134 168.334 -174 284.001s-60 254.834 -60 417.501
c0 166.667 21.5 317.334 64.5 452.001s105.833 249.5 188.5 344.5s184.167 168.167 304.5 219.5s257.833 77 412.5 77c131.333 0 242.166 -20.667 332.499 -62s163.333 -100.5 219 -177.5s95.834 -170.333 120.501 -280s37 -232.5 37 -368.5
c0 -27.333 -0.5 -58.166 -1.5 -92.499s-4.5 -77.5 -10.5 -129.5h-1176c0 -86.667 9 -162.667 27 -228s46 -119.5 84 -162.5s86.333 -75.333 145 -97s129 -32.5 211 -32.5c51.333 0 104.5 4.83301 159.5 14.5s110 22.834 165 39.501s109.167 36.167 162.5 58.5
s104 46.166 152 71.499l119 -331v0zM1393 1167c0 154 -27 267 -81 339s-132.333 108 -235 108c-56 0 -107.333 -9.33301 -154 -28s-87.5 -46.5 -122.5 -83.5s-63.833 -83.5 -86.5 -139.5s-38 -121.333 -46 -196h725zM802.999 2933c6 -62.667 14.833 -113.5 26.5 -152.5
s28.5 -69.333 50.5 -91s50 -36.334 84 -44c34 -7.66699 76 -11.5 126 -11.5c49.333 0 91 4.66699 125 14s62 25.333 84 48s38.667 53.167 50 91.5s19 86.833 23 145.5l328 -37c-2 -98 -18 -184.167 -48 -258.5s-72.167 -136.333 -126.5 -186s-120.333 -87 -198 -112
s-165.167 -37.5 -262.5 -37.5c-90 0 -171.167 11 -243.5 33s-134.5 56.833 -186.5 104.5s-92.667 109 -122 184s-46 165.833 -50 272.5z" />
    <glyph glyph-name="Edotaccent" unicode="&#x116;" horiz-adv-x="2228" 
d="M279 0v2826h1773l-33 -393h-1228v-786h1097v-394h-1097v-860h1232l37 -393h-1781zM922 3203v442h503v-442h-503z" />
    <glyph glyph-name="edotaccent" unicode="&#x117;" horiz-adv-x="2036" 
d="M1876 201c-56 -36 -116.501 -68.1709 -181.501 -96.5039s-132.667 -52.5 -203 -72.5s-142.666 -35.167 -216.999 -45.5s-149.5 -15.5 -225.5 -15.5c-140.667 0 -266 17 -376 51s-203 87.833 -279 161.5s-134 168.334 -174 284.001s-60 254.834 -60 417.501
c0 166.667 21.5 317.334 64.5 452.001s105.833 249.5 188.5 344.5s184.167 168.167 304.5 219.5s257.833 77 412.5 77c131.333 0 242.166 -20.667 332.499 -62s163.333 -100.5 219 -177.5s95.834 -170.333 120.501 -280s37 -232.5 37 -368.5
c0 -27.333 -0.5 -58.166 -1.5 -92.499s-4.5 -77.5 -10.5 -129.5h-1176c0 -86.667 9 -162.667 27 -228s46 -119.5 84 -162.5s86.333 -75.333 145 -97s129 -32.5 211 -32.5c51.333 0 104.5 4.83301 159.5 14.5s110 22.834 165 39.501s109.167 36.167 162.5 58.5
s104 46.166 152 71.499l119 -331v0zM1393 1167c0 154 -27 267 -81 339s-132.333 108 -235 108c-56 0 -107.333 -9.33301 -154 -28s-87.5 -46.5 -122.5 -83.5s-63.833 -83.5 -86.5 -139.5s-38 -121.333 -46 -196h725zM839.999 2314v443h503v-443h-503z" />
    <glyph glyph-name="Eogonek" unicode="&#x118;" horiz-adv-x="2228" 
d="M1520 -889c-110 15.333 -201.832 35.6641 -275.499 60.9971s-133 56 -178 92s-77 77.333 -96 124s-28.5 99 -28.5 157c0 32.667 3.83301 64.334 11.5 95.001s22 63.5 43 98.5s50.167 73.5 87.5 115.5s85.666 90.667 144.999 146h-950v2826h1773l-33 -393h-1228v-786h1097
v-394h-1097v-860h1232l37 -393h-418c-48.667 -59.333 -88.5 -110.666 -119.5 -153.999s-55.167 -81.333 -72.5 -114s-29.166 -61.167 -35.499 -85.5s-9.5 -47.166 -9.5 -68.499s2.66699 -40 8 -56s15.666 -30.5 30.999 -43.5s37 -24.833 65 -35.5s64.333 -21.667 109 -33z
" />
    <glyph glyph-name="eogonek" unicode="&#x119;" horiz-adv-x="2036" 
d="M1262 -889c-110 15.333 -201.831 35.6631 -275.498 60.9961s-133 56 -178 92s-77 77.333 -96 124s-28.5 99 -28.5 157c0 32 3.66699 62.833 11 92.5s20.5 61 39.5 94s45.333 69 79 108s76.5 84.167 128.5 135.5c-124 8 -234.5 31.333 -331.5 70
s-178.833 94.834 -245.5 168.501s-117.5 165.834 -152.5 276.501s-52.5 242.334 -52.5 395.001c0 166.667 21.5 317.334 64.5 452.001s105.833 249.5 188.5 344.5s184.167 168.167 304.5 219.5s257.833 77 412.5 77c131.333 0 242.166 -20.667 332.499 -62
s163.333 -100.5 219 -177.5s95.834 -170.333 120.501 -280s37 -232.5 37 -368.5c0 -27.333 -0.5 -58.166 -1.5 -92.499s-4.5 -77.5 -10.5 -129.5h-1176c0 -86.667 9 -162.667 27 -228s46 -119.5 84 -162.5s86.333 -75.333 145 -97s129 -32.5 211 -32.5
c51.333 0 104.5 4.83301 159.5 14.5s110 22.834 165 39.501s109.167 36.167 162.5 58.5s104 46.166 152 71.499l119 -331c-70 -45.333 -146 -84.333 -228 -117s-168.333 -59.334 -259 -80.001c-50 -59.333 -90.833 -110.833 -122.5 -154.5s-56.334 -82 -74.001 -115
s-29.667 -62 -36 -87s-9.5 -48.167 -9.5 -69.5s2.66699 -40 8 -56s15.666 -30.5 30.999 -43.5s37 -24.833 65 -35.5s64.333 -21.667 109 -33zM1393 1167c0 154 -27 267 -81 339s-132.333 108 -235 108c-56 0 -107.333 -9.33301 -154 -28s-87.5 -46.5 -122.5 -83.5
s-63.833 -83.5 -86.5 -139.5s-38 -121.333 -46 -196h725z" />
    <glyph glyph-name="Ecaron" unicode="&#x11a;" horiz-adv-x="2228" 
d="M279 0v2826h1773l-33 -393h-1228v-786h1097v-394h-1097v-860h1232l37 -393h-1781zM942 3977l258 -475l279 471l331 -33l-491 -782h-315l-443 782z" />
    <glyph glyph-name="ecaron" unicode="&#x11b;" horiz-adv-x="2036" 
d="M1876 201c-56 -36 -116.501 -68.1709 -181.501 -96.5039s-132.667 -52.5 -203 -72.5s-142.666 -35.167 -216.999 -45.5s-149.5 -15.5 -225.5 -15.5c-140.667 0 -266 17 -376 51s-203 87.833 -279 161.5s-134 168.334 -174 284.001s-60 254.834 -60 417.501
c0 166.667 21.5 317.334 64.5 452.001s105.833 249.5 188.5 344.5s184.167 168.167 304.5 219.5s257.833 77 412.5 77c131.333 0 242.166 -20.667 332.499 -62s163.333 -100.5 219 -177.5s95.834 -170.333 120.501 -280s37 -232.5 37 -368.5
c0 -27.333 -0.5 -58.166 -1.5 -92.499s-4.5 -77.5 -10.5 -129.5h-1176c0 -86.667 9 -162.667 27 -228s46 -119.5 84 -162.5s86.333 -75.333 145 -97s129 -32.5 211 -32.5c51.333 0 104.5 4.83301 159.5 14.5s110 22.834 165 39.501s109.167 36.167 162.5 58.5
s104 46.166 152 71.499l119 -331v0zM1393 1167c0 154 -27 267 -81 339s-132.333 108 -235 108c-56 0 -107.333 -9.33301 -154 -28s-87.5 -46.5 -122.5 -83.5s-63.833 -83.5 -86.5 -139.5s-38 -121.333 -46 -196h725zM863.999 3088l258 -475l279 471l332 -32l-492 -783h-315
l-443 783z" />
    <glyph glyph-name="Gcircumflex" unicode="&#x11c;" horiz-adv-x="2654" 
d="M2413 254c-66.667 -42 -139.998 -80.3359 -219.998 -115.003s-165 -64.5 -255 -89.5s-184 -44.333 -282 -58s-198 -20.5 -300 -20.5c-190.667 0 -359.667 25.833 -507 77.5s-271.5 133 -372.5 244s-177.667 253.5 -230 427.5s-78.5 383.333 -78.5 628
c0 234.667 28.667 444.834 86 630.501s140.666 343.167 249.999 472.5s243.166 228.333 401.499 297s338.5 103 540.5 103c97.333 0 184.5 -2.83301 261.5 -8.5s149.167 -14.834 216.5 -27.5c67.333 -12.667 132.5 -29.5 195.5 -50.5s129.167 -46.833 198.5 -77.5l-135 -401
c-113.333 49.333 -230.333 85.5 -351 108.5s-244 34.5 -370 34.5c-118.667 0 -224.834 -21.5 -318.501 -64.5s-173 -107.333 -238 -193s-114.667 -192.667 -149 -321s-51.5 -278.166 -51.5 -449.499c0 -191.333 18.333 -352.333 55 -483s88.334 -236 155.001 -316
s146.834 -137.5 240.501 -172.5s197.167 -52.5 310.5 -52.5c42 0 81.833 1.83301 119.5 5.5s74.167 9.33398 109.5 17.001s70.666 17.5 105.999 29.5s71.333 26 108 42v569h-520l28 369h996v-1155v0zM1688 3138l-258 471l-283 -471l-332 40l492 779h315l446 -779z" />
    <glyph glyph-name="gcircumflex" unicode="&#x11d;" horiz-adv-x="2167" 
d="M2130 1798c-49.333 6 -94.002 10.999 -134.002 14.999s-74.667 6 -104 6c-21.333 0 -39.5 -2.5 -54.5 -7.5s-28.5 -13.667 -40.5 -26s-23.333 -28.833 -34 -49.5s-22 -46.334 -34 -77.001c18 -21.333 34.5 -46.833 49.5 -76.5s27.833 -61.167 38.5 -94.5
s19 -67.333 25 -102s9 -68 9 -100c0 -112.667 -21 -212 -63 -298s-100.5 -158.167 -175.5 -216.5s-164.667 -102.5 -269 -132.5s-219.166 -45 -344.499 -45h-102c-7.33301 -11.333 -13.833 -24.166 -19.5 -38.499s-10.334 -29 -14.001 -44s-6.5 -30 -8.5 -45
s-3 -28.5 -3 -40.5c0 -21.333 1.83301 -39 5.5 -53s9.33398 -25 17.001 -33s17.5 -13.5 29.5 -16.5s26 -4.5 42 -4.5h414c118 0 218 -8.83301 300 -26.5s148.667 -45.334 200 -83.001s88.666 -86.334 111.999 -146.001s35 -131.5 35 -215.5
c0 -64 -11.667 -127.167 -35 -189.5s-57.166 -121.5 -101.499 -177.5s-98.833 -107.833 -163.5 -155.5s-138.5 -88.834 -221.5 -123.501s-174.833 -61.834 -275.5 -81.501s-209 -29.5 -325 -29.5c-266.667 0 -469.834 37.5 -609.501 112.5s-209.5 190.167 -209.5 345.5
c0 54.667 8.5 105.167 25.5 151.5s42.5 90.833 76.5 133.5s76.5 84.834 127.5 126.501s110.833 84.834 179.5 129.501c-16.667 18.667 -29 41.334 -37 68.001s-12 54.667 -12 84c0 27.333 2.66699 55 8 83s14.333 57.833 27 89.5s29.834 65.834 51.501 102.501
s48.834 77.334 81.501 122.001c-62.667 16.667 -120 40.834 -172 72.501s-96.833 71.5 -134.5 119.5s-67 104.167 -88 168.5s-31.5 136.833 -31.5 217.5c0 120 21.833 226.667 65.5 320s104.334 172 182.001 236s169.667 112.833 276 146.5s222.5 50.5 348.5 50.5
c49.333 0 95.5 -2.83301 138.5 -8.5s83.167 -13.334 120.5 -23.001s72 -21 104 -34s61.333 -26.5 88 -40.5c22.667 78 45.167 142.5 67.5 193.5s47.666 91.5 75.999 121.5s60.833 51.167 97.5 63.5s80.667 18.5 132 18.5c22.667 0 47 -1 73 -3s52.167 -5 78.5 -9
s52.5 -9.16699 78.5 -15.5s50.333 -13.5 73 -21.5zM1368 1278c0 51.333 -7.00195 97.8301 -21.002 139.497s-35.167 77.334 -63.5 107.001s-64.166 52.667 -107.499 69s-94 24.5 -152 24.5c-126.667 0 -220.5 -31.833 -281.5 -95.5s-91.5 -156.167 -91.5 -277.5
c0 -59.333 7.83301 -110.166 23.5 -152.499s38.5 -77.166 68.5 -104.499s66.833 -47.333 110.5 -60s93.834 -19 150.501 -19c53.333 0 102.333 7.16699 147 21.5s83 36.5 115 66.5s57 68.167 75 114.5s27 101.833 27 166.5zM1565 -225.004
c0 28.667 -4.6709 53.5 -14.0039 74.5s-25.166 38.5 -47.499 52.5s-52.166 24.333 -89.499 31s-84 10 -140 10h-602c-55.333 -45.333 -94.5 -89.5 -117.5 -132.5s-34.5 -84.833 -34.5 -125.5c0 -39.333 8.5 -73.333 25.5 -102s43.167 -52.5 78.5 -71.5
s80.666 -33.167 135.999 -42.5s121.333 -14 198 -14c100.667 0 188.834 10.167 264.501 30.5s138.834 46 189.501 77s88.834 65.333 114.501 103s38.5 74.167 38.5 109.5zM1158.99 2269l-258 471l-283 -471l-331 41l491 778h316l446 -778z" />
    <glyph glyph-name="Gbreve" unicode="&#x11e;" horiz-adv-x="2654" 
d="M2413 254c-66.667 -42 -139.998 -80.3359 -219.998 -115.003s-165 -64.5 -255 -89.5s-184 -44.333 -282 -58s-198 -20.5 -300 -20.5c-190.667 0 -359.667 25.833 -507 77.5s-271.5 133 -372.5 244s-177.667 253.5 -230 427.5s-78.5 383.333 -78.5 628
c0 234.667 28.667 444.834 86 630.501s140.666 343.167 249.999 472.5s243.166 228.333 401.499 297s338.5 103 540.5 103c97.333 0 184.5 -2.83301 261.5 -8.5s149.167 -14.834 216.5 -27.5c67.333 -12.667 132.5 -29.5 195.5 -50.5s129.167 -46.833 198.5 -77.5l-135 -401
c-113.333 49.333 -230.333 85.5 -351 108.5s-244 34.5 -370 34.5c-118.667 0 -224.834 -21.5 -318.501 -64.5s-173 -107.333 -238 -193s-114.667 -192.667 -149 -321s-51.5 -278.166 -51.5 -449.499c0 -191.333 18.333 -352.333 55 -483s88.334 -236 155.001 -316
s146.834 -137.5 240.501 -172.5s197.167 -52.5 310.5 -52.5c42 0 81.833 1.83301 119.5 5.5s74.167 9.33398 109.5 17.001s70.666 17.5 105.999 29.5s71.333 26 108 42v569h-520l28 369h996v-1155v0zM1155 3826c6 -62.667 15 -113.499 27 -152.499s28.833 -69.333 50.5 -91
s49.5 -36.334 83.5 -44.001s76 -11.5 126 -11.5c49.333 0 91 4.66699 125 14s62 25.333 84 48s38.667 53.167 50 91.5s19 86.833 23 145.5l328 -37c-2 -98 -18 -184.167 -48 -258.5s-72.167 -136.333 -126.5 -186s-120.333 -87 -198 -112s-165.167 -37.5 -262.5 -37.5
c-90 0 -171.167 11 -243.5 33s-134.5 56.833 -186.5 104.5s-92.667 109 -122 184s-46 165.833 -50 272.5z" />
    <glyph glyph-name="gbreve" unicode="&#x11f;" horiz-adv-x="2167" 
d="M2130 1798c-49.333 6 -94.002 10.999 -134.002 14.999s-74.667 6 -104 6c-21.333 0 -39.5 -2.5 -54.5 -7.5s-28.5 -13.667 -40.5 -26s-23.333 -28.833 -34 -49.5s-22 -46.334 -34 -77.001c18 -21.333 34.5 -46.833 49.5 -76.5s27.833 -61.167 38.5 -94.5
s19 -67.333 25 -102s9 -68 9 -100c0 -112.667 -21 -212 -63 -298s-100.5 -158.167 -175.5 -216.5s-164.667 -102.5 -269 -132.5s-219.166 -45 -344.499 -45h-102c-7.33301 -11.333 -13.833 -24.166 -19.5 -38.499s-10.334 -29 -14.001 -44s-6.5 -30 -8.5 -45
s-3 -28.5 -3 -40.5c0 -21.333 1.83301 -39 5.5 -53s9.33398 -25 17.001 -33s17.5 -13.5 29.5 -16.5s26 -4.5 42 -4.5h414c118 0 218 -8.83301 300 -26.5s148.667 -45.334 200 -83.001s88.666 -86.334 111.999 -146.001s35 -131.5 35 -215.5
c0 -64 -11.667 -127.167 -35 -189.5s-57.166 -121.5 -101.499 -177.5s-98.833 -107.833 -163.5 -155.5s-138.5 -88.834 -221.5 -123.501s-174.833 -61.834 -275.5 -81.501s-209 -29.5 -325 -29.5c-266.667 0 -469.834 37.5 -609.501 112.5s-209.5 190.167 -209.5 345.5
c0 54.667 8.5 105.167 25.5 151.5s42.5 90.833 76.5 133.5s76.5 84.834 127.5 126.501s110.833 84.834 179.5 129.501c-16.667 18.667 -29 41.334 -37 68.001s-12 54.667 -12 84c0 27.333 2.66699 55 8 83s14.333 57.833 27 89.5s29.834 65.834 51.501 102.501
s48.834 77.334 81.501 122.001c-62.667 16.667 -120 40.834 -172 72.501s-96.833 71.5 -134.5 119.5s-67 104.167 -88 168.5s-31.5 136.833 -31.5 217.5c0 120 21.833 226.667 65.5 320s104.334 172 182.001 236s169.667 112.833 276 146.5s222.5 50.5 348.5 50.5
c49.333 0 95.5 -2.83301 138.5 -8.5s83.167 -13.334 120.5 -23.001s72 -21 104 -34s61.333 -26.5 88 -40.5c22.667 78 45.167 142.5 67.5 193.5s47.666 91.5 75.999 121.5s60.833 51.167 97.5 63.5s80.667 18.5 132 18.5c22.667 0 47 -1 73 -3s52.167 -5 78.5 -9
s52.5 -9.16699 78.5 -15.5s50.333 -13.5 73 -21.5zM1368 1278c0 51.333 -7.00195 97.8301 -21.002 139.497s-35.167 77.334 -63.5 107.001s-64.166 52.667 -107.499 69s-94 24.5 -152 24.5c-126.667 0 -220.5 -31.833 -281.5 -95.5s-91.5 -156.167 -91.5 -277.5
c0 -59.333 7.83301 -110.166 23.5 -152.499s38.5 -77.166 68.5 -104.499s66.833 -47.333 110.5 -60s93.834 -19 150.501 -19c53.333 0 102.333 7.16699 147 21.5s83 36.5 115 66.5s57 68.167 75 114.5s27 101.833 27 166.5zM1565 -225.004
c0 28.667 -4.6709 53.5 -14.0039 74.5s-25.166 38.5 -47.499 52.5s-52.166 24.333 -89.499 31s-84 10 -140 10h-602c-55.333 -45.333 -94.5 -89.5 -117.5 -132.5s-34.5 -84.833 -34.5 -125.5c0 -39.333 8.5 -73.333 25.5 -102s43.167 -52.5 78.5 -71.5
s80.666 -33.167 135.999 -42.5s121.333 -14 198 -14c100.667 0 188.834 10.167 264.501 30.5s138.834 46 189.501 77s88.834 65.333 114.501 103s38.5 74.167 38.5 109.5zM732.992 2933c6 -62.667 15.001 -113.5 27.001 -152.5s28.833 -69.333 50.5 -91
s49.5 -36.334 83.5 -44c34 -7.66699 76 -11.5 126 -11.5c49.333 0 91 4.66699 125 14s62 25.333 84 48s38.833 53.167 50.5 91.5s19.5 86.833 23.5 145.5l327 -37c-2 -98 -18 -184.167 -48 -258.5s-72.167 -136.333 -126.5 -186s-120.333 -87 -198 -112
s-165.167 -37.5 -262.5 -37.5c-90 0 -171.167 11 -243.5 33s-134.333 56.833 -186 104.5s-92.334 109 -122.001 184s-46.5 165.833 -50.5 272.5z" />
    <glyph glyph-name="Gdotaccent" unicode="&#x120;" horiz-adv-x="2654" 
d="M2413 254c-66.667 -42 -139.998 -80.3359 -219.998 -115.003s-165 -64.5 -255 -89.5s-184 -44.333 -282 -58s-198 -20.5 -300 -20.5c-190.667 0 -359.667 25.833 -507 77.5s-271.5 133 -372.5 244s-177.667 253.5 -230 427.5s-78.5 383.333 -78.5 628
c0 234.667 28.667 444.834 86 630.501s140.666 343.167 249.999 472.5s243.166 228.333 401.499 297s338.5 103 540.5 103c97.333 0 184.5 -2.83301 261.5 -8.5s149.167 -14.834 216.5 -27.5c67.333 -12.667 132.5 -29.5 195.5 -50.5s129.167 -46.833 198.5 -77.5l-135 -401
c-113.333 49.333 -230.333 85.5 -351 108.5s-244 34.5 -370 34.5c-118.667 0 -224.834 -21.5 -318.501 -64.5s-173 -107.333 -238 -193s-114.667 -192.667 -149 -321s-51.5 -278.166 -51.5 -449.499c0 -191.333 18.333 -352.333 55 -483s88.334 -236 155.001 -316
s146.834 -137.5 240.501 -172.5s197.167 -52.5 310.5 -52.5c42 0 81.833 1.83301 119.5 5.5s74.167 9.33398 109.5 17.001s70.666 17.5 105.999 29.5s71.333 26 108 42v569h-520l28 369h996v-1155v0zM1171 3183v442h504v-442h-504z" />
    <glyph glyph-name="gdotaccent" unicode="&#x121;" horiz-adv-x="2167" 
d="M2130 1798c-49.333 6 -94.002 10.999 -134.002 14.999s-74.667 6 -104 6c-21.333 0 -39.5 -2.5 -54.5 -7.5s-28.5 -13.667 -40.5 -26s-23.333 -28.833 -34 -49.5s-22 -46.334 -34 -77.001c18 -21.333 34.5 -46.833 49.5 -76.5s27.833 -61.167 38.5 -94.5
s19 -67.333 25 -102s9 -68 9 -100c0 -112.667 -21 -212 -63 -298s-100.5 -158.167 -175.5 -216.5s-164.667 -102.5 -269 -132.5s-219.166 -45 -344.499 -45h-102c-7.33301 -11.333 -13.833 -24.166 -19.5 -38.499s-10.334 -29 -14.001 -44s-6.5 -30 -8.5 -45
s-3 -28.5 -3 -40.5c0 -21.333 1.83301 -39 5.5 -53s9.33398 -25 17.001 -33s17.5 -13.5 29.5 -16.5s26 -4.5 42 -4.5h414c118 0 218 -8.83301 300 -26.5s148.667 -45.334 200 -83.001s88.666 -86.334 111.999 -146.001s35 -131.5 35 -215.5
c0 -64 -11.667 -127.167 -35 -189.5s-57.166 -121.5 -101.499 -177.5s-98.833 -107.833 -163.5 -155.5s-138.5 -88.834 -221.5 -123.501s-174.833 -61.834 -275.5 -81.501s-209 -29.5 -325 -29.5c-266.667 0 -469.834 37.5 -609.501 112.5s-209.5 190.167 -209.5 345.5
c0 54.667 8.5 105.167 25.5 151.5s42.5 90.833 76.5 133.5s76.5 84.834 127.5 126.501s110.833 84.834 179.5 129.501c-16.667 18.667 -29 41.334 -37 68.001s-12 54.667 -12 84c0 27.333 2.66699 55 8 83s14.333 57.833 27 89.5s29.834 65.834 51.501 102.501
s48.834 77.334 81.501 122.001c-62.667 16.667 -120 40.834 -172 72.501s-96.833 71.5 -134.5 119.5s-67 104.167 -88 168.5s-31.5 136.833 -31.5 217.5c0 120 21.833 226.667 65.5 320s104.334 172 182.001 236s169.667 112.833 276 146.5s222.5 50.5 348.5 50.5
c49.333 0 95.5 -2.83301 138.5 -8.5s83.167 -13.334 120.5 -23.001s72 -21 104 -34s61.333 -26.5 88 -40.5c22.667 78 45.167 142.5 67.5 193.5s47.666 91.5 75.999 121.5s60.833 51.167 97.5 63.5s80.667 18.5 132 18.5c22.667 0 47 -1 73 -3s52.167 -5 78.5 -9
s52.5 -9.16699 78.5 -15.5s50.333 -13.5 73 -21.5zM1368 1278c0 51.333 -7.00195 97.8301 -21.002 139.497s-35.167 77.334 -63.5 107.001s-64.166 52.667 -107.499 69s-94 24.5 -152 24.5c-126.667 0 -220.5 -31.833 -281.5 -95.5s-91.5 -156.167 -91.5 -277.5
c0 -59.333 7.83301 -110.166 23.5 -152.499s38.5 -77.166 68.5 -104.499s66.833 -47.333 110.5 -60s93.834 -19 150.501 -19c53.333 0 102.333 7.16699 147 21.5s83 36.5 115 66.5s57 68.167 75 114.5s27 101.833 27 166.5zM1565 -225.004
c0 28.667 -4.6709 53.5 -14.0039 74.5s-25.166 38.5 -47.499 52.5s-52.166 24.333 -89.499 31s-84 10 -140 10h-602c-55.333 -45.333 -94.5 -89.5 -117.5 -132.5s-34.5 -84.833 -34.5 -125.5c0 -39.333 8.5 -73.333 25.5 -102s43.167 -52.5 78.5 -71.5
s80.666 -33.167 135.999 -42.5s121.333 -14 198 -14c100.667 0 188.834 10.167 264.501 30.5s138.834 46 189.501 77s88.834 65.333 114.501 103s38.5 74.167 38.5 109.5zM753.992 2314v443h503v-443h-503z" />
    <glyph glyph-name="Gcommaaccent" unicode="&#x122;" horiz-adv-x="2654" 
d="M2413 254c-66.667 -42 -139.998 -80.3359 -219.998 -115.003s-165 -64.5 -255 -89.5s-184 -44.333 -282 -58s-198 -20.5 -300 -20.5c-190.667 0 -359.667 25.833 -507 77.5s-271.5 133 -372.5 244s-177.667 253.5 -230 427.5s-78.5 383.333 -78.5 628
c0 234.667 28.667 444.834 86 630.501s140.666 343.167 249.999 472.5s243.166 228.333 401.499 297s338.5 103 540.5 103c97.333 0 184.5 -2.83301 261.5 -8.5s149.167 -14.834 216.5 -27.5c67.333 -12.667 132.5 -29.5 195.5 -50.5s129.167 -46.833 198.5 -77.5l-135 -401
c-113.333 49.333 -230.333 85.5 -351 108.5s-244 34.5 -370 34.5c-118.667 0 -224.834 -21.5 -318.501 -64.5s-173 -107.333 -238 -193s-114.667 -192.667 -149 -321s-51.5 -278.166 -51.5 -449.499c0 -191.333 18.333 -352.333 55 -483s88.334 -236 155.001 -316
s146.834 -137.5 240.501 -172.5s197.167 -52.5 310.5 -52.5c42 0 81.833 1.83301 119.5 5.5s74.167 9.33398 109.5 17.001s70.666 17.5 105.999 29.5s71.333 26 108 42v569h-520l28 369h996v-1155v0zM1634 -139.003c54 -74.667 94.1709 -156.33 120.504 -244.997
s39.5 -176.334 39.5 -263.001c0 -160 -47.333 -303.833 -142 -431.5s-238.334 -240.5 -431.001 -338.5l-177 287c55.333 38 100.166 72.5 134.499 103.5s61 62.167 80 93.5s31.833 64.166 38.5 98.499s10 73.5 10 117.5c0 23.333 -2.33301 54.166 -7 92.499
s-11.334 80 -20.001 125s-18.834 91.667 -30.501 140s-24.167 94.5 -37.5 138.5z" />
    <glyph glyph-name="gcommaaccent" unicode="&#x123;" horiz-adv-x="2167" 
d="M2130 1798c-49.333 6 -94.002 10.999 -134.002 14.999s-74.667 6 -104 6c-21.333 0 -39.5 -2.5 -54.5 -7.5s-28.5 -13.667 -40.5 -26s-23.333 -28.833 -34 -49.5s-22 -46.334 -34 -77.001c18 -21.333 34.5 -46.833 49.5 -76.5s27.833 -61.167 38.5 -94.5
s19 -67.333 25 -102s9 -68 9 -100c0 -112.667 -21 -212 -63 -298s-100.5 -158.167 -175.5 -216.5s-164.667 -102.5 -269 -132.5s-219.166 -45 -344.499 -45h-102c-7.33301 -11.333 -13.833 -24.166 -19.5 -38.499s-10.334 -29 -14.001 -44s-6.5 -30 -8.5 -45
s-3 -28.5 -3 -40.5c0 -21.333 1.83301 -39 5.5 -53s9.33398 -25 17.001 -33s17.5 -13.5 29.5 -16.5s26 -4.5 42 -4.5h414c118 0 218 -8.83301 300 -26.5s148.667 -45.334 200 -83.001s88.666 -86.334 111.999 -146.001s35 -131.5 35 -215.5
c0 -64 -11.667 -127.167 -35 -189.5s-57.166 -121.5 -101.499 -177.5s-98.833 -107.833 -163.5 -155.5s-138.5 -88.834 -221.5 -123.501s-174.833 -61.834 -275.5 -81.501s-209 -29.5 -325 -29.5c-266.667 0 -469.834 37.5 -609.501 112.5s-209.5 190.167 -209.5 345.5
c0 54.667 8.5 105.167 25.5 151.5s42.5 90.833 76.5 133.5s76.5 84.834 127.5 126.501s110.833 84.834 179.5 129.501c-16.667 18.667 -29 41.334 -37 68.001s-12 54.667 -12 84c0 27.333 2.66699 55 8 83s14.333 57.833 27 89.5s29.834 65.834 51.501 102.501
s48.834 77.334 81.501 122.001c-62.667 16.667 -120 40.834 -172 72.501s-96.833 71.5 -134.5 119.5s-67 104.167 -88 168.5s-31.5 136.833 -31.5 217.5c0 120 21.833 226.667 65.5 320s104.334 172 182.001 236s169.667 112.833 276 146.5s222.5 50.5 348.5 50.5
c49.333 0 95.5 -2.83301 138.5 -8.5s83.167 -13.334 120.5 -23.001s72 -21 104 -34s61.333 -26.5 88 -40.5c22.667 78 45.167 142.5 67.5 193.5s47.666 91.5 75.999 121.5s60.833 51.167 97.5 63.5s80.667 18.5 132 18.5c22.667 0 47 -1 73 -3s52.167 -5 78.5 -9
s52.5 -9.16699 78.5 -15.5s50.333 -13.5 73 -21.5zM1368 1278c0 51.333 -7.00195 97.8301 -21.002 139.497s-35.167 77.334 -63.5 107.001s-64.166 52.667 -107.499 69s-94 24.5 -152 24.5c-126.667 0 -220.5 -31.833 -281.5 -95.5s-91.5 -156.167 -91.5 -277.5
c0 -59.333 7.83301 -110.166 23.5 -152.499s38.5 -77.166 68.5 -104.499s66.833 -47.333 110.5 -60s93.834 -19 150.501 -19c53.333 0 102.333 7.16699 147 21.5s83 36.5 115 66.5s57 68.167 75 114.5s27 101.833 27 166.5zM1565 -225.004
c0 28.667 -4.6709 53.5 -14.0039 74.5s-25.166 38.5 -47.499 52.5s-52.166 24.333 -89.499 31s-84 10 -140 10h-602c-55.333 -45.333 -94.5 -89.5 -117.5 -132.5s-34.5 -84.833 -34.5 -125.5c0 -39.333 8.5 -73.333 25.5 -102s43.167 -52.5 78.5 -71.5
s80.666 -33.167 135.999 -42.5s121.333 -14 198 -14c100.667 0 188.834 10.167 264.501 30.5s138.834 46 189.501 77s88.834 65.333 114.501 103s38.5 74.167 38.5 109.5zM880.992 2183c-54 74.667 -94.168 156.334 -120.501 245c-26.333 88.667 -39.5 176.334 -39.5 263
c0 160 47.333 303.833 142 431.5s238.334 240.5 431.001 338.5l176 -287c-55.333 -38 -100 -72.5 -134 -103.5s-60.5 -62.167 -79.5 -93.5s-31.833 -64.166 -38.5 -98.5c-6.66699 -34.333 -10 -73.5 -10 -117.5c0 -24 2.5 -55 7.5 -93s11.667 -79.5 20 -124.5
s18.333 -91.667 30 -140s24.167 -94.5 37.5 -138.5z" />
    <glyph glyph-name="Hcircumflex" unicode="&#x124;" horiz-adv-x="2863" 
d="M2064 0v1233h-1269v-1233h-516v2826h516v-1184h1269v1184h521v-2826h-521zM1679 3138l-258 471l-282 -471l-332 40l491 779h316l446 -779z" />
    <glyph glyph-name="hcircumflex" unicode="&#x125;" horiz-adv-x="2195" 
d="M1434 0l0.00292969 1343c0 34 -3 64.667 -9 92s-16.167 50.666 -30.5 69.999s-34 34.166 -59 44.499s-56.5 15.5 -94.5 15.5c-32 0 -66.833 -5.5 -104.5 -16.5s-76.834 -27.167 -117.501 -48.5s-82 -47.5 -124 -78.5s-83.667 -66.5 -125 -106.5v-1315h-500v2941l496 29
v-1291c119.333 104.667 234.5 181.334 345.5 230.001s219.833 73 326.5 73c91.333 0 168.666 -11 231.999 -33s114.666 -55.5 153.999 -100.5s68 -101.667 86 -170s27 -148.5 27 -240.5v-1438h-503zM762.003 3154l-258 471l-283 -471l-332 41l492 778h315l447 -778z" />
    <glyph glyph-name="Hbar" unicode="&#x126;" horiz-adv-x="2945" 
d="M2105 0v1233h-1269v-1233h-517v2032h-278l29 344h249v450h517v-450h1269v450h521v-450h294l-28 -344h-266v-2032h-521zM2105 1642v390h-1269v-390h1269z" />
    <glyph glyph-name="hbar" unicode="&#x127;" horiz-adv-x="2236" 
d="M1475 0l0.00292969 1343c0 34 -3 64.667 -9 92s-16.167 50.666 -30.5 69.999s-34 34.166 -59 44.499s-56.5 15.5 -94.5 15.5c-32 0 -66.833 -5.5 -104.5 -16.5s-76.834 -27.167 -117.501 -48.5s-82 -47.5 -124 -78.5s-83.667 -66.5 -125 -106.5v-1315h-500v2347h-327
l16 311h311v283l496 29v-312h586l-17 -311h-569v-668c118.667 104.667 233.667 181.334 345 230.001s220.333 73 327 73c91.333 0 168.666 -11 231.999 -33s114.666 -55.5 153.999 -100.5s68 -101.667 86 -170s27 -148.5 27 -240.5v-1438h-503z" />
    <glyph glyph-name="Itilde" unicode="&#x128;" horiz-adv-x="1729" 
d="M1536 2474l-393 -25v-2089l401 -16v-344h-1319v344l402 16v2089l-389 25v352h1298v-352zM1577 3838c-13.333 -97.333 -33 -180 -59 -248s-57.833 -123.5 -95.5 -166.5s-80.334 -74.167 -128.001 -93.5s-99.5 -29 -155.5 -29c-40 0 -81.167 2.16699 -123.5 6.5
s-84.5 9 -126.5 14s-83.167 9.66699 -123.5 14s-78.5 6.5 -114.5 6.5c-21.333 0 -39.833 -3.16699 -55.5 -9.5s-29.667 -17.666 -42 -34c-12.333 -16.333 -23.666 -39.166 -33.999 -68.5c-10.333 -29.333 -21.166 -67 -32.499 -113l-303 61
c13.333 94 32.833 174.667 58.5 242s57 122.5 94 165.5s79.833 74.667 128.5 95s102.667 30.5 162 30.5c42 0 83.333 -2.33301 124 -7s80.667 -9.83398 120 -15.5c39.333 -5.66699 77.666 -10.834 114.999 -15.5c37.333 -4.66699 73.333 -7 108 -7
c22.667 0 42.5 3.33301 59.5 10s32.333 18.5 46 35.5s26.5 40.333 38.5 70s24 67.5 36 113.5l303 -57v0z" />
    <glyph glyph-name="itilde" unicode="&#x129;" horiz-adv-x="1028" 
d="M270 0v1929l492 29v-1958h-492zM1200 2970c-13.333 -97.333 -33 -180.166 -59 -248.5c-26 -68.333 -57.833 -123.833 -95.5 -166.5s-80.334 -73.667 -128.001 -93s-99.5 -29 -155.5 -29c-40 0 -81.167 2.16699 -123.5 6.5s-84.5 9 -126.5 14s-83.167 9.66699 -123.5 14
s-78.5 6.5 -114.5 6.5c-21.333 0 -39.833 -3.16699 -55.5 -9.5s-29.5 -17.666 -41.5 -34c-12 -16.333 -23.167 -39.166 -33.5 -68.5c-10.333 -29.333 -21.166 -67 -32.499 -113l-304 61c13.333 94 32.833 174.667 58.5 242s57 122.5 94 165.5s79.833 74.667 128.5 95
s102.667 30.5 162 30.5c42 0 83.5 -2.33301 124.5 -7s81 -9.83398 120 -15.5c39 -5.66699 77.167 -10.834 114.5 -15.5c37.333 -4.66699 73.333 -7 108 -7c22.667 0 42.5 3.33301 59.5 10s32.333 18.5 46 35.5s26.5 40.333 38.5 70s24 67.5 36 113.5l303 -57v0z" />
    <glyph glyph-name="Imacron" unicode="&#x12a;" horiz-adv-x="1729" 
d="M1536 2474l-393 -25v-2089l401 -16v-344h-1319v344l402 16v2089l-389 25v352h1298v-352zM1540 3219h-1311l25 336h1311z" />
    <glyph glyph-name="imacron" unicode="&#x12b;" horiz-adv-x="1028" 
d="M270 0v1929l492 29v-1958h-492zM1159 2413h-1311l25 335h1311z" />
    <glyph glyph-name="Iogonek" unicode="&#x12e;" horiz-adv-x="1729" 
d="M975 -889c-109.333 15.333 -200.999 35.6641 -274.999 60.9971s-133.5 56 -178.5 92s-77 77.333 -96 124s-28.5 99 -28.5 157c0 32.667 3.83301 64.334 11.5 95.001s22 63.5 43 98.5s50.167 73.5 87.5 115.5s85.666 90.667 144.999 146h-459v344l402 16v2089l-389 25v352
h1298v-352l-393 -25v-2089l401 -16v-344h-446c-49.333 -59.333 -89.5 -110.666 -120.5 -153.999s-55.167 -81.333 -72.5 -114s-29.166 -61.167 -35.499 -85.5s-9.5 -47.166 -9.5 -68.499s2.66699 -40 8 -56s15.666 -30.5 30.999 -43.5s37 -24.833 65 -35.5
s64.333 -21.667 109 -33z" />
    <glyph glyph-name="iogonek" unicode="&#x12f;" horiz-adv-x="1028" 
d="M553 -889c-109.333 15.333 -200.997 35.665 -274.997 60.998s-133.5 56 -178.5 92s-77 77.333 -96 124s-28.5 99 -28.5 157c0 32.667 4 64.667 12 96s23 64.833 45 100.5s52.167 75 90.5 118s87.5 92.5 147.5 148.5v1921l492 29v-1958
c-70.667 -59.333 -127.334 -110.666 -170.001 -153.999s-75.334 -81.333 -98.001 -114s-37.667 -61.167 -45 -85.5s-11 -47.166 -11 -68.499s2.66699 -40 8 -56s15.666 -30.5 30.999 -43.5s37 -24.833 65 -35.5s64.333 -21.667 109 -33zM262.003 2314v443h504v-443h-504z
" />
    <glyph glyph-name="Idotaccent" unicode="&#x130;" horiz-adv-x="1729" 
d="M1536 2474l-393 -25v-2089l401 -16v-344h-1319v344l402 16v2089l-389 25v352h1298v-352zM631 3207v443h504v-443h-504z" />
    <glyph glyph-name="dotlessi" unicode="&#x131;" horiz-adv-x="1028" 
d="M270 0v1929l492 29v-1958h-492z" />
    <glyph glyph-name="IJ" unicode="&#x132;" horiz-adv-x="3170" 
d="M1536 2474l-393 -25v-2089l401 -16v-344h-1319v344l402 16v2089l-389 25v352h1298v-352zM1696 -262c28.667 -8 59.5 -15.168 92.5 -21.501s65.667 -11.5 98 -15.5s63.333 -7 93 -9s55.167 -3 76.5 -3c52 0 95.833 5.83301 131.5 17.5s64.5 29.834 86.5 54.501
s37.667 56.5 47 95.5s14 85.5 14 139.5v2453l-443 25v352h1254v-352l-291 -20v-2368c0 -127.333 -17 -240.5 -51 -339.5s-83.667 -182.5 -149 -250.5s-146.166 -119.833 -242.499 -155.5s-206.833 -53.5 -331.5 -53.5c-36.667 0 -76 2 -118 6s-84 9.5 -126 16.5
s-82.833 15.667 -122.5 26s-75.834 21.5 -108.501 33.5z" />
    <glyph glyph-name="ij" unicode="&#x133;" horiz-adv-x="2073" 
d="M1298 2314v443h504v-443h-504zM1798 -57c0 -149.333 -16.668 -274.501 -50.001 -375.501s-84 -183.167 -152 -246.5s-153.833 -111.166 -257.5 -143.499s-226.167 -54.5 -367.5 -66.5l-70 377c83.333 11.333 150.833 25 202.5 41s91.834 36.667 120.501 62
s48.167 56.5 58.5 93.5s15.5 82.167 15.5 135.5v2109l500 29v-2015v0zM269.999 -0.000976562v1929l492 29v-1958h-492zM257.999 2314v443h504v-443h-504z" />
    <glyph glyph-name="Jcircumflex" unicode="&#x134;" horiz-adv-x="1442" 
d="M-33 -262c28.667 -8 59.6689 -15.168 93.002 -21.501s66.166 -11.5 98.499 -15.5s63.333 -7 93 -9s55.167 -3 76.5 -3c52 0 95.833 5.83301 131.5 17.5s64.334 29.834 86.001 54.501s37.167 56.5 46.5 95.5s14 85.5 14 139.5v2453l-442 25v352h1253v-352l-291 -20v-2368
c0 -127.333 -16.833 -240.5 -50.5 -339.5s-83.334 -182.5 -149.001 -250.5s-146.5 -119.833 -242.5 -155.5s-206.667 -53.5 -332 -53.5c-36.667 0 -75.834 2 -117.501 6s-83.5 9.5 -125.5 16.5s-83 15.667 -123 26s-76.333 21.5 -109 33.5zM1110 3138l-258 471l-283 -471
l-331 40l491 779h315l447 -779z" />
    <glyph glyph-name="jcircumflex" unicode="&#x135;" horiz-adv-x="1044" 
d="M770 -57c0 -149.333 -16.667 -274.501 -50 -375.501s-84 -183.167 -152 -246.5s-153.833 -111.166 -257.5 -143.499s-226.167 -54.5 -367.5 -66.5l-70 377c82.667 11.333 150 25 202 41s92.333 36.667 121 62s48.167 56.5 58.5 93.5s15.5 82.167 15.5 135.5v2109l500 29
v-2015v0zM758 2269l-258 471l-283 -471l-332 41l492 778h315l447 -778z" />
    <glyph glyph-name="Kcommaaccent" unicode="&#x136;" horiz-adv-x="2470" 
d="M1855 0l-835 1286l-242 -266v-1020h-499v2826h499v-1261l1057 1261h532l-966 -1184l1089 -1642h-635zM1434 -139c53.333 -74.667 93.168 -156.33 119.501 -244.997s39.5 -176.334 39.5 -263.001c0 -160 -47.333 -303.833 -142 -431.5s-238.334 -240.5 -431.001 -338.5
l-176 287c55.333 38 100 72.5 134 103.5s60.5 62.167 79.5 93.5s31.833 64.166 38.5 98.499s10 73.5 10 117.5c0 23.333 -2.33301 54.166 -7 92.499s-11.334 80 -20.001 125s-18.667 91.667 -30 140s-23.666 94.5 -36.999 138.5z" />
    <glyph glyph-name="kcommaaccent" unicode="&#x137;" horiz-adv-x="2060" 
d="M1401 1933h545l-725 -864l798 -1069h-647l-606 864v-864h-500v2941l500 29v-1819zM1237 -139c53.333 -74.667 93.333 -156.33 120 -244.997s40 -176.334 40 -263.001c0 -160 -47.5 -303.833 -142.5 -431.5s-238.833 -240.5 -431.5 -338.5l-176 287
c55.333 38 100 72.5 134 103.5s60.5 62.167 79.5 93.5s31.833 64.166 38.5 98.499s10 73.5 10 117.5c0 23.333 -2.33301 54.166 -7 92.499s-11.334 80 -20.001 125s-18.667 91.667 -30 140s-23.666 94.5 -36.999 138.5z" />
    <glyph glyph-name="Lacute" unicode="&#x139;" horiz-adv-x="2064" 
d="M279 0v2826h516v-2433h1147l32 -393h-1695zM676 3150l-328 69l504 762l389 -86z" />
    <glyph glyph-name="lacute" unicode="&#x13a;" horiz-adv-x="1122" 
d="M266 2941l491.997 29.001v-2433c0 -34 1 -61.833 3 -83.5s7 -38.834 15 -51.501s19.833 -21.334 35.5 -26.001s37.5 -7 65.5 -7c16 0 36.167 0.333008 60.5 1s57.166 3 98.499 7l13 -348c-22.667 -7.33301 -49.667 -14 -81 -20s-64.833 -11.167 -100.5 -15.5
s-72.667 -7.66602 -111 -9.99902s-76.166 -3.5 -113.499 -3.5c-63.333 0 -118.666 7 -165.999 21s-86.666 36.167 -117.999 66.5s-54.666 69.5 -69.999 117.5s-23 106.333 -23 175v2581zM650.997 3219l-327 70l503 762l390 -86z" />
    <glyph glyph-name="Lcommaaccent" unicode="&#x13b;" horiz-adv-x="2064" 
d="M279 0v2826h516v-2433h1147l32 -393h-1695zM1319 -139c53.333 -74.667 93.333 -156.33 120 -244.997s40 -176.334 40 -263.001c0 -160 -47.5 -303.833 -142.5 -431.5s-238.833 -240.5 -431.5 -338.5l-176 287c55.333 38 100 72.5 134 103.5s60.5 62.167 79.5 93.5
s31.833 64.166 38.5 98.499s10 73.5 10 117.5c0 23.333 -2.33301 54.166 -7 92.499s-11.334 80 -20.001 125s-18.667 91.667 -30 140s-23.666 94.5 -36.999 138.5z" />
    <glyph glyph-name="lcommaaccent" unicode="&#x13c;" horiz-adv-x="1122" 
d="M266 2941l491.997 29.001v-2433c0 -34 1 -61.833 3 -83.5s7 -38.834 15 -51.501s19.833 -21.334 35.5 -26.001s37.5 -7 65.5 -7c16 0 36.167 0.333008 60.5 1s57.166 3 98.499 7l13 -348c-22.667 -7.33301 -49.667 -14 -81 -20s-64.833 -11.167 -100.5 -15.5
s-72.667 -7.66602 -111 -9.99902s-76.166 -3.5 -113.499 -3.5c-63.333 0 -118.666 7 -165.999 21s-86.666 36.167 -117.999 66.5s-54.666 69.5 -69.999 117.5s-23 106.333 -23 175v2581zM855.997 -138.999c54 -74.667 94.167 -156.33 120.5 -244.997
s39.5 -176.334 39.5 -263.001c0 -160 -47.5 -303.833 -142.5 -431.5s-238.833 -240.5 -431.5 -338.5l-176 287c55.333 38 100 72.5 134 103.5s60.5 62.167 79.5 93.5s31.833 64.166 38.5 98.499s10 73.5 10 117.5c0 23.333 -2.33301 54.166 -7 92.499
s-11.334 80 -20.001 125s-18.667 91.667 -30 140s-23.666 94.5 -36.999 138.5z" />
    <glyph glyph-name="Lcaron" unicode="&#x13d;" horiz-adv-x="2064" 
d="M279 0v2826h516v-2433h1147l32 -393h-1695zM1688 2990c26.667 -36.667 49.834 -75.667 69.501 -117s36.167 -83.833 49.5 -127.5s23.333 -87.667 30 -132s10 -88.166 10 -131.499c0 -159.333 -47.333 -302.833 -142 -430.5s-238.334 -240.834 -431.001 -339.501l-176 287
c55.333 38 100 72.5 134 103.5s60.5 62.167 79.5 93.5s31.833 64.333 38.5 99s10 74 10 118c0 23.333 -2.33301 54 -7 92s-11.334 79.5 -20.001 124.5s-18.667 91.667 -30 140s-23.666 94.5 -36.999 138.5z" />
    <glyph glyph-name="lcaron" unicode="&#x13e;" horiz-adv-x="1585" 
d="M266 2941l491.997 29.001v-2433c0 -34 1 -61.833 3 -83.5s7 -38.834 15 -51.501s19.833 -21.334 35.5 -26.001s37.5 -7 65.5 -7c16 0 36.167 0.333008 60.5 1s57.166 3 98.499 7l13 -348c-22.667 -7.33301 -49.667 -14 -81 -20s-64.833 -11.167 -100.5 -15.5
s-72.667 -7.66602 -111 -9.99902s-76.166 -3.5 -113.499 -3.5c-63.333 0 -118.666 7 -165.999 21s-86.666 36.167 -117.999 66.5s-54.666 69.5 -69.999 117.5s-23 106.333 -23 175v2581zM1548 3113c26.667 -36.667 50.0039 -75.666 70.0039 -116.999
s36.667 -83.833 50 -127.5s23.333 -87.667 30 -132s10 -88.166 10 -131.499c0 -159.333 -47.333 -302.833 -142 -430.5s-238.334 -240.834 -431.001 -339.501l-177 287c55.333 38 100.166 72.5 134.499 103.5s61 62.167 80 93.5s31.833 64.166 38.5 98.499s10 73.5 10 117.5
c0 24 -2.33301 55 -7 93s-11.334 79.5 -20.001 124.5s-18.834 91.667 -30.501 140s-24.167 94.5 -37.5 138.5z" />
    <glyph glyph-name="Ldot" unicode="&#x13f;" horiz-adv-x="2400" 
d="M279 0v2826h516v-2433h1147l32 -393h-1695zM1753 909v443h504v-443h-504z" />
    <glyph glyph-name="ldot" unicode="&#x140;" horiz-adv-x="1790" 
d="M266 2941l491.997 29.001v-2433c0 -34 1 -61.833 3 -83.5s7 -38.834 15 -51.501s19.833 -21.334 35.5 -26.001s37.5 -7 65.5 -7c16 0 36.167 0.333008 60.5 1s57.166 3 98.499 7l13 -348c-22.667 -7.33301 -49.667 -14 -81 -20s-64.833 -11.167 -100.5 -15.5
s-72.667 -7.66602 -111 -9.99902s-76.166 -3.5 -113.499 -3.5c-63.333 0 -118.666 7 -165.999 21s-86.666 36.167 -117.999 66.5s-54.666 69.5 -69.999 117.5s-23 106.333 -23 175v2581zM1151 877.001v442h504v-442h-504z" />
    <glyph glyph-name="Lslash" unicode="&#x141;" horiz-adv-x="2056" 
d="M356 0v1298l-286 -90l-70 312l356 110v1196h516v-1044l644 205l69 -312l-713 -225v-1057h1065l33 -393h-1614z" />
    <glyph glyph-name="lslash" unicode="&#x142;" horiz-adv-x="1139" 
d="M266 1692l-160.003 -69.999l-106 279l266 118v922l492 29v-729l303 139l110 -291l-413 -184v-1368c0 -34 1 -61.833 3 -83.5s7 -38.834 15 -51.501s19.833 -21.334 35.5 -26.001s37.5 -7 65.5 -7c16 0 36.167 0.333008 60.5 1s57.166 3 98.499 7l13 -348
c-22.667 -7.33301 -49.667 -14 -81 -20s-64.833 -11.167 -100.5 -15.5s-72.667 -7.66602 -111 -9.99902s-76.166 -3.5 -113.499 -3.5c-63.333 0 -118.666 7 -165.999 21s-86.666 36.167 -117.999 66.5s-54.666 69.5 -69.999 117.5s-23 106.333 -23 175v1332z" />
    <glyph glyph-name="Nacute" unicode="&#x143;" horiz-adv-x="2900" 
d="M2175 0l-1315 1810c-24.667 33.333 -45.834 64.833 -63.501 94.5s-30.5 57.167 -38.5 82.5v-1987h-479v2826h450l1307 -1839c32.667 -45.333 57.834 -83 75.5 -113c17.667 -30 30.5 -56.333 38.5 -79v2031h476v-2826h-451zM1581 3150l-328 69l504 762l389 -86z" />
    <glyph glyph-name="nacute" unicode="&#x144;" horiz-adv-x="2195" 
d="M1434 0l0.00195312 1343c0 34 -3 64.667 -9 92s-16.167 50.666 -30.5 69.999s-34 34.166 -59 44.499s-56.5 15.5 -94.5 15.5c-32 0 -66.5 -5.5 -103.5 -16.5s-75.833 -27.167 -116.5 -48.5s-82.167 -47.5 -124.5 -78.5s-84.5 -66.5 -126.5 -106.5v-1315h-500v1937l435 29
c6 -14 11.5 -32 16.5 -54s9.5 -46.167 13.5 -72.5s7.66699 -54.166 11 -83.499s6 -59 8 -89c115.333 105.333 231.333 184.166 348 236.499s228.667 78.5 336 78.5c91.333 0 168.666 -11 231.999 -33s114.666 -55.5 153.999 -100.5s68 -101.667 86 -170s27 -148.5 27 -240.5
v-1438h-503zM1257 2261l-327 70l504 761l389 -86z" />
    <glyph glyph-name="Ncommaaccent" unicode="&#x145;" horiz-adv-x="2900" 
d="M2175 0l-1315 1810c-24.667 33.333 -45.834 64.833 -63.501 94.5s-30.5 57.167 -38.5 82.5v-1987h-479v2826h450l1307 -1839c32.667 -45.333 57.834 -83 75.5 -113c17.667 -30 30.5 -56.333 38.5 -79v2031h476v-2826h-451zM1581 -139
c54 -74.667 94.167 -156.33 120.5 -244.997s39.5 -176.334 39.5 -263.001c0 -160 -47.5 -303.833 -142.5 -431.5s-238.833 -240.5 -431.5 -338.5l-176 287c55.333 38 100 72.5 134 103.5s60.5 62.167 79.5 93.5s31.833 64.166 38.5 98.499s10 73.5 10 117.5
c0 23.333 -2.33301 54.166 -7 92.499s-11.334 80 -20.001 125s-18.667 91.667 -30 140s-23.666 94.5 -36.999 138.5z" />
    <glyph glyph-name="ncommaaccent" unicode="&#x146;" horiz-adv-x="2195" 
d="M1434 0l0.00195312 1343c0 34 -3 64.667 -9 92s-16.167 50.666 -30.5 69.999s-34 34.166 -59 44.499s-56.5 15.5 -94.5 15.5c-32 0 -66.5 -5.5 -103.5 -16.5s-75.833 -27.167 -116.5 -48.5s-82.167 -47.5 -124.5 -78.5s-84.5 -66.5 -126.5 -106.5v-1315h-500v1937l435 29
c6 -14 11.5 -32 16.5 -54s9.5 -46.167 13.5 -72.5s7.66699 -54.166 11 -83.499s6 -59 8 -89c115.333 105.333 231.333 184.166 348 236.499s228.667 78.5 336 78.5c91.333 0 168.666 -11 231.999 -33s114.666 -55.5 153.999 -100.5s68 -101.667 86 -170s27 -148.5 27 -240.5
v-1438h-503zM1253 -138.998c54 -74.667 94.1699 -156.33 120.503 -244.997s39.5 -176.334 39.5 -263.001c0 -160 -47.333 -303.833 -142 -431.5s-238.334 -240.5 -431.001 -338.5l-176 287c55.333 38 100 72.5 134 103.5s60.5 62.167 79.5 93.5s31.833 64.166 38.5 98.499
s10 73.5 10 117.5c0 23.333 -2.33301 54.166 -7 92.499s-11.334 80 -20.001 125s-18.834 91.667 -30.501 140s-24.167 94.5 -37.5 138.5z" />
    <glyph glyph-name="Ncaron" unicode="&#x147;" horiz-adv-x="2900" 
d="M2175 0l-1315 1810c-24.667 33.333 -45.834 64.833 -63.501 94.5s-30.5 57.167 -38.5 82.5v-1987h-479v2826h450l1307 -1839c32.667 -45.333 57.834 -83 75.5 -113c17.667 -30 30.5 -56.333 38.5 -79v2031h476v-2826h-451zM1208 3977l258 -475l279 471l332 -33l-492 -782
h-315l-443 782z" />
    <glyph glyph-name="ncaron" unicode="&#x148;" horiz-adv-x="2195" 
d="M1434 0l0.00195312 1343c0 34 -3 64.667 -9 92s-16.167 50.666 -30.5 69.999s-34 34.166 -59 44.499s-56.5 15.5 -94.5 15.5c-32 0 -66.5 -5.5 -103.5 -16.5s-75.833 -27.167 -116.5 -48.5s-82.167 -47.5 -124.5 -78.5s-84.5 -66.5 -126.5 -106.5v-1315h-500v1937l435 29
c6 -14 11.5 -32 16.5 -54s9.5 -46.167 13.5 -72.5s7.66699 -54.166 11 -83.499s6 -59 8 -89c115.333 105.333 231.333 184.166 348 236.499s228.667 78.5 336 78.5c91.333 0 168.666 -11 231.999 -33s114.666 -55.5 153.999 -100.5s68 -101.667 86 -170s27 -148.5 27 -240.5
v-1438h-503zM881.002 3088l258 -475l278 471l332 -32l-492 -783h-315l-442 783z" />
    </font>
</defs>
</svg>
